<svg width="71" height="60" viewBox="0 0 71 60" fill="none" xmlns="http://www.w3.org/2000/svg">
<g clip-path="url(#clip0_1291_11011)">
<path d="M1.97656 27.3469L4.07267 60.0001L16.7982 56.9975L16.2781 49.4298L9.86529 50.4668L8.84505 34.901L15.209 34.3509L14.731 26.9727L1.97656 27.3469Z" fill="#888888"/>
<path d="M0.390625 0L1.81443 22.0161L9.91881 22.0183L9.60924 16.8155L5.44176 16.6697L4.83381 5.97706L8.82954 6.37781L8.51086 1.15443L0.390625 0Z" fill="#888888"/>
<path d="M30.8694 53.3943L28.9766 26.7396L37.1595 26.4219L37.4461 32.4732L33.2926 32.7266L33.6797 37.0846L37.0376 36.7668L37.4055 40.8915L34.3984 41.4715L35.1448 52.252L30.8694 53.3943Z" fill="#888888"/>
<path d="M39.841 51.1932L45.9128 49.6842L45.4568 43.6416L42.3859 44.2678L42.1527 40.171L44.4007 39.7859L44.0381 35.5969L41.7285 35.8626L41.3595 32.0453L44.5746 31.7141L43.949 25.8721L37.9727 26.1513L39.841 51.1932Z" fill="#888888"/>
<path d="M29.7293 21.9551L37.4441 22.018L37.1033 17.8239L33.3027 17.698L33.0669 14.6008L35.3284 14.6907L35.0969 11.6856L32.8525 11.4946L32.6082 9.05368L36.5245 9.50323L36.1301 5.31361L28.4453 4.40332L29.7293 21.9551Z" fill="#888888"/>
<path d="M45.9141 25.9672L47.7923 49.5418L50.6782 48.7823L48.8684 25.8721L45.9141 25.9672Z" fill="#888888"/>
<path d="M51.9262 48.4408L50.1484 26.1167L53.5879 26.0322L56.3179 34.4693L55.6429 25.892L58.9104 25.8721L60.7354 46.2765L57.6206 47.0306L54.7788 38.7513L55.5612 47.5288L51.9262 48.4408Z" fill="#888888"/>
<path d="M66.6741 25.3203L61.2656 25.3648L61.4036 46.2391L64.7145 45.3669L64.4594 38.6857L66.2409 38.3697L67.2971 44.7691L70.2639 44.0941L66.6741 25.3203ZM64.8554 30.2748L65.4992 35.0439L63.955 35.2294L63.912 30.3164L64.8554 30.2748Z" fill="#888888"/>
<path d="M47.5041 4.9541L45.9141 16.9676H48.4326L47.0156 29.7247L51.2075 12.9424L49.0064 12.9334L50.3862 5.36821L47.5041 4.9541Z" fill="#888888"/>
<path d="M19.9766 2.75195L21.2138 22.018H28.9755L28.9026 17.4723L25.0796 17.2816L24.0886 3.27873L19.9766 2.75195Z" fill="#888888"/>
<path d="M40.7134 9.90119L38.2929 9.61304L37.9727 5.50488L45.6477 6.64617L45.9128 10.4932L43.5772 10.2726L44.3006 22.0187L41.5004 22.0074L40.7134 9.90119Z" fill="#888888"/>
<path d="M58.6172 8.80664L59.933 22.0177H67.0874L65.8013 9.8198L58.6172 8.80664ZM62.3227 12.1087L63.8283 12.3623L64.441 18.7142H62.9368L62.3227 12.1087Z" fill="#888888"/>
<path d="M51.207 7.70605L53.7364 21.954L57.5592 22.018L58.0885 8.65307L55.586 8.23368L55.3347 17.2893L54.206 8.08573L51.207 7.70605Z" fill="#888888"/>
<path d="M26.5181 26.4219L18.3906 26.6162L18.3967 56.6964L22.8187 55.5008L22.8156 47.9058L25.1461 47.4534L26.4707 54.7027L30.5649 53.6658L26.5181 26.4219ZM23.7116 33.5778L24.7425 42.131L22.4937 42.3847L22.0961 33.8017L23.7116 33.5778Z" fill="#888888"/>
<path d="M9.92188 1.65039L11.159 21.8483L19.9793 22.0174L18.7807 2.91869L9.92188 1.65039ZM13.0963 6.60344L16.1981 6.92236L16.8018 17.0628L13.8365 17.0421L13.0963 6.60344Z" fill="#888888"/>
</g>
<defs>
<clipPath id="clip0_1291_11011">
<rect width="69.8735" height="60" fill="white" transform="translate(0.390625)"/>
</clipPath>
</defs>
</svg>
