<svg width="134" height="60" viewBox="0 0 134 60" fill="none" xmlns="http://www.w3.org/2000/svg">
<g clip-path="url(#clip0_1293_11123)">
<path fill-rule="evenodd" clip-rule="evenodd" d="M59.4006 13.124L78.8064 45.5471H40L59.4006 13.124Z" fill="#FDDB00"/>
<path fill-rule="evenodd" clip-rule="evenodd" d="M25.1328 13.127L46.168 45.55H25.1328V13.127Z" fill="#01D101"/>
<path fill-rule="evenodd" clip-rule="evenodd" d="M42.9574 40.5977L40 45.5422H46.1667L42.9574 40.5977Z" fill="#4E4E4E"/>
<path fill-rule="evenodd" clip-rule="evenodd" d="M59.4011 33.6592C65.9521 33.6592 71.271 38.9856 71.271 45.5458H47.5312C47.5312 38.9856 52.8501 33.6592 59.4011 33.6592Z" fill="#193DFF"/>
<path fill-rule="evenodd" clip-rule="evenodd" d="M37.8574 13.127C43.2115 13.127 47.5577 17.4791 47.5577 22.841C47.5577 28.2028 43.2115 32.555 37.8574 32.555L28.1005 30.6544L25.1328 13.127H37.8574Z" fill="#193DFF"/>
<path fill-rule="evenodd" clip-rule="evenodd" d="M122.121 34.6123H133.352V45.5433H122.121V34.6123Z" fill="#193DFF"/>
<path fill-rule="evenodd" clip-rule="evenodd" d="M110.895 34.6123H122.124V45.5433H110.895V34.6123Z" fill="#4E4E4E"/>
<path fill-rule="evenodd" clip-rule="evenodd" d="M110.895 13.1729H122.124V34.6119H110.895V13.1729Z" fill="#FDDB00"/>
<path fill-rule="evenodd" clip-rule="evenodd" d="M97.7461 13.1816H108.976V45.5519H97.7461V13.1816Z" fill="#01D101"/>
<path fill-rule="evenodd" clip-rule="evenodd" d="M81.0524 43.5353C78.5064 41.6554 76.8555 38.632 76.8555 35.2223C76.8555 31.8126 78.5064 28.7891 81.0524 26.9092V24.9004H87.1627C92.8513 24.9004 97.4697 29.5257 97.4697 35.2223C97.4697 40.9188 92.8513 45.544 87.1627 45.544H81.0524V43.5353Z" fill="#FDDB00"/>
<path fill-rule="evenodd" clip-rule="evenodd" d="M84.5195 22.8873L84.1238 24.9012V27.2087H80.1324C76.2544 27.2087 73.1016 24.0513 73.1016 20.1678C73.1016 16.2842 76.2544 13.127 80.1324 13.127H84.1238L84.5195 15.1408V22.8873Z" fill="#01D101"/>
<path fill-rule="evenodd" clip-rule="evenodd" d="M84.125 13.1201H95.8307V24.8972H84.125V13.1201Z" fill="#193DFF"/>
<path fill-rule="evenodd" clip-rule="evenodd" d="M73.1016 27.2031H84.1249V45.5448H73.1016V27.2031Z" fill="#FF0000"/>
<path fill-rule="evenodd" clip-rule="evenodd" d="M15.4312 26.1143C20.7854 26.1143 25.1315 30.4665 25.1315 35.8283C25.1315 41.1901 20.7854 45.5423 15.4312 45.5423H0.515625V26.1143H15.4312Z" fill="#FF0000"/>
<path fill-rule="evenodd" clip-rule="evenodd" d="M14.404 13.127C17.9837 13.127 20.8897 16.037 20.8897 19.6219C20.8897 23.2066 17.9837 26.1167 14.404 26.1167H6.61719L11.277 13.127H14.404Z" fill="#193DFF"/>
<path d="M14.4248 2.87304V4.19463H16.0888C15.9454 4.59686 15.5151 4.91289 14.8552 4.91289C13.9084 4.91289 13.2773 4.22336 13.2773 3.30399C13.2773 2.35589 13.9371 1.63764 14.8265 1.63764C15.4003 1.63764 15.9167 1.92494 16.1749 2.41335L17.6094 1.55145C17.0356 0.603345 15.9741 0 14.8552 0C13.0478 0 11.6133 1.43652 11.6133 3.27527C11.6133 5.08528 13.0478 6.5218 14.8838 6.5218C16.6052 6.5218 17.8963 5.25765 17.8963 3.33272V2.84431L14.4248 2.87304Z" fill="black"/>
<path d="M23.6066 6.55068C25.414 6.55068 26.8485 5.11416 26.8485 3.30414C26.8485 1.49413 25.414 0.0576172 23.6066 0.0576172C21.7991 0.0576172 20.3359 1.49413 20.3359 3.30414C20.3359 5.11416 21.7704 6.55068 23.6066 6.55068ZM23.6066 4.82686C22.7745 4.82686 22.1434 4.16605 22.1434 3.30414C22.1434 2.4135 22.7745 1.78144 23.6066 1.78144C24.4099 1.78144 25.041 2.44224 25.041 3.30414C25.041 4.16605 24.4099 4.82686 23.6066 4.82686Z" fill="black"/>
<path d="M33.0722 0.202148L31.6091 4.02329L30.1746 0.202148H28.3672L30.7771 6.40791H32.441L34.8796 0.202148H33.0722Z" fill="black"/>
<path d="M41.4507 1.69556V0.172852H37.0039V6.37861H41.4507V4.85591H38.6966V3.93653H40.5326V2.64367H38.6966V1.72429L41.4507 1.69556Z" fill="black"/>
<path d="M47.5627 6.40791H49.4275L48.0504 4.02329C48.7102 3.67852 49.1406 3.01773 49.1406 2.21327C49.1406 1.06406 48.2225 0.202148 46.9889 0.202148H43.9766V6.40791H45.6405V4.25313H46.329L47.5627 6.40791ZM45.6405 1.6674H46.8168C47.2184 1.6674 47.448 1.95471 47.448 2.24201C47.448 2.52931 47.1897 2.81661 46.8168 2.81661H45.6405V1.6674Z" fill="black"/>
<path d="M55.5931 0.202148V3.47741L53.0972 0.202148H51.6914V6.40791H53.3554V3.13265L55.8514 6.40791H57.2571V0.202148H55.5931Z" fill="black"/>
<path d="M62.8799 6.55068C64.6873 6.55068 66.1218 5.11416 66.1218 3.30414C66.1218 1.49413 64.6873 0.0576172 62.8799 0.0576172C61.0725 0.0576172 59.6094 1.49413 59.6094 3.30414C59.6094 5.11416 61.0438 6.55068 62.8799 6.55068ZM62.8799 4.82686C62.0479 4.82686 61.4168 4.16605 61.4168 3.30414C61.4168 2.4135 62.0479 1.78144 62.8799 1.78144C63.6832 1.78144 64.3144 2.44224 64.3144 3.30414C64.3144 4.16605 63.6832 4.82686 62.8799 4.82686Z" fill="black"/>
<path d="M76.9976 1.66683V0.172852H72.5508V6.37861H74.2434V4.10892H76.0795V2.70113H74.2434V1.6381H76.9976V1.66683Z" fill="black"/>
<path d="M83.884 1.69556V0.172852H79.4375V6.37861H83.884V4.85591H81.1301V3.93653H82.9661V2.64367H81.1301V1.72429L83.884 1.69556Z" fill="black"/>
<path d="M88.9616 0.202148H86.4375V6.40791H88.9616C90.8556 6.40791 92.2616 5.08631 92.2616 3.30502C92.2616 1.52374 90.8556 0.202148 88.9616 0.202148ZM88.8756 4.79901H88.1297V1.81105H88.8756C89.851 1.81105 90.5402 2.38565 90.5402 3.30502C90.5402 4.19566 89.851 4.79901 88.8756 4.79901Z" fill="black"/>
<path d="M99.0871 1.69556V0.172852H94.6406V6.37861H99.0871V4.85591H96.3328V3.93653H98.1693V2.64367H96.3328V1.72429L99.0871 1.69556Z" fill="black"/>
<path d="M105.2 6.40791H107.064L105.687 4.02329C106.347 3.67852 106.777 3.01773 106.777 2.21327C106.777 1.06406 105.859 0.202148 104.625 0.202148H101.613V6.40791H103.277V4.25313H103.965L105.2 6.40791ZM103.277 1.6674H104.454C104.855 1.6674 105.084 1.95471 105.084 2.24201C105.084 2.52931 104.827 2.81661 104.454 2.81661H103.277V1.6674Z" fill="black"/>
<path d="M113.92 6.40791H115.641L113.031 0.202148H111.453L108.871 6.40791H110.621L111.051 5.34488H113.519L113.92 6.40791ZM111.625 3.85091L112.256 2.3282L112.887 3.85091H111.625Z" fill="black"/>
<path d="M119.543 4.79844V0.172852H117.793V6.37861H122.154V4.76971H119.543V4.79844Z" fill="black"/>
<path fill-rule="evenodd" clip-rule="evenodd" d="M73.1016 36.0137L78.8055 45.5474H73.1016V36.0137Z" fill="#4E4E4E"/>
<path fill-rule="evenodd" clip-rule="evenodd" d="M13.8549 57.4211C14.1085 57.4211 14.3199 57.3787 14.489 57.2728C14.658 57.167 14.7848 57.0401 14.8906 56.8919C14.9962 56.7437 15.0596 56.5532 15.1018 56.3415C15.1442 56.1299 15.1653 55.9182 15.1653 55.7066V53.2725H15.9262V55.7066C15.9262 56.0241 15.884 56.3415 15.8205 56.6379C15.736 56.9342 15.6303 57.1882 15.4612 57.3999C15.2921 57.6115 15.0808 57.7809 14.8271 57.9079C14.5735 58.0348 14.2565 58.0983 13.876 58.0983C13.4956 58.0983 13.1785 58.0348 12.9037 57.9079C12.6501 57.7809 12.4388 57.5904 12.2697 57.3787C12.1006 57.167 11.9949 56.8918 11.9104 56.6167C11.847 56.3204 11.8047 56.0241 11.8047 55.7278V53.2936H12.5656V55.7278C12.5656 55.9394 12.5867 56.1511 12.629 56.3627C12.6713 56.5744 12.7347 56.7437 12.8403 56.9131C12.9461 57.0824 13.0729 57.2094 13.2419 57.294C13.4111 57.3787 13.6013 57.4211 13.8549 57.4211Z" fill="black"/>
<path fill-rule="evenodd" clip-rule="evenodd" d="M19.1202 54.713V58.0785H18.3594V53.2949H18.9512L21.6777 56.745V53.2949H22.4386V58.0785H21.8045L19.1202 54.713Z" fill="black"/>
<path fill-rule="evenodd" clip-rule="evenodd" d="M24.9531 53.2949H25.714V58.0785H24.9531V53.2949Z" fill="black"/>
<path fill-rule="evenodd" clip-rule="evenodd" d="M29.621 53.2954H30.2762L32.1573 58.0789H31.3541L30.8469 56.7878H29.008L28.5008 58.0789H27.7188L29.621 53.2954ZM30.6989 56.2163L29.938 54.1632L29.1349 56.2163H30.6989ZM30.3608 52.6816C30.255 52.6816 30.1706 52.6604 30.086 52.6393C30.0014 52.6181 29.938 52.5758 29.8746 52.5335C29.8112 52.4911 29.7478 52.4699 29.6844 52.4276C29.621 52.4064 29.5576 52.3853 29.473 52.3853C29.3885 52.3853 29.3462 52.4064 29.304 52.4276C29.2617 52.4487 29.2194 52.4911 29.1983 52.5335C29.1772 52.5758 29.156 52.6181 29.156 52.6393V52.7028H28.7333C28.7333 52.6604 28.7544 52.597 28.7756 52.5123C28.7967 52.4276 28.839 52.3429 28.9024 52.2583C28.9658 52.1736 29.0292 52.089 29.1138 52.0254C29.1983 51.9619 29.3251 51.9196 29.4519 51.9196C29.5576 51.9196 29.6422 51.9408 29.7056 51.9619C29.7901 51.9831 29.8535 52.0254 29.9169 52.0678C29.9803 52.1101 30.0438 52.1313 30.1072 52.1736C30.1706 52.1948 30.255 52.216 30.3185 52.216C30.403 52.216 30.4664 52.1948 30.5087 52.1736C30.551 52.1525 30.5932 52.1101 30.6144 52.0678C30.6355 52.0254 30.6566 51.9831 30.6566 51.9619V51.8984H31.0794C31.0794 51.9196 31.0582 51.9831 31.0371 52.0678C31.016 52.1525 30.9737 52.2371 30.9103 52.3218C30.8469 52.4064 30.7835 52.4911 30.6778 52.5546C30.6355 52.6393 30.5087 52.6816 30.3608 52.6816Z" fill="black"/>
<path fill-rule="evenodd" clip-rule="evenodd" d="M35.9858 58.099C35.6476 58.099 35.3306 58.0355 35.0558 57.8874C34.781 57.7604 34.5274 57.5699 34.3372 57.3371C34.1258 57.1042 33.9778 56.8502 33.8722 56.5539C33.7665 56.2576 33.7031 55.9612 33.7031 55.6649C33.7031 55.3474 33.7665 55.0511 33.8722 54.7548C33.999 54.4584 34.147 54.2044 34.3583 53.9716C34.5697 53.7388 34.8022 53.5695 35.077 53.4425C35.3517 53.3154 35.6687 53.252 35.9858 53.252C36.3239 53.252 36.641 53.3154 36.9157 53.4637C37.1905 53.6118 37.4441 53.7811 37.6343 54.014C37.8246 54.2468 37.9937 54.5008 38.0993 54.7971C38.205 55.0935 38.2685 55.3897 38.2685 55.6861C38.2685 56.0036 38.205 56.2999 38.0993 56.5962C37.9937 56.8926 37.8246 57.1465 37.6133 57.3582C37.4019 57.5699 37.1693 57.7604 36.8735 57.8874C36.6199 58.0355 36.3239 58.099 35.9858 58.099ZM34.464 55.6861C34.464 55.9189 34.5062 56.1306 34.5697 56.3422C34.6331 56.5539 34.7388 56.7444 34.8656 56.8926C34.9924 57.0619 35.1615 57.1889 35.3517 57.2736C35.5419 57.3794 35.7533 57.4217 35.9858 57.4217C36.2183 57.4217 36.4507 57.3794 36.6199 57.2736C36.7889 57.1677 36.958 57.0407 37.0849 56.8714C37.2117 56.702 37.3173 56.5116 37.3807 56.321C37.4441 56.1094 37.4864 55.8977 37.4864 55.6861C37.4864 55.4532 37.4441 55.2416 37.3807 55.0299C37.3173 54.8183 37.2117 54.6277 37.0849 54.4796C36.958 54.3315 36.7889 54.1833 36.5987 54.0986C36.4085 54.014 36.1971 53.9505 35.9858 53.9505C35.7533 53.9505 35.5208 53.9928 35.3306 54.0986C35.1404 54.2045 34.9924 54.3315 34.8444 54.5008C34.6965 54.6701 34.612 54.8394 34.5486 55.0511C34.5062 55.2628 34.464 55.4744 34.464 55.6861Z" fill="black"/>
<path fill-rule="evenodd" clip-rule="evenodd" d="M46.8697 57.3999V58.056H43.5938V53.2725H46.8063V53.9286H44.3546V55.2833H46.4893V55.9182H44.3546V57.3787H46.8697V57.3999Z" fill="black"/>
<path fill-rule="evenodd" clip-rule="evenodd" d="M52.1758 58.0785V53.2949H54.2471C54.4585 53.2949 54.6698 53.3372 54.8389 53.4219C55.0291 53.5065 55.1771 53.6336 55.3039 53.7817C55.4307 53.9299 55.5363 54.0992 55.5998 54.2897C55.6632 54.4802 55.7055 54.6707 55.7055 54.8612C55.7055 55.0305 55.6843 55.1787 55.642 55.3268C55.5998 55.475 55.5364 55.602 55.4519 55.729C55.3673 55.856 55.2827 55.9618 55.1559 56.0465C55.0291 56.1311 54.9023 56.2158 54.7755 56.2582L55.8957 58.0785H55.0503L54.0146 56.4063H52.9156V58.0785H52.1758ZM52.9156 55.7501H54.2259C54.3316 55.7501 54.4373 55.729 54.5219 55.6867C54.6063 55.6443 54.6909 55.5808 54.7543 55.4962C54.8177 55.4115 54.8601 55.3268 54.9023 55.1998C54.9445 55.094 54.9657 54.9882 54.9657 54.8612C54.9657 54.7342 54.9445 54.6284 54.9023 54.5226C54.8601 54.4167 54.7966 54.3109 54.7332 54.2474C54.6698 54.1627 54.5853 54.0992 54.5007 54.0568C54.4161 54.0145 54.3105 53.9934 54.2048 53.9934H52.9366L52.9156 55.7501Z" fill="black"/>
<path fill-rule="evenodd" clip-rule="evenodd" d="M61.3269 57.3999V58.056H58.0508V53.2725H61.2635V53.9286H58.7906V55.2833H60.9253V55.9182H58.7906V57.3787H61.3269V57.3999Z" fill="black"/>
<path fill-rule="evenodd" clip-rule="evenodd" d="M63.125 55.6438C63.125 55.3474 63.1672 55.0723 63.273 54.776C63.3786 54.5008 63.5266 54.2256 63.7168 54.014C63.907 53.7811 64.1607 53.6118 64.4565 53.4637C64.7525 53.3154 65.0695 53.252 65.4288 53.252C65.8727 53.252 66.2319 53.3578 66.549 53.5483C66.866 53.7388 67.0985 53.9928 67.2465 54.3103L66.6547 54.7125C66.5913 54.5643 66.5067 54.4373 66.4222 54.3526C66.3376 54.2468 66.232 54.1833 66.1051 54.1198C65.9995 54.0563 65.8727 54.014 65.7459 53.9928C65.6191 53.9716 65.5133 53.9505 65.3865 53.9505C65.1329 53.9505 64.9215 53.9928 64.7313 54.0986C64.5411 54.2045 64.3932 54.3315 64.2663 54.5008C64.1395 54.6701 64.0338 54.8606 63.9704 55.0511C63.907 55.2628 63.8648 55.4744 63.8648 55.6649C63.8648 55.8977 63.907 56.1306 63.9704 56.321C64.055 56.5327 64.1606 56.7232 64.2875 56.8714C64.4143 57.0407 64.5833 57.1677 64.7736 57.2523C64.9638 57.3371 65.1751 57.4005 65.3865 57.4005C65.5133 57.4005 65.6191 57.3794 65.7459 57.3582C65.8727 57.3371 65.9783 57.2736 66.1051 57.21C66.2108 57.1465 66.3165 57.0619 66.4222 56.9561C66.5279 56.8503 66.5913 56.7444 66.6547 56.5962L67.2888 56.9561C67.2042 57.1254 67.0985 57.2947 66.9717 57.4217C66.8238 57.5487 66.6758 57.6757 66.5067 57.7604C66.3377 57.845 66.1475 57.9297 65.9572 57.972C65.7669 58.0143 65.5767 58.0355 65.3865 58.0355C65.0483 58.0355 64.7525 57.972 64.4565 57.8239C64.1818 57.6757 63.9493 57.4852 63.738 57.2523C63.5266 57.0196 63.3786 56.7655 63.273 56.4693C63.1884 56.2575 63.125 55.9612 63.125 55.6438Z" fill="black"/>
<path fill-rule="evenodd" clip-rule="evenodd" d="M71.4077 58.099C71.0695 58.099 70.7525 58.0355 70.4778 57.8874C70.203 57.7604 69.9493 57.5699 69.7591 57.3371C69.5478 57.1042 69.3998 56.8502 69.2941 56.5539C69.1884 56.2576 69.125 55.9612 69.125 55.6649C69.125 55.3474 69.1884 55.0511 69.2941 54.7548C69.4209 54.4584 69.5689 54.2044 69.7802 53.9716C69.9916 53.7388 70.2241 53.5695 70.4988 53.4425C70.7736 53.3154 71.0906 53.252 71.4077 53.252C71.7459 53.252 72.0629 53.3154 72.3377 53.4637C72.6125 53.6118 72.8661 53.7811 73.0563 54.014C73.2465 54.2468 73.4156 54.5008 73.5213 54.7971C73.6269 55.0935 73.6904 55.3897 73.6904 55.6861C73.6904 56.0036 73.6269 56.2999 73.5213 56.5962C73.4156 56.8926 73.2465 57.1465 73.0351 57.3582C72.8238 57.5699 72.5913 57.7604 72.2954 57.8874C72.0418 58.0355 71.7247 58.099 71.4077 58.099ZM69.8859 55.6861C69.8859 55.9189 69.9282 56.1306 69.9916 56.3422C70.055 56.5539 70.1606 56.7444 70.2875 56.8926C70.4144 57.0619 70.5834 57.1889 70.7736 57.2736C70.9638 57.3794 71.1752 57.4217 71.4077 57.4217C71.6402 57.4217 71.8727 57.3794 72.0418 57.2736C72.2109 57.1677 72.3799 57.0407 72.5067 56.8714C72.6335 56.702 72.7393 56.5116 72.8027 56.321C72.8661 56.1094 72.9083 55.8977 72.9083 55.6861C72.9083 55.4532 72.8661 55.2416 72.8027 55.0299C72.7393 54.8183 72.6335 54.6277 72.5067 54.4796C72.3799 54.3315 72.2109 54.1833 72.0206 54.0986C71.8304 54.014 71.6191 53.9505 71.4077 53.9505C71.1752 53.9505 70.9427 53.9928 70.7525 54.0986C70.5622 54.2045 70.4143 54.3315 70.2664 54.5008C70.1184 54.6701 70.0338 54.8394 69.9704 55.0511C69.907 55.2628 69.8859 55.4744 69.8859 55.6861Z" fill="black"/>
<path fill-rule="evenodd" clip-rule="evenodd" d="M76.6499 54.713V58.0785H75.9102V53.2949H76.502L79.2285 56.745V53.2949H79.9894V58.0785H79.3553L76.6499 54.713Z" fill="black"/>
<path fill-rule="evenodd" clip-rule="evenodd" d="M85.3155 54.4155C85.2734 54.3731 85.2101 54.3096 85.1258 54.2673C85.0415 54.2038 84.9353 54.1614 84.8299 54.1191C84.7245 54.0768 84.5972 54.0345 84.4496 53.9921C84.3223 53.971 84.1747 53.9498 84.0264 53.9498C83.7093 53.9498 83.4774 54.0133 83.3291 54.1191C83.1815 54.2249 83.0964 54.3943 83.0964 54.6059C83.0964 54.733 83.1174 54.8176 83.1604 54.9023C83.2026 54.9658 83.2869 55.0504 83.3712 55.0927C83.4774 55.1563 83.5828 55.1986 83.7304 55.2409C83.8788 55.2833 84.0474 55.3256 84.238 55.3891C84.4707 55.4526 84.7026 55.5161 84.8931 55.5796C85.0837 55.6431 85.2523 55.7489 85.3796 55.8336C85.5061 55.9394 85.6115 56.0664 85.6966 56.2146C85.781 56.3627 85.802 56.5532 85.802 56.7649C85.802 56.9977 85.7599 57.2094 85.6545 57.3999C85.5482 57.5904 85.4428 57.7173 85.2734 57.8232C85.1047 57.929 84.9353 58.0137 84.7245 58.056C84.5128 58.0983 84.2801 58.1406 84.0474 58.1406C83.6883 58.1406 83.3291 58.0772 82.991 57.9713C82.6528 57.8655 82.3569 57.6962 82.082 57.4845L82.4201 56.8284C82.4834 56.8918 82.5685 56.9554 82.6739 57.0189C82.7793 57.0824 82.9066 57.167 83.0542 57.2094C83.2026 57.2728 83.3501 57.3152 83.5196 57.3576C83.6882 57.3999 83.8577 57.4211 84.0474 57.4211C84.3434 57.4211 84.5761 57.3787 84.7245 57.2728C84.8931 57.167 84.9564 57.0189 84.9564 56.8072C84.9564 56.6802 84.9353 56.5956 84.872 56.5109C84.8088 56.4262 84.7245 56.3627 84.6182 56.2992C84.5128 56.2357 84.3645 56.1934 84.2169 56.1299C84.0474 56.0876 83.8788 56.024 83.6672 55.9817C83.4345 55.9182 83.2237 55.8547 83.0542 55.7912C82.8855 55.7278 82.7372 55.6431 82.6107 55.5372C82.4834 55.4314 82.3991 55.3256 82.3358 55.1986C82.2726 55.0716 82.2515 54.9023 82.2515 54.7117C82.2515 54.4789 82.2937 54.2673 82.378 54.0979C82.4623 53.9075 82.5896 53.7593 82.7372 53.6323C82.8855 53.5053 83.0753 53.4207 83.2869 53.3572C83.4985 53.2936 83.7304 53.2725 83.9631 53.2725C84.2801 53.2725 84.5761 53.3148 84.851 53.4207C85.1258 53.5265 85.3585 53.6535 85.5693 53.8016L85.3155 54.4155Z" fill="black"/>
<path fill-rule="evenodd" clip-rule="evenodd" d="M91.5089 53.9514H89.9238V58.0788H89.1633V53.9726H87.5781V53.3164H91.5089V53.9514Z" fill="black"/>
<path fill-rule="evenodd" clip-rule="evenodd" d="M93.5781 58.0785V53.2949H95.6489C95.8606 53.2949 96.0722 53.3372 96.2408 53.4219C96.4314 53.5065 96.5789 53.6336 96.7062 53.7817C96.8327 53.9299 96.9389 54.0992 97.0022 54.2897C97.0654 54.4802 97.1076 54.6707 97.1076 54.8612C97.1076 55.0305 97.0865 55.1787 97.0443 55.3268C97.0022 55.475 96.9389 55.602 96.8538 55.729C96.7695 55.856 96.6852 55.9618 96.5579 56.0465C96.4314 56.1311 96.3049 56.2158 96.1776 56.2582L97.2981 58.0785H96.4524L95.417 56.4063H94.3176V58.0785H93.5781ZM94.3387 55.7501H95.6489C95.7552 55.7501 95.8606 55.729 95.9449 55.6867C96.03 55.6443 96.1143 55.5808 96.1776 55.4962C96.2408 55.4115 96.283 55.3268 96.326 55.1998C96.3681 55.094 96.3892 54.9882 96.3892 54.8612C96.3892 54.7342 96.3681 54.6284 96.326 54.5226C96.283 54.4167 96.2197 54.3109 96.1565 54.2474C96.0933 54.1627 96.0089 54.0992 95.9238 54.0568C95.8395 54.0145 95.7341 53.9934 95.6279 53.9934H94.3598L94.3387 55.7501Z" fill="black"/>
<path fill-rule="evenodd" clip-rule="evenodd" d="M101.445 57.4211C101.699 57.4211 101.91 57.3787 102.079 57.2728C102.248 57.167 102.375 57.0401 102.48 56.8919C102.586 56.7437 102.65 56.5532 102.692 56.3415C102.734 56.1299 102.755 55.9182 102.755 55.7066V53.2725H103.516V55.7066C103.516 56.0241 103.474 56.3415 103.41 56.6379C103.326 56.9342 103.22 57.1882 103.051 57.3999C102.882 57.6115 102.671 57.7809 102.417 57.9079C102.163 58.0348 101.846 58.0983 101.466 58.0983C101.086 58.0983 100.769 58.0348 100.494 57.9079C100.24 57.7809 100.029 57.5904 99.8599 57.3787C99.6905 57.167 99.5851 56.8918 99.5008 56.6167C99.4367 56.3204 99.3945 56.0241 99.3945 55.7278V53.2936H100.156V55.7278C100.156 55.9394 100.177 56.1511 100.219 56.3627C100.261 56.5744 100.325 56.7437 100.431 56.9131C100.536 57.0824 100.663 57.2094 100.832 57.294C101.001 57.3787 101.212 57.4211 101.445 57.4211Z" fill="black"/>
<path fill-rule="evenodd" clip-rule="evenodd" d="M113.322 53.2954H113.977L115.858 58.0789H115.055L114.548 56.7878H112.709L112.201 58.0789H111.398L113.322 53.2954ZM114.42 56.2163L113.66 54.1632L112.857 56.2163H114.42ZM114.061 52.6816C113.956 52.6816 113.871 52.6604 113.786 52.6393C113.702 52.6181 113.639 52.5758 113.575 52.5335C113.512 52.4911 113.448 52.4699 113.385 52.4276C113.322 52.3853 113.258 52.3853 113.174 52.3853C113.089 52.3853 113.047 52.4064 113.005 52.4276C112.962 52.4487 112.92 52.4911 112.899 52.5335C112.878 52.5758 112.857 52.6181 112.857 52.6393V52.7028H112.434C112.434 52.6604 112.455 52.597 112.476 52.5123C112.497 52.4276 112.539 52.3429 112.603 52.2583C112.667 52.1736 112.73 52.089 112.814 52.0254C112.899 51.9619 113.026 51.9196 113.152 51.9196C113.258 51.9196 113.343 51.9408 113.406 51.9619C113.469 51.9831 113.554 52.0254 113.618 52.0678C113.681 52.1101 113.744 52.1313 113.808 52.1736C113.871 52.1948 113.956 52.216 114.019 52.216C114.082 52.216 114.167 52.1948 114.21 52.1736C114.252 52.1525 114.294 52.1101 114.315 52.0678C114.336 52.0254 114.357 51.9831 114.357 51.9619V51.8984H114.78C114.78 51.9196 114.759 51.9831 114.738 52.0678C114.716 52.1525 114.674 52.2371 114.611 52.3218C114.548 52.4064 114.484 52.4911 114.378 52.5546C114.336 52.6393 114.21 52.6816 114.061 52.6816Z" fill="black"/>
<path fill-rule="evenodd" clip-rule="evenodd" d="M119.685 58.099C119.347 58.099 119.03 58.0355 118.755 57.8874C118.48 57.7391 118.226 57.5699 118.036 57.3371C117.825 57.1042 117.677 56.8502 117.571 56.5539C117.466 56.2576 117.402 55.9612 117.402 55.6649C117.402 55.3474 117.466 55.0511 117.571 54.7548C117.698 54.4584 117.846 54.2044 118.057 53.9716C118.268 53.7388 118.501 53.5695 118.776 53.4425C119.051 53.3154 119.368 53.252 119.685 53.252C120.023 53.252 120.34 53.3154 120.615 53.4637C120.89 53.6118 121.143 53.7811 121.333 54.014C121.524 54.2468 121.692 54.5008 121.799 54.7971C121.904 55.0935 121.967 55.3897 121.967 55.6861C121.967 56.0036 121.904 56.2999 121.799 56.5962C121.692 56.8926 121.524 57.1465 121.312 57.3582C121.101 57.5699 120.869 57.7604 120.573 57.8874C120.319 58.0355 120.023 58.099 119.685 58.099ZM118.184 55.6861C118.184 55.9189 118.226 56.1306 118.29 56.3422C118.353 56.5539 118.459 56.7444 118.585 56.8926C118.713 57.0619 118.881 57.1889 119.072 57.2736C119.262 57.3794 119.473 57.4217 119.706 57.4217C119.939 57.4217 120.171 57.3794 120.34 57.2736C120.53 57.1677 120.678 57.0407 120.805 56.8714C120.932 56.702 121.037 56.5116 121.101 56.321C121.165 56.1094 121.207 55.8977 121.207 55.6861C121.207 55.4532 121.165 55.2416 121.101 55.0299C121.037 54.8183 120.932 54.6277 120.805 54.4796C120.678 54.3103 120.509 54.1833 120.319 54.0986C120.128 53.9928 119.917 53.9505 119.706 53.9505C119.473 53.9505 119.241 53.9928 119.051 54.0986C118.86 54.2045 118.713 54.3315 118.564 54.5008C118.417 54.6701 118.332 54.8394 118.268 55.0511C118.205 55.2628 118.184 55.4744 118.184 55.6861Z" fill="black"/>
<path fill-rule="evenodd" clip-rule="evenodd" d="M107.841 58.1138C107.538 58.1035 107.26 58.0315 107.003 57.8975C106.725 57.7533 106.483 57.5679 106.283 57.3361C106.082 57.1044 105.928 56.8417 105.815 56.5481C105.701 56.2545 105.645 55.9558 105.645 55.6467C105.645 55.3583 105.696 55.075 105.799 54.7866C105.902 54.5033 106.056 54.2458 106.252 54.0192C106.452 53.7925 106.694 53.6071 106.982 53.468C107.27 53.3289 107.594 53.2568 107.959 53.2568C108.396 53.2568 108.767 53.3547 109.075 53.5452C109.384 53.7359 109.621 53.9882 109.775 54.2973L109.183 54.6938C109.116 54.5497 109.034 54.4311 108.941 54.3282C108.849 54.2303 108.746 54.153 108.633 54.0912C108.52 54.0346 108.407 53.9934 108.283 53.9676C108.16 53.9419 108.047 53.9316 107.933 53.9316C107.681 53.9316 107.46 53.9831 107.275 54.0809C107.085 54.1839 106.93 54.3179 106.802 54.4827C106.673 54.6475 106.575 54.8329 106.514 55.0441C106.447 55.2501 106.416 55.4562 106.416 55.6622C106.416 55.8939 106.452 56.1154 106.529 56.3266C106.606 56.5378 106.715 56.7232 106.849 56.888C106.987 57.0477 107.146 57.1765 107.337 57.2743C107.527 57.3722 107.733 57.4186 107.954 57.4186C108.072 57.4186 108.19 57.4031 108.314 57.3773C108.438 57.3464 108.556 57.3 108.669 57.2382C108.782 57.1713 108.89 57.0889 108.983 56.991C109.081 56.8932 109.158 56.7747 109.219 56.6356L109.847 56.991C109.77 57.1713 109.661 57.331 109.523 57.4649C109.384 57.6039 109.224 57.7173 109.055 57.8099C108.88 57.9027 108.695 57.9748 108.499 58.0263C108.392 58.0521 108.278 58.0726 108.17 58.0881C108.386 58.3817 108.73 58.701 108.525 59.1028C108.237 59.6694 107.347 59.3758 107.069 59.2521L107.255 58.8298C107.255 58.8298 107.758 59.2006 108.093 58.9534C108.427 58.7268 108.088 58.4486 107.841 58.1138Z" fill="black"/>
<path fill-rule="evenodd" clip-rule="evenodd" d="M0.515625 25.2061H11.841V45.5435H0.515625V25.2061Z" fill="#FDDB00"/>
<path fill-rule="evenodd" clip-rule="evenodd" d="M0.515625 13.1221H11.841V26.1117H0.515625V13.1221Z" fill="#01D101"/>
<path fill-rule="evenodd" clip-rule="evenodd" d="M25.1328 13.1201L37.7399 32.5526H25.1328V13.1201Z" fill="#FDDB00"/>
</g>
<defs>
<clipPath id="clip0_1293_11123">
<rect width="132.973" height="60" fill="white" transform="translate(0.515625)"/>
</clipPath>
</defs>
</svg>
