<svg width="119" height="60" viewBox="0 0 119 60" fill="none" xmlns="http://www.w3.org/2000/svg">
<g clip-path="url(#clip0_1293_11137)">
<path d="M25.7501 55.4137H26.881L28.4431 59.9641H27.3676L27.0165 58.9434H25.6036L25.2552 59.9641H24.1797L25.7501 55.4137ZM26.8451 58.2214L26.3114 56.4732L25.7695 58.2214H26.8451ZM31.4514 59.9641V55.4137H32.5021V59.0402H34.7057V59.9641H31.4514ZM37.7583 59.9641V55.4137H39.4559C39.8209 55.4137 40.1472 55.4719 40.4402 55.5907C40.7306 55.7097 40.9684 55.8729 41.1536 56.0776C41.3388 56.2879 41.4798 56.5286 41.5794 56.7969C41.6734 57.0707 41.7232 57.364 41.7232 57.682C41.7232 58.3708 41.5158 58.9213 41.1038 59.3389C40.6891 59.7539 40.1416 59.9641 39.4559 59.9641H37.7583ZM39.4559 56.3376H38.809V59.0402H39.4559C39.8319 59.0402 40.125 58.9158 40.3379 58.664C40.5509 58.4123 40.6559 58.0859 40.6559 57.682C40.6559 57.2754 40.548 56.9517 40.3352 56.7056C40.1223 56.4594 39.8292 56.3376 39.4559 56.3376ZM44.9028 59.9641V55.4137H45.9535V59.9641H44.9028ZM49.3821 59.9641V55.4137H51.4337C51.7101 55.4137 51.9646 55.4912 52.194 55.6406C52.4262 55.7927 52.606 55.9864 52.7303 56.2215C52.8576 56.4539 52.9212 56.6972 52.9212 56.9517C52.9212 57.2284 52.8521 57.4857 52.7194 57.7235C52.5838 57.9641 52.4041 58.144 52.1774 58.2712L53.1756 59.9641H52.0171L51.1433 58.4953H50.4328V59.9641H49.3821ZM50.4328 57.5797H51.395C51.5222 57.5797 51.63 57.5188 51.7185 57.3999C51.8069 57.2837 51.8512 57.1316 51.8512 56.9517C51.8512 56.7747 51.8014 56.6281 51.7018 56.5119C51.6023 56.3958 51.4889 56.3376 51.3645 56.3376H50.4328V57.5797ZM62.5044 59.9641H60.287V55.4137H62.8169C63.0215 55.4137 63.204 55.4719 63.3672 55.588C63.5302 55.7042 63.652 55.8509 63.7321 56.0251C63.815 56.1994 63.8537 56.3847 63.8537 56.5811C63.8537 56.8051 63.7957 57.0126 63.6823 57.2035C63.5662 57.3999 63.4059 57.541 63.2012 57.6322C63.4666 57.7125 63.674 57.848 63.8234 58.0471C63.9699 58.2463 64.0446 58.4925 64.0446 58.794C64.0446 59.0486 63.9726 59.2643 63.8316 59.4441C63.6906 59.6238 63.5053 59.7539 63.2759 59.8369C63.0491 59.9198 62.7892 59.9641 62.5044 59.9641ZM61.3376 56.3127V57.2533H62.369C62.4906 57.2533 62.5957 57.2117 62.6814 57.1316C62.7671 57.0486 62.8114 56.9296 62.8114 56.7775C62.8114 56.6336 62.7727 56.5175 62.6952 56.4372C62.6206 56.3543 62.5238 56.3127 62.405 56.3127H61.3376ZM62.5459 58.0804H61.3376V59.0706H62.5044C62.64 59.0706 62.7533 59.0264 62.8418 58.9351C62.9303 58.8438 62.9745 58.7276 62.9745 58.5866C62.9745 58.4455 62.9357 58.3238 62.8528 58.227C62.7727 58.1302 62.6676 58.0804 62.5459 58.0804ZM67.2242 59.9641V55.4137H68.2749V59.0402H70.4813V59.9641H67.2242ZM74.6813 55.4137H75.8121L77.3743 59.9641H76.2987L75.9448 58.9434H74.5347L74.1864 59.9641H73.1108L74.6813 55.4137ZM75.7762 58.2214L75.2425 56.4732L74.6978 58.2214H75.7762ZM81.4331 57.364V59.9641H80.3825V55.4137H81.2177L83.3219 58.0914V55.4137H84.3695V59.9641H83.515L81.4331 57.364ZM89.8165 55.3916C90.2341 55.3916 90.5989 55.4801 90.92 55.6599C91.238 55.8398 91.4757 56.0776 91.6332 56.3819L90.8255 56.9463C90.7757 56.83 90.7096 56.7304 90.6324 56.6447C90.5521 56.5589 90.4658 56.4953 90.3723 56.451C90.2758 56.4068 90.1813 56.3736 90.0878 56.3543C89.9903 56.3349 89.8937 56.3266 89.7942 56.3266C89.6367 56.3266 89.4955 56.3515 89.3634 56.4041C89.2303 56.4566 89.1195 56.5257 89.0281 56.6143C88.9346 56.7028 88.8594 56.8051 88.7964 56.9241C88.7324 57.0402 88.6857 57.1647 88.6552 57.2948C88.6217 57.422 88.6084 57.552 88.6084 57.6903C88.6084 57.931 88.6582 58.155 88.7548 58.3653C88.8513 58.5727 88.9925 58.7415 89.1774 58.8715C89.3603 59.0015 89.5706 59.0651 89.8054 59.0651C89.9435 59.0651 90.0736 59.0457 90.1986 59.007C90.3256 58.9656 90.4444 58.8964 90.5633 58.7995C90.6791 58.7055 90.7675 58.5838 90.8255 58.4399L91.68 58.9434C91.5966 59.1592 91.4483 59.3473 91.24 59.5132C91.0327 59.6765 90.8011 59.7981 90.5491 59.8784C90.2951 59.9614 90.038 60.0001 89.781 60.0001C89.4629 60.0001 89.1612 59.9336 88.8767 59.7981C88.5942 59.6626 88.3565 59.4828 88.1634 59.2643C87.9693 59.043 87.818 58.7913 87.7072 58.5091C87.5965 58.227 87.5406 57.9392 87.5406 57.6516C87.5406 57.4303 87.5711 57.209 87.6381 56.9932C87.7011 56.7775 87.7976 56.5728 87.9307 56.3792C88.0638 56.1855 88.2152 56.0168 88.3951 55.8702C88.5749 55.7235 88.7883 55.6074 89.0342 55.5189C89.277 55.4332 89.5402 55.3916 89.8165 55.3916Z" fill="black"/>
<path d="M111.896 29.0874C113.511 27.2092 114.492 24.7722 114.492 22.1001C114.492 16.2413 109.795 11.4863 103.964 11.3783V11.3922H102.857H98.8288V11.3701H90.543V30.7416L96.747 41.1949V41.206L101.81 49.723H103.964H104.287H107.763C113.689 49.723 118.49 44.921 118.49 38.993C118.49 34.5312 115.77 30.7084 111.896 29.0874Z" fill="#00CF00"/>
<path d="M60.0764 40.0553L54.3281 49.7258H77.1305H99.9306L77.1305 11.3701L71.374 21.0516C71.3767 21.0516 71.3822 21.0516 71.3849 21.0516H71.3711L60.0819 40.0442L60.0764 40.0553Z" fill="#FFCF00"/>
<path d="M88.7297 49.7268C88.7297 43.3148 83.5346 38.1172 77.1278 38.1172C70.7187 38.1172 65.5234 43.3148 65.5234 49.7268H88.7297Z" fill="#183EFF"/>
<path d="M11.6701 50.0442H0.460938V11.6885H11.6701V50.0442Z" fill="#183EFF"/>
<path d="M63.7629 30.7015V11.6094H52.457V49.7189L63.7629 30.7015Z" fill="#183EFF"/>
<path d="M118.488 39.0019C118.488 33.1404 113.793 28.3854 107.961 28.2803V28.2913H107.947V28.2803H101.793V49.7486H105.774V49.7596H107.947V49.7486C112.835 49.6656 116.917 46.3102 118.12 41.7764C118.128 41.7432 118.136 41.71 118.144 41.6741C118.208 41.4307 118.263 41.1818 118.31 40.93C118.329 40.8166 118.343 40.7032 118.36 40.5897C118.39 40.3934 118.421 40.1997 118.44 40.0006C118.465 39.7295 118.476 39.4528 118.482 39.1763C118.482 39.1265 118.488 39.0767 118.488 39.0241C118.488 39.0213 118.488 39.0186 118.488 39.013C118.488 39.0103 118.488 39.0048 118.488 39.0019Z" fill="#FF0000"/>
<path d="M107.947 28.2797V28.2908H107.961V28.2797C109.363 28.3046 110.701 28.6006 111.923 29.1151C112.965 27.9035 113.743 26.4596 114.165 24.8662C114.174 24.8331 114.183 24.7998 114.191 24.7666C114.254 24.5204 114.31 24.2715 114.356 24.0198C114.376 23.9063 114.39 23.7929 114.406 23.6795C114.437 23.4859 114.467 23.2895 114.486 23.0903C114.511 22.8193 114.522 22.5454 114.528 22.266C114.528 22.2162 114.533 22.1664 114.533 22.1139C114.533 22.1111 114.533 22.1083 114.533 22.1028C114.533 22.1001 114.533 22.0945 114.533 22.0918C114.533 16.2303 109.838 11.4752 104.007 11.3701V11.3811H102.901H101.793L101.814 28.2797H107.947Z" fill="#FFCF00"/>
<path d="M27.0586 11.6094V15.0118V29.4152V49.7245H38.3644V11.6094H27.0586Z" fill="#00CF00"/>
<path d="M6.89453 5.8754V1.32503H8.77463C9.02346 1.32503 9.25573 1.39697 9.46585 1.53799C9.67881 1.67912 9.84188 1.85886 9.95802 2.07741C10.0714 2.29322 10.1267 2.52 10.1267 2.75786C10.1267 3.00689 10.0742 3.23926 9.96635 3.45771C9.85855 3.67627 9.70086 3.85326 9.49907 3.9888C9.29444 4.12719 9.06776 4.19628 8.81608 4.19628H7.34241V5.8754H6.89453ZM7.34241 3.79799H8.79678C9.05668 3.79799 9.26954 3.69567 9.43272 3.49094C9.5958 3.28621 9.67881 3.04286 9.67881 2.75786C9.67881 2.47296 9.58757 2.22952 9.40509 2.02763C9.2226 1.82574 9.0069 1.72332 8.75532 1.72332H7.34241V3.79799ZM13.1322 3.60159C13.1322 3.30287 13.1903 3.01238 13.3008 2.73022C13.4115 2.44807 13.558 2.20462 13.7461 1.99166C13.9313 1.78144 14.158 1.61267 14.4262 1.48546C14.6944 1.35825 14.9764 1.29455 15.2723 1.29455C15.5183 1.29455 15.7534 1.33885 15.98 1.4246C16.2041 1.51036 16.4031 1.62934 16.5718 1.78144C16.7404 1.9308 16.8897 2.10231 17.0142 2.29871C17.1414 2.49511 17.2381 2.70533 17.3017 2.92937C17.3653 3.15351 17.3984 3.38029 17.3984 3.60707C17.3984 3.90589 17.3432 4.19628 17.2354 4.47569C17.1247 4.75511 16.9782 5.0013 16.7902 5.21152C16.6022 5.42174 16.3755 5.5905 16.11 5.71771C15.8419 5.84218 15.5625 5.90578 15.2668 5.90578C14.9571 5.90578 14.6695 5.83943 14.3986 5.70664C14.1276 5.57658 13.9036 5.40517 13.7183 5.18937C13.5358 4.97356 13.3921 4.73021 13.2897 4.45354C13.1847 4.17698 13.1322 3.89482 13.1322 3.60159ZM15.2668 5.5019C15.5156 5.5019 15.7479 5.44663 15.9635 5.33598C16.1763 5.22533 16.3561 5.08146 16.4971 4.90172C16.6409 4.72188 16.7515 4.51999 16.8317 4.29311C16.9091 4.06633 16.9506 3.8367 16.9506 3.60159C16.9506 3.27239 16.8787 2.96534 16.7377 2.67495C16.5967 2.38721 16.3948 2.15484 16.1349 1.9751C15.875 1.79526 15.5847 1.70676 15.2668 1.70676C15.0151 1.70676 14.7828 1.75929 14.57 1.86994C14.3543 1.98058 14.1746 2.12446 14.0336 2.30145C13.8926 2.47855 13.7819 2.68044 13.7018 2.90732C13.6188 3.1341 13.5801 3.36647 13.5801 3.60159C13.5801 3.84778 13.6216 4.08563 13.7045 4.31252C13.7875 4.54489 13.9036 4.74403 14.0474 4.92103C14.1939 5.09528 14.3737 5.23641 14.5865 5.34147C14.7966 5.44937 15.0234 5.5019 15.2668 5.5019ZM20.8021 5.8754V1.32503H21.2528V5.47701H23.8768V5.8754H20.8021ZM27.4657 0.705442L27.1781 0.594795L27.5542 0H28.0158L27.4657 0.705442ZM27.0951 5.8754V1.32503H27.5431V5.8754H27.0951ZM34.4637 1.72332H32.8462V5.8754H32.3983V1.72332H30.7781V1.32503H34.4637V1.72332ZM37.7042 5.8754V1.32503H38.1549V5.8754H37.7042ZM43.7069 1.30288C44.0995 1.30288 44.4424 1.39422 44.7354 1.57396C45.0257 1.7538 45.2442 1.9944 45.3852 2.29322L45.0313 2.51167C44.9401 2.32086 44.8156 2.16042 44.6608 2.03596C44.5088 1.91149 44.3483 1.82574 44.188 1.77595C44.0276 1.72891 43.859 1.70676 43.682 1.70676C43.4719 1.70676 43.2756 1.74273 43.0931 1.81192C42.9079 1.8866 42.7502 1.98333 42.6175 2.10505C42.4848 2.22952 42.3714 2.37064 42.2774 2.53108C42.1807 2.69426 42.1087 2.86576 42.0645 3.04561C42.0202 3.22534 41.9954 3.40793 41.9954 3.59326C41.9954 3.92794 42.07 4.24332 42.2194 4.53381C42.3659 4.82704 42.5733 5.06216 42.8359 5.2419C43.0986 5.41899 43.3861 5.50749 43.6986 5.50749C43.8783 5.50749 44.0553 5.47985 44.2267 5.42174C44.4008 5.36636 44.5668 5.27238 44.7271 5.14232C44.8875 5.00953 45.0119 4.85194 45.1031 4.66376L45.4737 4.85468C45.3797 5.07323 45.2304 5.26405 45.034 5.42722C44.835 5.5905 44.6193 5.71212 44.3843 5.79239C44.1493 5.87266 43.9115 5.91411 43.6737 5.91411C43.4332 5.91411 43.2036 5.86981 42.9797 5.78132C42.7558 5.69282 42.5595 5.57384 42.3881 5.41899C42.2165 5.26679 42.0673 5.09254 41.9401 4.89339C41.8129 4.69699 41.7161 4.48403 41.6498 4.2544C41.5806 4.02762 41.5502 3.79799 41.5502 3.56836C41.5502 3.29179 41.5973 3.01797 41.6967 2.75237C41.7936 2.48404 41.9317 2.24343 42.1115 2.02763C42.2885 1.81192 42.518 1.63482 42.7972 1.50202C43.0737 1.36933 43.3779 1.30288 43.7069 1.30288ZM50.1437 1.32503H50.5224L52.4109 5.8754H51.9354L51.3492 4.4508H49.3059L48.7225 5.8754H48.2414L50.1437 1.32503ZM51.2441 4.09945L50.3289 1.85337L49.3999 4.09945H51.2441ZM60.067 2.15209V5.8754H59.6164V1.32503H59.9868L62.9702 5.11743V1.33336H63.4209V5.8754H63.0061L60.067 2.15209ZM68.5277 1.32503H68.9065L70.7949 5.8754H70.3194L69.7333 4.4508H67.6927L67.1066 5.8754H66.6282L68.5277 1.32503ZM69.631 4.09945L68.713 1.85337L67.784 4.09945H69.631ZM75.6973 1.30288C76.0899 1.30288 76.4327 1.39422 76.7258 1.57396C77.0161 1.7538 77.2346 1.9944 77.3756 2.29322L77.0216 2.51167C76.9303 2.32086 76.806 2.16042 76.6511 2.03596C76.4963 1.91149 76.3387 1.82574 76.1783 1.77595C76.0179 1.72891 75.8465 1.70676 75.6724 1.70676C75.4622 1.70676 75.2659 1.74273 75.0806 1.81192C74.8982 1.8866 74.7406 1.98333 74.6079 2.10505C74.4751 2.22952 74.3618 2.37064 74.2678 2.53108C74.171 2.69426 74.0991 2.86576 74.0548 3.04561C74.0106 3.22534 73.9857 3.40793 73.9857 3.59326C73.9857 3.92794 74.0604 4.24332 74.2097 4.53381C74.3562 4.82704 74.5636 5.06216 74.8263 5.2419C75.089 5.41899 75.3765 5.50749 75.6889 5.50749C75.8687 5.50749 76.0456 5.47985 76.217 5.42174C76.3912 5.36636 76.5572 5.27238 76.7175 5.14232C76.8778 5.00953 77.0023 4.85194 77.0935 4.66376L77.464 4.85468C77.37 5.07323 77.2207 5.26405 77.0244 5.42722C76.8253 5.5905 76.6097 5.71212 76.3747 5.79239C76.1397 5.87266 75.9018 5.91411 75.664 5.91411C75.4234 5.91411 75.194 5.86981 74.9701 5.78132C74.746 5.69282 74.547 5.57384 74.3783 5.41899C74.2069 5.26679 74.0576 5.09254 73.9305 4.89339C73.8033 4.69699 73.7064 4.48403 73.6401 4.2544C73.571 4.02762 73.5406 3.79799 73.5406 3.56836C73.5406 3.29179 73.5875 3.01797 73.6871 2.75237C73.7838 2.48404 73.9221 2.24343 74.1019 2.02763C74.2788 1.81192 74.5083 1.63482 74.7848 1.50202C75.0641 1.36933 75.3682 1.30288 75.6973 1.30288ZM80.7905 5.8754V1.32503H81.2406V5.8754H80.7905ZM84.6332 3.60159C84.6332 3.30287 84.6911 3.01238 84.8019 2.73022C84.9126 2.44807 85.0589 2.20462 85.2469 1.99166C85.4328 1.78144 85.6594 1.61267 85.9277 1.48546C86.1959 1.35825 86.4773 1.29455 86.774 1.29455C87.0199 1.29455 87.2546 1.33885 87.4812 1.4246C87.7057 1.51036 87.9049 1.62934 88.0736 1.78144C88.2422 1.9308 88.3885 2.10231 88.5155 2.29871C88.6425 2.49511 88.737 2.70533 88.8031 2.92937C88.8671 3.15351 88.8996 3.38029 88.8996 3.60707C88.8996 3.90589 88.8447 4.19628 88.737 4.47569C88.6263 4.75511 88.48 5.0013 88.292 5.21152C88.103 5.42174 87.8764 5.5905 87.6113 5.71771C87.343 5.84218 87.0636 5.90578 86.7679 5.90578C86.458 5.90578 86.1705 5.83943 85.9002 5.70664C85.6289 5.57658 85.4054 5.40517 85.2195 5.18937C85.0376 4.97356 84.8933 4.73021 84.7907 4.45354C84.6861 4.17698 84.6332 3.89482 84.6332 3.60159ZM86.7679 5.5019C87.0169 5.5019 87.2495 5.44663 87.4649 5.33598C87.6773 5.22533 87.8551 5.08146 87.9984 4.90172C88.1426 4.72188 88.2524 4.51999 88.3306 4.29311C88.4109 4.06633 88.4515 3.8367 88.4515 3.60159C88.4515 3.27239 88.3804 2.96534 88.2392 2.67495C88.0979 2.38721 87.8957 2.15484 87.6367 1.9751C87.3765 1.79526 87.0829 1.70676 86.7679 1.70676C86.516 1.70676 86.2843 1.75929 86.0709 1.86994C85.8525 1.98058 85.6757 2.12446 85.5344 2.30145C85.3942 2.47855 85.2835 2.68044 85.2032 2.90732C85.1199 3.1341 85.0813 3.36647 85.0813 3.60159C85.0813 3.84778 85.123 4.08563 85.2063 4.31252C85.2886 4.54489 85.4054 4.74403 85.5487 4.92103C85.695 5.09528 85.8748 5.23641 86.0852 5.34147C86.2975 5.44937 86.5251 5.5019 86.7679 5.5019ZM92.7545 2.15209V5.8754H92.3034V1.32503H92.6742L95.6573 5.11743V1.33336H96.1085V5.8754H95.6929L92.7545 2.15209ZM101.215 1.32503H101.596L103.482 5.8754H103.006L102.42 4.4508H100.38L99.7937 5.8754H99.3151L101.215 1.32503ZM102.318 4.09945L101.4 1.85337L100.471 4.09945H102.318ZM106.695 5.8754V1.32503H107.146V5.47701H109.769V5.8754H106.695Z" fill="black"/>
<path d="M52.4853 30.9588L40.8698 11.6094H38.3676V16.5996L38.3398 16.6549V30.1814L49.9554 49.7189L49.9582 49.7272L49.9637 49.7189H52.4576V45.4757L52.4853 45.4314V30.9588Z" fill="#FF0000"/>
<path d="M25.6753 22.4229C25.6753 16.5641 20.9805 11.8091 15.1492 11.7012V11.7122H14.0432H11.6875V33.1805H12.9621H13.0119H15.1354V33.1722C20.0238 33.0865 24.1076 29.7339 25.3076 25.2001C25.3159 25.1641 25.3242 25.131 25.3325 25.0978C25.3961 24.8516 25.4541 24.6054 25.4983 24.3509C25.5177 24.2402 25.5316 24.1241 25.5509 24.0107C25.5786 23.817 25.609 23.6234 25.6283 23.4242C25.6532 23.1532 25.6643 22.8765 25.6699 22.5972C25.6699 22.5474 25.6753 22.4976 25.6753 22.4478C25.6753 22.4422 25.6753 22.4395 25.6753 22.4367C25.6753 22.4312 25.6753 22.4284 25.6753 22.4229Z" fill="#FFCF00"/>
</g>
<defs>
<clipPath id="clip0_1293_11137">
<rect width="118.028" height="60" fill="white" transform="translate(0.460938)"/>
</clipPath>
</defs>
</svg>
