<svg width="122" height="60" viewBox="0 0 122 60" fill="none" xmlns="http://www.w3.org/2000/svg">
<g clip-path="url(#clip0_1293_10903)">
<path d="M1.17681 50.4443L4.11494 50.1586C4.29177 51.1448 4.64883 51.8691 5.18613 52.3316C5.73022 52.7941 6.46136 53.0253 7.37952 53.0253C8.35209 53.0253 9.08322 52.8213 9.57291 52.4132C10.0694 51.9984 10.3176 51.5155 10.3176 50.9646C10.3176 50.6109 10.2122 50.3117 10.0014 50.0668C9.79735 49.8152 9.43689 49.5975 8.92 49.4139C8.56633 49.2915 7.76039 49.0738 6.50216 48.761C4.88347 48.3597 3.74767 47.8666 3.09475 47.2817C2.17659 46.4588 1.71751 45.4556 1.71751 44.2722C1.71751 43.5104 1.93175 42.7997 2.36022 42.14C2.7955 41.4735 3.41781 40.9668 4.22716 40.6199C5.0433 40.2731 6.02608 40.0996 7.17548 40.0996C9.05262 40.0996 10.4639 40.5111 11.4092 41.334C12.3614 42.157 12.8613 43.2554 12.9089 44.6292L9.88917 44.7619C9.75995 43.9933 9.4811 43.4424 9.05262 43.1092C8.63094 42.7691 7.99503 42.5991 7.14488 42.5991C6.26752 42.5991 5.5806 42.7793 5.08411 43.1398C4.76445 43.371 4.60462 43.6805 4.60462 44.0681C4.60462 44.4218 4.75425 44.7245 5.0535 44.9761C5.43437 45.2958 6.35934 45.629 7.8284 45.9759C9.29746 46.3227 10.3823 46.6832 11.0828 47.0573C11.7901 47.4245 12.341 47.9312 12.7355 48.5773C13.1367 49.2167 13.3374 50.009 13.3374 50.9544C13.3374 51.8113 13.0993 52.6139 12.6233 53.362C12.1472 54.1101 11.4739 54.6678 10.6033 55.0351C9.73274 55.3956 8.64795 55.5758 7.34891 55.5758C5.45818 55.5758 4.00612 55.1405 2.99273 54.27C1.97935 53.3926 1.37405 52.1174 1.17681 50.4443ZM15.2655 47.9244C15.2655 46.401 15.4934 45.1223 15.9491 44.0885C16.2891 43.3268 16.7516 42.6433 17.3365 42.038C17.9282 41.4327 18.5743 40.9838 19.2748 40.6913C20.2066 40.2969 21.2812 40.0996 22.4986 40.0996C24.7022 40.0996 26.4637 40.7831 27.7832 42.1502C29.1094 43.5172 29.7725 45.4182 29.7725 47.853C29.7725 50.2674 29.1162 52.1582 27.8036 53.5252C26.4909 54.8855 24.7362 55.5656 22.5394 55.5656C20.3154 55.5656 18.5471 54.8889 17.2345 53.5354C15.9218 52.1752 15.2655 50.3049 15.2655 47.9244ZM18.3771 47.8224C18.3771 49.5159 18.7682 50.8013 19.5503 51.6787C20.3324 52.5493 21.3254 52.9845 22.5292 52.9845C23.733 52.9845 24.7192 52.5527 25.4878 51.6889C26.2631 50.8183 26.6508 49.5159 26.6508 47.7816C26.6508 46.0677 26.2733 44.7891 25.5184 43.9457C24.7702 43.1024 23.7739 42.6807 22.5292 42.6807C21.2846 42.6807 20.2814 43.1092 19.5197 43.9661C18.758 44.8163 18.3771 46.1017 18.3771 47.8224ZM32.0985 55.3105V40.3547H36.618L39.3316 50.5565L42.0147 40.3547H46.5443V55.3105H43.7388V43.5376L40.7701 55.3105H37.8626L34.904 43.5376V55.3105H32.0985ZM48.9316 47.9244C48.9316 46.401 49.1594 45.1223 49.6151 44.0885C49.9551 43.3268 50.4176 42.6433 51.0025 42.038C51.5942 41.4327 52.2403 40.9838 52.9409 40.6913C53.8726 40.2969 54.9472 40.0996 56.1646 40.0996C58.3682 40.0996 60.1298 40.7831 61.4492 42.1502C62.7754 43.5172 63.4385 45.4182 63.4385 47.853C63.4385 50.2674 62.7822 52.1582 61.4696 53.5252C60.157 54.8855 58.4022 55.5656 56.2055 55.5656C53.9815 55.5656 52.2131 54.8889 50.9005 53.5354C49.5879 52.1752 48.9316 50.3049 48.9316 47.9244ZM52.0431 47.8224C52.0431 49.5159 52.4342 50.8013 53.2163 51.6787C53.9985 52.5493 54.9914 52.9845 56.1953 52.9845C57.3991 52.9845 58.3852 52.5527 59.1538 51.6889C59.9291 50.8183 60.3168 49.5159 60.3168 47.7816C60.3168 46.0677 59.9393 44.7891 59.1844 43.9457C58.4363 43.1024 57.4399 42.6807 56.1953 42.6807C54.9506 42.6807 53.9474 43.1092 53.1857 43.9661C52.424 44.8163 52.0431 46.1017 52.0431 47.8224ZM65.0402 50.4443L67.9784 50.1586C68.1552 51.1448 68.5123 51.8691 69.0496 52.3316C69.5937 52.7941 70.3248 53.0253 71.2429 53.0253C72.2155 53.0253 72.9467 52.8213 73.4363 52.4132C73.9328 51.9984 74.1811 51.5155 74.1811 50.9646C74.1811 50.6109 74.0757 50.3117 73.8648 50.0668C73.6608 49.8152 73.3003 49.5975 72.7834 49.4139C72.4298 49.2915 71.6238 49.0738 70.3656 48.761C68.7469 48.3597 67.6111 47.8666 66.9582 47.2817C66.04 46.4588 65.5809 45.4556 65.5809 44.2722C65.5809 43.5104 65.7952 42.7997 66.2236 42.14C66.6589 41.4735 67.2812 40.9668 68.0906 40.6199C68.9067 40.2731 69.8895 40.0996 71.0389 40.0996C72.916 40.0996 74.3273 40.5111 75.2727 41.334C76.2248 42.157 76.7247 43.2554 76.7723 44.6292L73.7526 44.7619C73.6234 43.9933 73.3445 43.4424 72.916 43.1092C72.4944 42.7691 71.8585 42.5991 71.0083 42.5991C70.1309 42.5991 69.444 42.7793 68.9475 43.1398C68.6279 43.371 68.468 43.6805 68.468 44.0681C68.468 44.4218 68.6177 44.7245 68.9169 44.9761C69.2978 45.2958 70.2228 45.629 71.6918 45.9759C73.1609 46.3227 74.2457 46.6832 74.9462 47.0573C75.6535 47.4245 76.2044 47.9312 76.5989 48.5773C77.0002 49.2167 77.2008 50.009 77.2008 50.9544C77.2008 51.8113 76.9628 52.6139 76.4867 53.362C76.0106 54.1101 75.3373 54.6678 74.4667 55.0351C73.5962 55.3956 72.5114 55.5758 71.2123 55.5758C69.3216 55.5758 67.8695 55.1405 66.8562 54.27C65.8428 53.3926 65.2375 52.1174 65.0402 50.4443ZM79.7309 40.3547H85.2501C86.4947 40.3547 87.4434 40.4499 88.0964 40.6403C88.9737 40.8988 89.7253 41.3579 90.351 42.0176C90.9767 42.6773 91.4528 43.4866 91.7792 44.4456C92.1057 45.3978 92.2689 46.5744 92.2689 47.9754C92.2689 49.2065 92.1159 50.2674 91.8098 51.1584C91.4358 52.2466 90.9019 53.1274 90.2081 53.8007C89.6844 54.3108 88.9771 54.7086 88.0862 54.9943C87.4196 55.2051 86.5287 55.3105 85.4133 55.3105H79.7309V40.3547ZM82.7506 42.8847V52.7907H85.0052C85.8486 52.7907 86.4573 52.7431 86.8313 52.6479C87.321 52.5254 87.7257 52.318 88.0454 52.0256C88.3718 51.7331 88.6371 51.2536 88.8411 50.5871C89.0451 49.9138 89.1471 48.999 89.1471 47.8428C89.1471 46.6866 89.0451 45.799 88.8411 45.1801C88.6371 44.5612 88.3514 44.0783 87.9841 43.7315C87.6169 43.3846 87.151 43.15 86.5865 43.0275C86.1648 42.9323 85.3385 42.8847 84.1074 42.8847H82.7506ZM94.8398 55.3105V40.3547H105.929V42.8847H97.8595V46.2003H105.368V48.7202H97.8595V52.7907H106.215V55.3105H94.8398ZM112.591 55.3105L107.245 40.3547H110.52L114.305 51.4237L117.967 40.3547H121.171L115.815 55.3105H112.591Z" fill="#0FC1EE"/>
<path d="M68.3555 30.0362L79.2807 8.04297L68.3555 30.0362Z" fill="#AAADB0"/>
<path d="M68.3555 30.0362L79.2807 8.04297" stroke="#2B74BB" stroke-width="1.23605" stroke-linecap="square"/>
<path d="M57.7891 18.4688L68.3573 30.0366L57.7891 18.4688Z" fill="#AAADB0"/>
<path d="M57.7891 18.4688L68.3573 30.0366" stroke="#2B74BB" stroke-width="1.03004" stroke-linecap="square"/>
<path d="M47.7188 26.6091L57.7871 18.4688L47.7188 26.6091Z" fill="#AAADB0"/>
<path d="M47.7188 26.6091L57.7871 18.4688" stroke="#2B74BB" stroke-width="0.824032" stroke-linecap="square"/>
<path d="M81.5238 2.56836H77.0418C75.2562 2.56836 73.8086 4.01592 73.8086 5.80157V10.2835C73.8086 12.0692 75.2562 13.5167 77.0418 13.5167H81.5238C83.3094 13.5167 84.757 12.0692 84.757 10.2835V5.80157C84.757 4.01592 83.3094 2.56836 81.5238 2.56836Z" fill="#2B74BB"/>
<path d="M70.189 25.5615H66.5256C65.066 25.5615 63.8828 26.7447 63.8828 28.2043V31.8677C63.8828 33.3273 65.066 34.5105 66.5256 34.5105H70.189C71.6486 34.5105 72.8318 33.3273 72.8318 31.8677V28.2043C72.8318 26.7447 71.6486 25.5615 70.189 25.5615Z" fill="#2B74BB"/>
<path d="M59.6187 13.9941H55.9553C54.4957 13.9941 53.3125 15.1773 53.3125 16.6369V20.3004C53.3125 21.7599 54.4957 22.9431 55.9553 22.9431H59.6187C61.0783 22.9431 62.2615 21.7599 62.2615 20.3004V16.6369C62.2615 15.1773 61.0783 13.9941 59.6187 13.9941Z" fill="#2B74BB"/>
<path d="M49.0563 23.3486H46.3867C45.3231 23.3486 44.4609 24.2108 44.4609 25.2744V27.944C44.4609 29.0076 45.3231 29.8698 46.3867 29.8698H49.0563C50.1199 29.8698 50.9821 29.0076 50.9821 27.944V25.2744C50.9821 24.2108 50.1199 23.3486 49.0563 23.3486Z" fill="#2B74BB"/>
<path d="M54.4802 7.39258H52.4721C51.672 7.39258 51.0234 8.04115 51.0234 8.84121V10.8493C51.0234 11.6494 51.672 12.298 52.4721 12.298H54.4802C55.2803 12.298 55.9288 11.6494 55.9288 10.8493V8.84121C55.9288 8.04115 55.2803 7.39258 54.4802 7.39258Z" fill="#2B74BB"/>
<path d="M69.0181 12.3408H66.3072C65.2271 12.3408 64.3516 13.2164 64.3516 14.2964V17.0073C64.3516 18.0874 65.2271 18.963 66.3072 18.963H69.0181C70.0981 18.963 70.9737 18.0874 70.9737 17.0073V14.2964C70.9737 13.2164 70.0981 12.3408 69.0181 12.3408Z" fill="#2B74BB"/>
<path d="M63.3638 2.12988H59.5421C58.0195 2.12988 56.7852 3.3642 56.7852 4.88682V8.70854C56.7852 10.2312 58.0195 11.4655 59.5421 11.4655H63.3638C64.8864 11.4655 66.1207 10.2312 66.1207 8.70854V4.88682C66.1207 3.3642 64.8864 2.12988 63.3638 2.12988Z" fill="#0FC1EE"/>
<path d="M49.1904 11.4844H46.5088C45.4403 11.4844 44.5742 12.3505 44.5742 13.4189V16.1006C44.5742 17.169 45.4403 18.0351 46.5088 18.0351H49.1904C50.2588 18.0351 51.125 17.169 51.125 16.1006V13.4189C51.125 12.3505 50.2588 11.4844 49.1904 11.4844Z" fill="#0FC1EE"/>
<path d="M52.4621 0.916016H50.6574C49.9383 0.916016 49.3555 1.4989 49.3555 2.21792V4.02264C49.3555 4.74166 49.9383 5.32455 50.6574 5.32455H52.4621C53.1811 5.32455 53.764 4.74166 53.764 4.02264V2.21792C53.764 1.4989 53.1811 0.916016 52.4621 0.916016Z" fill="#0FC1EE"/>
<path d="M58.1162 26.9082H55.4345C54.3661 26.9082 53.5 27.7743 53.5 28.8427V31.5244C53.5 32.5928 54.3661 33.4589 55.4345 33.4589H58.1162C59.1846 33.4589 60.0507 32.5928 60.0507 31.5244V28.8427C60.0507 27.7743 59.1846 26.9082 58.1162 26.9082Z" fill="#0FC1EE"/>
<path d="M81.5988 16.1963H79.7941C79.0751 16.1963 78.4922 16.7792 78.4922 17.4982V19.3029C78.4922 20.0219 79.0751 20.6048 79.7941 20.6048H81.5988C82.3178 20.6048 82.9007 20.0219 82.9007 19.3029V17.4982C82.9007 16.7792 82.3178 16.1963 81.5988 16.1963Z" fill="#0FC1EE"/>
<path d="M81.7969 24.1982H77.6373C75.9801 24.1982 74.6367 25.5417 74.6367 27.1989V31.3584C74.6367 33.0156 75.9801 34.359 77.6373 34.359H81.7969C83.4541 34.359 84.7975 33.0156 84.7975 31.3584V27.1989C84.7975 25.5417 83.4541 24.1982 81.7969 24.1982Z" fill="#AAADB0"/>
<path d="M70.9494 4.27637H68.7776C67.9124 4.27637 67.2109 4.9778 67.2109 5.84305V8.01483C67.2109 8.88008 67.9124 9.5815 68.7776 9.5815H70.9494C71.8146 9.5815 72.5161 8.88008 72.5161 8.01483V5.84305C72.5161 4.9778 71.8146 4.27637 70.9494 4.27637Z" fill="#AAADB0"/>
<path d="M45.9708 3.63379H44.4129C43.7922 3.63379 43.2891 4.13695 43.2891 4.75764V6.31554C43.2891 6.93622 43.7922 7.43939 44.4129 7.43939H45.9708C46.5915 7.43939 47.0947 6.93622 47.0947 6.31554V4.75764C47.0947 4.13695 46.5915 3.63379 45.9708 3.63379Z" fill="#AAADB0"/>
</g>
<defs>
<clipPath id="clip0_1293_10903">
<rect width="121.545" height="60" fill="white" transform="translate(0.425781)"/>
</clipPath>
</defs>
</svg>
