<svg width="105" height="62" viewBox="0 0 105 62" fill="none" xmlns="http://www.w3.org/2000/svg">
<path d="M3.36113 52.075H0.0610028V50.9594H8.15545V52.075H4.85531H4.79431V52.136V61.0548H3.42214V52.136V52.075H3.36113Z" fill="white" stroke="white" stroke-width="0.122006"/>
<path d="M10.0102 58.8852L10.0102 58.8849C9.85253 58.3982 9.77194 57.8755 9.77194 57.3105V50.9594H11.1473V57.149C11.1473 58.179 11.3837 58.9398 11.8735 59.4196L11.8736 59.4198C12.3598 59.8929 12.993 60.1276 13.7675 60.1276C14.1526 60.1276 14.5073 60.0699 14.8278 59.9567L14.8282 59.9565C15.1503 59.8397 15.4275 59.6582 15.6595 59.4185L15.6597 59.4182C15.8925 59.1745 16.072 58.8644 16.1997 58.4868L16.1998 58.4865C16.3245 58.1112 16.3877 57.6649 16.3877 57.149V50.9594H17.7599V57.3105C17.7599 57.8757 17.6824 58.3984 17.5248 58.8848C17.3677 59.367 17.1247 59.7836 16.7989 60.1356C16.4705 60.4871 16.0552 60.7663 15.5551 60.9696C15.0567 61.1722 14.4604 61.273 13.7675 61.273C13.0746 61.273 12.475 61.1722 11.9702 60.9695C11.4639 60.7662 11.0489 60.4871 10.727 60.136C10.4043 59.784 10.1643 59.3674 10.0102 58.8852Z" fill="white" stroke="white" stroke-width="0.122006"/>
<path d="M25.6007 56.7798L25.5144 56.8077L25.5728 56.8771C25.7382 57.0736 25.9444 57.33 26.1981 57.6498C26.4478 57.9686 26.707 58.3202 26.9725 58.7077L26.9727 58.708C27.2413 59.0955 27.5038 59.501 27.7666 59.9219C28.0066 60.3138 28.2168 60.6897 28.3923 61.0545H26.8896C26.6873 60.6901 26.47 60.32 26.2349 59.947C25.9932 59.5636 25.7483 59.195 25.5001 58.8442L25.5 58.844C25.2523 58.497 25.0104 58.1672 24.7651 57.861C24.5235 57.5557 24.3068 57.2919 24.1087 57.0638L24.0888 57.0409L24.0585 57.043C23.9279 57.0519 23.7915 57.0578 23.6554 57.0578H23.6546H23.6538H23.653H23.6522H23.6514H23.6506H23.6498H23.649H23.6482H23.6473H23.6465H23.6457H23.6449H23.6441H23.6433H23.6425H23.6417H23.6409H23.6401H23.6392H23.6384H23.6376H23.6368H23.636H23.6352H23.6344H23.6336H23.6328H23.6319H23.6311H23.6303H23.6295H23.6287H23.6279H23.6271H23.6263H23.6254H23.6246H23.6238H23.623H23.6222H23.6214H23.6206H23.6198H23.6189H23.6181H23.6173H23.6165H23.6157H23.6149H23.6141H23.6132H23.6124H23.6116H23.6108H23.61H23.6092H23.6084H23.6075H23.6067H23.6059H23.6051H23.6043H23.6035H23.6026H23.6018H23.601H23.6002H23.5994H23.5986H23.5977H23.5969H23.5961H23.5953H23.5945H23.5937H23.5928H23.592H23.5912H23.5904H23.5896H23.5888H23.5879H23.5871H23.5863H23.5855H23.5847H23.5838H23.583H23.5822H23.5814H23.5806H23.5798H23.5789H23.5781H23.5773H23.5765H23.5757H23.5748H23.574H23.5732H23.5724H23.5716H23.5707H23.5699H23.5691H23.5683H23.5675H23.5666H23.5658H23.565H23.5642H23.5634H23.5625H23.5617H23.5609H23.5601H23.5592H23.5584H23.5576H23.5568H23.556H23.5551H23.5543H23.5535H23.5527H23.5518H23.551H23.5502H23.5494H23.5486H23.5477H23.5469H23.5461H23.5453H23.5444H23.5436H23.5428H23.542H23.5411H23.5403H23.5395H23.5387H23.5379H23.537H23.5362H23.5354H23.5346H23.5337H23.5329H23.5321H23.5313H23.5304H23.5296H23.5288H23.528H23.5271H23.5263H23.5255H23.5247H23.5238H23.523H23.5222H23.5214H23.5205H23.5197H23.5189H23.5181H23.5172H23.5164H23.5156H23.5148H23.5139H23.5131H23.5123H23.5115H23.5106H23.5098H23.509H23.5081H23.5073H23.5065H23.5057H23.5048H23.504H23.5032H23.5024H23.5015H23.5007H23.4999H23.499H23.4982H23.4974H23.4966H23.4957H23.4949H23.4941H23.4933H23.4924H23.4916H23.4908H23.4899H23.4891H23.4883H23.4875H23.4866H23.4858H23.485H23.4841H23.4833H23.4825H23.4817H23.4808H23.48H23.4792H23.4783H23.4775H23.4767H23.4759H23.475H23.4742H23.4734H23.4725H23.4717H23.4709H23.4701H23.4692H23.4684H23.4676H23.4667H23.4659H23.4651H23.4643H23.4634H23.4626H23.4618H23.4609H23.4601H23.4593H23.4584H23.4576H23.4568H23.456H23.4551H23.4543H23.4535H23.4526H23.4518H23.451H23.4501H23.4493H23.4485H23.4477H23.4468H23.446H23.4452H23.4443H23.4435H23.4427H23.4418H23.441H23.4402H23.4393H23.4385H23.4377H23.4369H23.436H23.4352H23.4344H23.4335H23.4327H23.4319H23.431H23.4302H23.4294H23.4285H23.4277H23.4269H23.426H23.4252H23.4244H23.4236H23.4227H23.4219H23.4211H23.4202H23.4194H23.4186H23.4177H23.4169H23.4161H23.4152H23.4144H23.4136H23.4127H23.4119H23.4111H23.4103H23.4094H23.4086H23.4078H23.4069H23.4061H23.4053H23.4044H23.4036H23.4028H23.4019H23.4011H23.4003H23.3994H23.3986H23.3978H23.3969H23.3961H23.3953H23.3944H23.3936H23.3928H23.392H23.3911H23.3903H23.3895H23.3886H23.3878H23.387H23.3861H23.3853H23.3845H23.3836H23.3828H23.382H23.3811H23.3803H23.3795H23.3786H23.3778H23.377H23.3761H23.3753H23.3745H23.3736H23.3728H23.372H23.3712H23.3703H23.3695H23.3687H23.3678H23.367H23.3662H23.3653H23.3645H23.3637H23.3628H23.362H23.3612H23.3603H23.3595H23.3587H23.3578H23.357H23.3562H23.3553H23.3545H23.3537H23.3528H23.352H23.3512H23.3504H23.3495H23.3487H23.3479H23.347H23.3462H23.3454H23.3445H23.3437H23.3429H23.342H23.3412H23.3404H23.3395H23.3387H23.3379H23.337H23.3362H23.3354H23.3345H23.3337H23.3329H23.3321H23.3312H23.3304H23.3296H23.3287H23.3279H23.3271H23.3262H23.3254H23.3246H23.3237H23.3229H23.3221H23.3212H23.3204H23.3196H23.3188H23.3179H23.3171H23.3163H23.3154H23.3146H23.3138H23.3129H23.3121H23.3113H23.3104H23.3096H23.3088H23.3079H23.3071H23.3063H23.3055H23.3046H23.3038H23.303H23.3021H23.3013H23.3005H23.2996H23.2988H23.298H23.2972H23.2963H23.2955H23.2947H23.2938H23.293H23.2922H23.2913H23.2905H23.2897H23.2889H23.288H23.2872H23.2864H23.2855H23.2847H23.2839H23.283H23.2822H23.2814H23.2806H23.2797H23.2789H23.2781H23.2772H23.2764H23.2756H23.2748H23.2739H23.2731H23.2723H23.2714H23.2706H23.2698H23.2689H23.2681H23.2673H23.2665H23.2656H23.2648H23.264H23.2632H23.2623H23.2615H23.2607H23.2598H23.259H23.2582H23.2574H23.2565H23.2557H23.2549H23.254H23.2532H23.2524H23.2516H23.2507H23.2499H23.2491H23.2483H23.2474H23.2466H23.2458H23.2449H23.2441H23.2433H23.2425H23.2416H23.2408H23.24H23.2392H23.2383H23.2375H23.2367H23.2358H23.235H23.2342H23.2334H23.2325H21.8887H21.8277V57.1188V61.0545H20.4555V51.0931C20.8596 51.0014 21.3131 50.9395 21.8082 50.9051C22.3272 50.8723 22.8019 50.8545 23.2325 50.8545C24.727 50.8545 25.8562 51.1256 26.628 51.6538C27.3954 52.1819 27.7794 52.9689 27.7794 54.0219C27.7794 54.6885 27.5951 55.2547 27.2285 55.7241L27.2283 55.7243C26.8649 56.1935 26.322 56.5464 25.6007 56.7798ZM21.8834 52.03L21.8277 52.0349V52.0908V55.938V55.999H21.8887H22.9538C23.4693 55.999 23.9353 55.975 24.3485 55.9269L24.3489 55.9268C24.7637 55.8754 25.1184 55.7814 25.4082 55.6401C25.6997 55.4979 25.9281 55.296 26.0881 55.0342C26.2493 54.7705 26.3289 54.4266 26.3289 54.0069C26.3289 53.6162 26.2489 53.2848 26.0884 53.019C25.9294 52.7527 25.7149 52.545 25.4429 52.3905L25.4424 52.3902C25.1721 52.2398 24.8582 52.1362 24.4988 52.0755L24.4987 52.0755C24.138 52.0151 23.7587 51.985 23.3547 51.985C22.7151 51.985 22.2275 51.9999 21.8834 52.03Z" fill="white" stroke="white" stroke-width="0.122006"/>
<path d="M30.1528 50.9594H31.526V61.0548H30.1528V50.9594Z" fill="white" stroke="white" stroke-width="0.122006"/>
<path d="M38.329 57.1333L38.3293 57.1335C38.5703 57.299 38.7644 57.4962 38.9071 57.7252C38.9072 57.7253 38.9072 57.7254 38.9073 57.7254L38.8555 57.7577C38.9965 57.9789 39.0654 58.2479 39.0654 58.5618C39.0654 59.5842 38.2854 60.0953 36.7223 60.0953C36.0238 60.0953 35.4317 60.0176 34.9493 59.8592L38.329 57.1333ZM38.329 57.1333C38.0869 56.9691 37.8134 56.8265 37.5088 56.7084C37.204 56.5885 36.8806 56.4716 36.5422 56.352L36.5422 56.352M38.329 57.1333L36.5422 56.352M36.5422 56.352L36.5409 56.3516M36.5422 56.352L36.5409 56.3516M36.5409 56.3516C36.1513 56.2237 35.784 56.0811 35.4388 55.9208C35.0921 55.7584 34.7932 55.5699 34.5412 55.3529C34.2906 55.1371 34.0921 54.8807 33.9486 54.5835L33.9486 54.5835M36.5409 56.3516L33.9486 54.5835M33.9486 54.5835L33.9483 54.5828M33.9486 54.5835L33.9483 54.5828M33.9483 54.5828C33.8032 54.2914 33.7292 53.9306 33.7292 53.5069C33.7292 52.6267 34.0417 51.9488 34.6644 51.4594C35.2861 50.9713 36.1482 50.7221 37.2611 50.7221C37.9054 50.7221 38.4892 50.7875 39.0129 50.9176C39.5099 51.0439 39.8736 51.1768 40.1139 51.3196L39.6834 52.371C39.4635 52.2534 39.1562 52.1377 38.7659 52.0254C38.3332 51.9009 37.8324 51.8377 37.2611 51.8377C36.9688 51.8377 36.6978 51.868 36.4452 51.929C36.1915 51.9873 35.9723 52.0794 35.7786 52.1996L35.7786 52.1996M33.9483 54.5828L35.7786 52.1996M35.7786 52.1996L35.7776 52.2002M35.7786 52.1996L35.7776 52.2002M35.7776 52.2002C35.5851 52.3248 35.4344 52.481 35.3199 52.6714L35.3199 52.6714M35.7776 52.2002L35.3199 52.6714M35.3199 52.6714L35.3195 52.6721M35.3199 52.6714L35.3195 52.6721M35.3195 52.6721C35.2068 52.8651 35.1515 53.0883 35.1515 53.3425M35.3195 52.6721L35.1515 53.3425M35.1515 53.3425C35.1515 53.6255 35.2095 53.8704 35.3294 54.0676M35.1515 53.3425L35.3294 54.0676M35.3294 54.0676C35.4472 54.2643 35.6134 54.4348 35.823 54.5794C36.0333 54.7254 36.275 54.8588 36.5508 54.9768C36.8248 55.097 37.1266 55.214 37.456 55.3308C37.9184 55.5097 38.3399 55.6855 38.7236 55.8612C39.1043 56.0354 39.4344 56.2446 39.7114 56.4855C39.9868 56.7249 40.2007 57.0108 40.3505 57.3405L40.4061 57.3153C40.5596 57.6561 40.6379 58.0656 40.6379 58.5469C40.6379 59.4437 40.2964 60.1312 39.6136 60.6125C38.9276 61.0937 37.9659 61.3329 36.7223 61.3329C36.2994 61.3329 35.911 61.306 35.557 61.2522C35.2031 61.1984 34.8867 61.1356 34.611 61.0609C34.3322 60.9891 34.0942 60.9084 33.8937 60.8247C33.6932 60.741 33.5366 60.6723 33.4238 60.6125L35.3294 54.0676Z" fill="white" stroke="white" stroke-width="0.122006"/>
<path d="M49.6548 53.6717C49.3919 54.2272 49.1321 54.7947 48.8754 55.3742C48.6185 55.9542 48.3742 56.5013 48.1455 57.0125L48.0894 57.1379L48.034 57.0122L48.0097 56.9571C47.7911 56.4618 47.558 55.9334 47.3074 55.3744L47.3073 55.3742C47.0505 54.7945 46.794 54.2272 46.5281 53.6719L46.528 53.6718C46.265 53.119 46.0146 52.6024 45.7738 52.1278C45.5374 51.665 45.3306 51.2757 45.1506 50.9594L42.9395 50.9594C42.8421 51.6238 42.7478 52.3648 42.6624 53.1825C42.5779 54.022 42.4996 54.8942 42.4339 55.8053L42.4339 55.8055C42.365 56.7138 42.3055 57.6252 42.2491 58.5368L49.6548 53.6717ZM49.6548 53.6717C49.9178 53.1189 50.1681 52.6023 50.409 52.1278M49.6548 53.6717L50.3546 52.1001M53.8271 58.5368C53.882 59.4273 53.9309 60.2666 53.971 61.0548H51.7512C51.7202 60.0755 51.68 59.0156 51.6278 57.8667C51.5776 56.697 51.4992 55.5183 51.3958 54.3278L51.3755 54.0937L51.2794 54.3082C51.2484 54.3773 51.2169 54.4476 51.1849 54.5192C51.0256 54.8751 50.8527 55.2614 50.6625 55.6768L50.6623 55.6772L50.6599 55.6826C50.4352 56.183 50.2104 56.6835 49.9887 57.1841L50.0444 57.2088L49.9887 57.184C49.909 57.3629 49.8305 57.5395 49.7532 57.7134C49.6149 58.0246 49.4805 58.327 49.3499 58.6185C49.1477 59.0592 48.9774 59.4388 48.8363 59.7575H47.2368C47.0957 59.4388 46.9255 59.0591 46.7264 58.6185L46.7263 58.6184C46.5197 58.1644 46.3069 57.6834 46.0876 57.1843L46.0874 57.1838C45.9747 56.9328 45.8627 56.6818 45.7507 56.4307L45.7507 56.4305C45.6387 56.1795 45.5267 55.9283 45.4139 55.6772L45.4139 55.6771C45.3194 55.4679 45.2277 55.2663 45.1395 55.0723C45.017 54.8028 44.9012 54.548 44.7937 54.3082L44.6976 54.0937L44.6773 54.3278C44.5738 55.5185 44.4986 56.6971 44.4453 57.8667L44.4453 57.8668C44.3962 59.0157 44.3561 60.0755 44.325 61.0548H42.1052H54.0321C53.992 60.2654 53.943 59.4248 53.888 58.5331C53.8316 57.6213 53.769 56.7096 53.7032 55.8009C53.6374 54.8891 53.5591 54.0163 53.4714 53.1763C53.3837 52.3363 53.2897 51.577 53.1863 50.8984M53.8271 58.5368L53.8869 58.5331L53.8271 58.5368C53.8271 58.5368 53.8271 58.5368 53.8271 58.5368ZM53.8271 58.5368C53.7707 57.6254 53.7081 56.7139 53.6423 55.8053C53.5766 54.8942 53.4983 54.022 53.4107 53.1826C53.3253 52.3646 53.234 51.6236 53.1339 50.9594M53.1339 50.9594H53.1863V50.8984M53.1339 50.9594C53.1312 50.9421 53.1286 50.9248 53.126 50.9076L53.1863 50.8984M53.1339 50.9594H51.0321M53.1863 50.8984H50.9967M50.9967 50.8984L51.0497 50.9287C51.0439 50.9389 51.038 50.9491 51.0321 50.9594M50.9967 50.8984C50.8119 51.2213 50.5989 51.6218 50.3546 52.1001M50.9967 50.8984V50.9594H51.0321M51.0321 50.9594C50.8521 51.2757 50.6454 51.665 50.409 52.1278M50.3546 52.1001L50.409 52.1277C50.409 52.1277 50.409 52.1278 50.409 52.1278M50.3546 52.1001L50.4089 52.1279C50.4089 52.1278 50.4089 52.1278 50.409 52.1278" fill="white" stroke="white" stroke-width="0.122006"/>
<path d="M58.5835 59.2427H63.6848V61.0548H56.2387V50.9594H63.3308V52.7685H58.5835H58.5225V52.8295V54.8323V54.8933H58.5835H62.792V56.6606H58.5835H58.5225V56.7216V59.1817V59.2427H58.5835Z" fill="white" stroke="white" stroke-width="0.122006"/>
<path d="M72.3811 56.9278V50.9594H74.6492V61.0548H72.7246C72.0395 59.8919 71.299 58.7466 70.5031 57.6162C69.6998 56.4724 68.8463 55.3944 67.9394 54.3792L67.8329 54.26V54.4198V61.0548H65.5805V50.9594H67.453C67.7877 51.2775 68.1534 51.6679 68.559 52.1313C68.9688 52.6029 69.388 53.1044 69.8133 53.6416L69.8134 53.6417C70.2388 54.1761 70.6612 54.7314 71.0837 55.3049C71.5033 55.8786 71.9008 56.4311 72.27 56.9626L72.3811 57.1226V56.9278Z" fill="white" stroke="white" stroke-width="0.122006"/>
<path d="M79.5166 59.2405V59.2968L79.5728 59.3013C79.6861 59.3103 79.8185 59.3193 79.9667 59.3254L79.9679 59.3254C80.1185 59.3284 80.2943 59.3314 80.5017 59.3314C81.7132 59.3314 82.6246 59.0394 83.2199 58.4436C83.8135 57.8496 84.1086 57.0315 84.1086 55.9971C84.1086 54.9168 83.8271 54.0857 83.2574 53.5205C82.6866 52.9544 81.7905 52.6778 80.58 52.6778C80.4134 52.6778 80.2437 52.6808 80.0678 52.6868C79.8905 52.6898 79.7254 52.7019 79.5694 52.7232L79.5166 52.7304V52.7836V59.2405ZM82.9221 60.8618L82.9219 60.8618C82.1672 61.0782 81.321 61.1853 80.3795 61.1853C79.9488 61.1853 79.4458 61.1674 78.8702 61.1346C78.3166 61.0999 77.7689 61.0317 77.2329 60.9299V51.0801C77.7694 50.9869 78.3296 50.9242 78.9107 50.8895C79.5115 50.8567 80.024 50.8388 80.4547 50.8388C81.3651 50.8388 82.1898 50.937 82.9294 51.1327C83.6679 51.3282 84.2991 51.6327 84.8273 52.0483C85.3517 52.4663 85.7592 52.9992 86.0435 53.6481C86.3244 54.2962 86.4675 55.0796 86.4675 55.9971C86.4675 56.8754 86.3245 57.638 86.0435 58.2864C85.759 58.9385 85.3545 59.4747 84.8328 59.9018C84.3109 60.3291 83.6734 60.6485 82.9221 60.8618Z" fill="white" stroke="white" stroke-width="0.122006"/>
<path d="M90.9409 59.2427H96.0453V61.0548H88.5962V50.9594H95.6882V52.7685H90.9409H90.8799V52.8295V54.8323V54.8933H90.9409H95.1494V56.6606H90.9409H90.8799V56.7216V59.1817V59.2427H90.9409Z" fill="white" stroke="white" stroke-width="0.122006"/>
<path d="M103.768 53.0974L104.417 51.396C104.091 51.2317 103.679 51.0799 103.183 50.9411L103.183 50.941C102.664 50.7935 102.05 50.7221 101.333 50.7221C100.733 50.7221 100.194 50.7933 99.7149 50.9319C99.2386 51.0736 98.8355 51.2737 98.5044 51.5341L98.5041 51.5343C98.1699 51.7947 97.9159 52.1073 97.7352 52.4784C97.5549 52.849 97.4626 53.2642 97.4626 53.7281C97.4626 54.19 97.5489 54.5802 97.7186 54.8981L97.7187 54.8983C97.8904 55.2231 98.1109 55.4949 98.3805 55.723C98.6546 55.9493 98.9628 56.1376 99.3085 56.2878L99.3087 56.2879C99.6545 56.4395 100.003 56.5733 100.35 56.6924L103.768 53.0974ZM103.768 53.0974C103.481 52.9611 103.168 52.8382 102.823 52.7312L102.823 52.7311C102.452 52.6183 102.004 52.5611 101.486 52.5611C100.911 52.5611 100.483 52.6356 100.214 52.797L100.214 52.7972C99.9439 52.9616 99.809 53.2154 99.809 53.5488C99.809 53.7468 99.8552 53.9156 99.9583 54.0567C100.055 54.1934 100.193 54.3152 100.368 54.42C100.544 54.5269 100.741 54.6211 100.963 54.7058L100.964 54.7059C101.187 54.7898 101.432 54.8768 101.698 54.9637C102.251 55.1604 102.735 55.3539 103.143 55.5441C103.548 55.7332 103.884 55.954 104.151 56.203C104.417 56.454 104.615 56.7453 104.744 57.08L104.744 57.0805C104.875 57.4151 104.94 57.8255 104.94 58.3107C104.94 59.2473 104.6 59.9697 103.918 60.483C103.235 60.9976 102.195 61.2599 100.794 61.2599C100.324 61.2599 99.9005 61.2302 99.5215 61.1768C99.1443 61.1233 98.8115 61.0579 98.5198 60.981C98.2274 60.9038 97.9798 60.821 97.7733 60.7327C97.5868 60.653 97.4259 60.5784 97.2926 60.5089L97.9298 58.7967C98.2397 58.9514 98.6176 59.0943 99.0578 59.2184C99.5314 59.3519 100.111 59.421 100.794 59.421C101.135 59.421 101.422 59.394 101.648 59.3354L103.768 53.0974Z" fill="white" stroke="white" stroke-width="0.122006"/>
<path d="M70.8848 24.3444C70.8848 34.9238 62.3086 43.5001 51.7292 43.5001C41.1498 43.5001 32.5736 34.9238 32.5736 24.3444C32.5736 13.7651 41.1498 5.1888 51.7292 5.1888C62.3086 5.1888 70.8848 13.7651 70.8848 24.3444Z" fill="white" stroke="#111D26" stroke-width="0.291667"/>
<g filter="url(#filter0_d_872_2984)">
<path d="M63.5921 21.3755C63.5921 28.3219 52.3244 49.4405 51.9777 50.0976C51.631 49.4405 40.3633 28.3219 40.3633 21.3755C40.3633 14.4291 45.5632 8.79785 51.9777 8.79785C58.3921 8.79785 63.5921 14.4291 63.5921 21.3755Z" fill="#004854"/>
</g>
<path d="M61.1641 20.2764C61.1641 25.8902 53.6234 42.4276 51.9766 45.592C50.4164 42.4276 42.7891 25.8902 42.7891 20.2764C42.7891 14.6627 46.9024 10.1118 51.9766 10.1118C57.0507 10.1118 61.1641 14.6627 61.1641 20.2764Z" fill="#111D26"/>
<ellipse cx="51.9752" cy="35.8306" rx="1.90684" ry="2.06499" fill="white"/>
<ellipse cx="51.9755" cy="20.061" rx="7.45401" ry="8.07222" fill="white"/>
<path d="M57.3269 20.0996C57.3269 22.4113 56.7026 24.4909 55.7086 25.984C54.7132 27.4792 53.3703 28.3583 51.9265 28.3583C50.4827 28.3583 49.1397 27.4792 48.1443 25.984C47.1503 24.4909 46.526 22.4113 46.526 20.0996C46.526 17.788 47.1503 15.7084 48.1443 14.2153C49.1397 12.7201 50.4827 11.841 51.9265 11.841C53.3703 11.841 54.7132 12.7201 55.7086 14.2153C56.7026 15.7084 57.3269 17.788 57.3269 20.0996Z" fill="white" stroke="#111D26" stroke-width="0.583333"/>
<g filter="url(#filter1_d_872_2984)">
<path d="M57.7324 13.7493C57.062 14.6145 56.2269 15.3094 55.2865 15.7872C54.3462 16.2649 53.3223 16.5145 52.2858 16.5197C51.2493 16.5249 50.2233 16.2855 49.2791 15.8173C48.3347 15.3489 47.4938 14.6625 46.8161 13.804" stroke="#111D26" stroke-width="0.583333"/>
</g>
<g filter="url(#filter2_d_872_2984)">
<path d="M46.3766 26.0559C47.0068 25.0734 47.8363 24.2637 48.7991 23.6879C49.7618 23.1121 50.8325 22.7853 51.9283 22.7313C53.024 22.6773 54.1172 22.8974 55.1234 23.3757C56.1297 23.854 57.0229 24.5782 57.7324 25.4938" stroke="#111D26" stroke-width="0.583333"/>
</g>
<line x1="51.694" y1="11.8604" x2="51.694" y2="28.1925" stroke="#111D26" stroke-width="0.583333"/>
<line x1="44.5117" y1="20.2743" x2="59.5931" y2="20.2743" stroke="#111D26" stroke-width="0.583333"/>
<defs>
<filter id="filter0_d_872_2984" x="40.3633" y="8.79785" width="27.8952" height="45.9665" filterUnits="userSpaceOnUse" color-interpolation-filters="sRGB">
<feFlood flood-opacity="0" result="BackgroundImageFix"/>
<feColorMatrix in="SourceAlpha" type="matrix" values="0 0 0 0 0 0 0 0 0 0 0 0 0 0 0 0 0 0 127 0" result="hardAlpha"/>
<feOffset dx="2.33333" dy="2.33333"/>
<feGaussianBlur stdDeviation="1.16667"/>
<feComposite in2="hardAlpha" operator="out"/>
<feColorMatrix type="matrix" values="0 0 0 0 0 0 0 0 0 0 0 0 0 0 0 0 0 0 0.5 0"/>
<feBlend mode="normal" in2="BackgroundImageFix" result="effect1_dropShadow_872_2984"/>
<feBlend mode="normal" in="SourceGraphic" in2="effect1_dropShadow_872_2984" result="shape"/>
</filter>
<filter id="filter1_d_872_2984" x="46.5879" y="13.5708" width="16.0417" height="7.90739" filterUnits="userSpaceOnUse" color-interpolation-filters="sRGB">
<feFlood flood-opacity="0" result="BackgroundImageFix"/>
<feColorMatrix in="SourceAlpha" type="matrix" values="0 0 0 0 0 0 0 0 0 0 0 0 0 0 0 0 0 0 127 0" result="hardAlpha"/>
<feOffset dx="2.33333" dy="2.33333"/>
<feGaussianBlur stdDeviation="1.16667"/>
<feComposite in2="hardAlpha" operator="out"/>
<feColorMatrix type="matrix" values="0 0 0 0 0 0 0 0 0 0 0 0 0 0 0 0 0 0 0.5 0"/>
<feBlend mode="normal" in2="BackgroundImageFix" result="effect1_dropShadow_872_2984"/>
<feBlend mode="normal" in="SourceGraphic" in2="effect1_dropShadow_872_2984" result="shape"/>
</filter>
<filter id="filter2_d_872_2984" x="43.2142" y="21.8483" width="16.4987" height="8.44841" filterUnits="userSpaceOnUse" color-interpolation-filters="sRGB">
<feFlood flood-opacity="0" result="BackgroundImageFix"/>
<feColorMatrix in="SourceAlpha" type="matrix" values="0 0 0 0 0 0 0 0 0 0 0 0 0 0 0 0 0 0 127 0" result="hardAlpha"/>
<feOffset dx="-0.583333" dy="1.75"/>
<feGaussianBlur stdDeviation="1.16667"/>
<feComposite in2="hardAlpha" operator="out"/>
<feColorMatrix type="matrix" values="0 0 0 0 0 0 0 0 0 0 0 0 0 0 0 0 0 0 0.5 0"/>
<feBlend mode="normal" in2="BackgroundImageFix" result="effect1_dropShadow_872_2984"/>
<feBlend mode="normal" in="SourceGraphic" in2="effect1_dropShadow_872_2984" result="shape"/>
</filter>
</defs>
</svg>
