<svg width="226" height="130" viewBox="0 0 226 130" fill="none" xmlns="http://www.w3.org/2000/svg">
<g clip-path="url(#clip0_1299_11507)">
<path d="M17.6849 107.638V110.29H10.4505V129.532H7.23444V110.29H0V107.638H17.6849Z" fill="#888888"/>
<path d="M29.6336 130C28.13 130 26.822 129.782 25.7163 129.34C24.6106 128.898 23.7004 128.289 22.9924 127.521C22.2845 126.752 21.7586 125.842 21.4215 124.792C21.0776 123.735 20.9023 122.601 20.9023 121.378V107.638H24.1251V121.032C24.1251 123.223 24.6308 124.811 25.6489 125.804C26.667 126.79 27.9952 127.284 29.6336 127.284C30.4494 127.284 31.1978 127.162 31.872 126.925C32.5462 126.682 33.126 126.304 33.6115 125.804C34.0969 125.298 34.4745 124.651 34.7442 123.857C35.0071 123.069 35.142 122.127 35.142 121.032V107.638H38.358V121.378C38.358 122.601 38.1895 123.735 37.8456 124.792C37.5018 125.842 36.9691 126.752 36.2544 127.521C35.533 128.289 34.6228 128.898 33.5306 129.34C32.4383 129.782 31.1371 130 29.6336 130Z" fill="#888888"/>
<path d="M55.1426 120.365C55.4999 120.788 55.9449 121.339 56.491 122.024C57.0304 122.71 57.59 123.466 58.1631 124.298C58.7429 125.131 59.3093 126.002 59.8756 126.905C60.4352 127.815 60.9207 128.686 61.3185 129.532H57.799C57.354 128.731 56.8753 127.917 56.3562 127.098C55.837 126.278 55.3111 125.49 54.7785 124.74C54.2458 123.997 53.7267 123.293 53.2008 122.639C52.6816 121.986 52.2164 121.422 51.7917 120.935C51.5085 120.955 51.2118 120.967 50.9152 120.967C50.6185 120.967 50.3084 120.967 50.005 120.967H47.1125V129.532H43.8965V107.951C44.7999 107.74 45.818 107.599 46.9305 107.522C48.0497 107.452 49.0745 107.413 50.005 107.413C53.2345 107.413 55.6954 107.996 57.3877 109.149C59.08 110.308 59.9228 112.038 59.9228 114.331C59.9228 115.785 59.5183 117.028 58.7092 118.059C57.9069 119.091 56.7135 119.859 55.1426 120.365ZM50.2679 110.097C48.8925 110.097 47.8474 110.129 47.1125 110.193V118.437H49.4049C50.5106 118.437 51.5085 118.386 52.3917 118.283C53.275 118.175 54.0234 117.976 54.6302 117.681C55.237 117.387 55.7089 116.97 56.0393 116.432C56.3697 115.894 56.5382 115.183 56.5382 114.299C56.5382 113.479 56.3697 112.794 56.0393 112.249C55.7089 111.698 55.2639 111.269 54.6976 110.949C54.1312 110.635 53.4705 110.417 52.7086 110.289C51.94 110.161 51.1309 110.097 50.2679 110.097Z" fill="#888888"/>
<path d="M64.7695 107.638H67.9878V129.532H64.7695V107.638Z" fill="#888888"/>
<path d="M79.039 127.347C82.4034 127.347 84.0822 126.252 84.0822 124.061C84.0822 123.388 83.9339 122.812 83.6305 122.338C83.3338 121.864 82.9293 121.454 82.4236 121.108C81.9112 120.762 81.3314 120.461 80.6842 120.211C80.0302 119.955 79.3357 119.705 78.6075 119.449C77.7648 119.173 76.9692 118.866 76.2208 118.52C75.4656 118.168 74.8116 117.758 74.2588 117.284C73.7059 116.81 73.2677 116.246 72.9508 115.593C72.6272 114.946 72.4653 114.151 72.4653 113.229C72.4653 111.307 73.1531 109.815 74.5285 108.739C75.8972 107.669 77.785 107.131 80.1987 107.131C81.5944 107.131 82.8619 107.272 84.0013 107.554C85.1408 107.842 85.9701 108.149 86.5027 108.489L85.4779 110.981C85.0127 110.712 84.3182 110.443 83.4013 110.18C82.4843 109.917 81.4191 109.783 80.1987 109.783C79.5784 109.783 79.0053 109.847 78.4727 109.975C77.94 110.097 77.4816 110.289 77.077 110.539C76.6793 110.795 76.3691 111.115 76.1331 111.506C75.9039 111.897 75.7893 112.351 75.7893 112.877C75.7893 113.466 75.9106 113.966 76.1534 114.363C76.3961 114.766 76.7399 115.119 77.1782 115.42C77.6232 115.727 78.1356 116.009 78.7222 116.259C79.3087 116.515 79.956 116.765 80.6639 117.015C81.6618 117.399 82.572 117.777 83.4013 118.155C84.2306 118.533 84.952 118.988 85.5588 119.513C86.1656 120.038 86.6376 120.666 86.9679 121.39C87.2983 122.12 87.4668 122.998 87.4668 124.029C87.4668 125.951 86.7319 127.424 85.2621 128.455C83.7856 129.486 81.7157 129.999 79.039 129.999C78.1288 129.999 77.2928 129.941 76.5309 129.826C75.769 129.711 75.0881 129.576 74.4948 129.416C73.8947 129.262 73.3823 129.089 72.9508 128.91C72.5193 128.731 72.1822 128.583 71.9395 128.455L72.8969 125.925C73.4093 126.2 74.1846 126.508 75.2229 126.841C76.2612 127.18 77.5355 127.347 79.039 127.347Z" fill="#888888"/>
<path d="M97.2575 107.638C97.6553 108.33 98.1138 109.188 98.6397 110.213C99.1588 111.231 99.6982 112.339 100.265 113.524C100.838 114.716 101.39 115.933 101.943 117.176C102.503 118.418 103.022 119.591 103.508 120.686C104 119.591 104.526 118.418 105.079 117.176C105.631 115.933 106.191 114.716 106.757 113.524C107.324 112.339 107.863 111.231 108.382 110.213C108.908 109.188 109.367 108.33 109.764 107.638H114.477C114.7 109.092 114.902 110.719 115.091 112.519C115.28 114.319 115.448 116.189 115.59 118.143C115.731 120.09 115.866 122.044 115.987 123.998C116.109 125.958 116.217 127.803 116.304 129.532H111.261C111.194 127.399 111.106 125.087 110.991 122.576C110.884 120.071 110.715 117.547 110.493 114.998C110.095 115.882 109.657 116.862 109.164 117.932C108.679 119.008 108.193 120.084 107.715 121.16C107.236 122.23 106.778 123.261 106.339 124.235C105.888 125.215 105.51 126.054 105.2 126.752H101.586C101.276 126.054 100.898 125.215 100.453 124.235C100.008 123.261 99.5499 122.23 99.0779 121.16C98.5925 120.084 98.1138 119.008 97.6283 117.932C97.1429 116.862 96.6911 115.882 96.2933 114.998C96.0709 117.547 95.909 120.071 95.7944 122.576C95.6866 125.087 95.5989 127.399 95.5315 129.532H90.4883C90.5759 127.803 90.6838 125.958 90.8052 123.998C90.9265 122.044 91.0546 120.09 91.203 118.143C91.3445 116.189 91.5131 114.319 91.6951 112.519C91.8839 110.719 92.0929 109.092 92.3087 107.638H97.2575Z" fill="#888888"/>
<path d="M120.916 129.532V107.638H136.443V111.776H126.094V116.067H135.284V120.116H126.094V125.388H137.205V129.532H120.916Z" fill="#888888"/>
<path d="M156.456 129.532C154.973 127.021 153.368 124.549 151.642 122.108C149.916 119.661 148.083 117.355 146.134 115.184V129.532H141.023V107.638H145.237C145.972 108.33 146.775 109.181 147.665 110.194C148.548 111.206 149.451 112.282 150.368 113.435C151.285 114.581 152.195 115.773 153.106 117.003C154.009 118.233 154.865 119.418 155.661 120.558V107.638H160.805V129.532H156.456Z" fill="#888888"/>
<path d="M171.284 125.515C171.526 125.534 171.809 125.554 172.126 125.566C172.45 125.573 172.827 125.579 173.272 125.579C175.862 125.579 177.783 124.958 179.03 123.715C180.278 122.472 180.905 120.756 180.905 118.565C180.905 116.272 180.305 114.53 179.111 113.351C177.918 112.172 176.03 111.583 173.441 111.583C173.084 111.583 172.72 111.589 172.342 111.602C171.964 111.609 171.614 111.634 171.284 111.679V125.515ZM186.245 118.565C186.245 120.461 185.934 122.114 185.321 123.523C184.701 124.939 183.817 126.104 182.678 127.033C181.538 127.962 180.15 128.654 178.518 129.115C176.88 129.583 175.046 129.813 173.01 129.813C172.079 129.813 170.994 129.775 169.753 129.704C168.519 129.628 167.299 129.474 166.105 129.243V107.919C167.299 107.708 168.546 107.567 169.841 107.49C171.135 107.419 172.241 107.381 173.171 107.381C175.14 107.381 176.927 107.592 178.531 108.015C180.136 108.438 181.512 109.098 182.664 110.001C183.811 110.91 184.701 112.07 185.321 113.479C185.934 114.888 186.245 116.586 186.245 118.565Z" fill="#888888"/>
<path d="M190.561 129.532V107.638H206.088V111.776H195.739V116.067H204.928V120.116H195.739V125.388H206.857V129.532H190.561Z" fill="#888888"/>
<path d="M216.946 125.771C217.674 125.771 218.281 125.714 218.753 125.592C219.231 125.477 219.609 125.323 219.899 125.118C220.189 124.919 220.384 124.682 220.492 124.413C220.607 124.138 220.661 123.83 220.661 123.491C220.661 122.78 220.31 122.184 219.602 121.71C218.894 121.236 217.674 120.724 215.948 120.179C215.199 119.923 214.444 119.635 213.696 119.308C212.941 118.981 212.267 118.571 211.667 118.078C211.073 117.578 210.588 116.983 210.21 116.272C209.833 115.567 209.644 114.709 209.644 113.703C209.644 112.691 209.846 111.781 210.244 110.968C210.642 110.154 211.201 109.469 211.936 108.899C212.664 108.329 213.548 107.893 214.586 107.586C215.631 107.285 216.804 107.131 218.105 107.131C219.656 107.131 220.991 107.285 222.124 107.605C223.25 107.919 224.18 108.265 224.908 108.643L223.418 112.531C222.771 112.217 222.063 111.935 221.274 111.692C220.492 111.455 219.541 111.333 218.436 111.333C217.202 111.333 216.312 111.493 215.766 111.82C215.226 112.146 214.957 112.646 214.957 113.319C214.957 113.722 215.051 114.055 215.253 114.331C215.449 114.606 215.732 114.856 216.096 115.074C216.467 115.298 216.885 115.497 217.357 115.676C217.836 115.855 218.362 116.041 218.935 116.227C220.128 116.65 221.173 117.066 222.056 117.476C222.94 117.886 223.674 118.366 224.261 118.911C224.848 119.462 225.286 120.102 225.569 120.839C225.859 121.576 226.001 122.472 226.001 123.523C226.001 125.566 225.252 127.155 223.749 128.282C222.245 129.41 219.973 129.973 216.946 129.973C215.928 129.973 215.011 129.909 214.188 129.794C213.372 129.679 212.651 129.538 212.017 129.371C211.383 129.205 210.844 129.025 210.392 128.833C209.941 128.641 209.556 128.462 209.246 128.295L210.709 124.381C211.39 124.733 212.24 125.06 213.244 125.342C214.249 125.624 215.483 125.771 216.946 125.771Z" fill="#888888"/>
<path d="M153.056 41.4995C153.056 64.2447 134.617 82.6857 111.87 82.6857C89.1219 82.6857 70.6836 64.2447 70.6836 41.4995C70.6836 18.7545 89.1219 0.313477 111.87 0.313477C134.617 0.313477 153.056 18.7545 153.056 41.4995Z" fill="white" stroke="#474747" stroke-width="0.627778"/>
<g filter="url(#filter0_ddddd_1299_11507)">
<path d="M137 33.399C137 47.4012 116.372 88.6499 111.868 96.5429C107.601 88.6499 86.7363 47.4012 86.7363 33.399C86.7363 19.3969 97.9877 8.0459 111.868 8.0459C125.748 8.0459 137 19.3969 137 33.399Z" fill="#6D6D6D"/>
</g>
<path d="M131.644 34.6057C131.644 46.2001 115.413 80.3556 111.869 86.8913C108.511 80.3556 92.0938 46.2001 92.0938 34.6057C92.0938 23.0114 100.947 13.6123 111.869 13.6123C122.79 13.6123 131.644 23.0114 131.644 34.6057Z" fill="#474747"/>
<path d="M111.866 70.3979C114.31 70.3979 116.291 68.4167 116.291 65.9729C116.291 63.529 114.31 61.5479 111.866 61.5479C109.423 61.5479 107.441 63.529 107.441 65.9729C107.441 68.4167 109.423 70.3979 111.866 70.3979Z" fill="white"/>
<path d="M111.869 49.7852C120.706 49.7852 127.869 42.6217 127.869 33.7852C127.869 24.9486 120.706 17.7852 111.869 17.7852C103.033 17.7852 95.8691 24.9486 95.8691 33.7852C95.8691 42.6217 103.033 49.7852 111.869 49.7852Z" fill="white"/>
<path d="M121.84 21.2773C119.01 22.9822 115.58 23.9844 111.869 23.9844C108.17 23.9844 104.75 22.9879 101.926 21.293C101.598 21.5526 101.281 21.8249 100.975 22.1094C104.055 24.0454 107.817 25.1855 111.869 25.1855C115.933 25.1855 119.703 24.0392 122.787 22.0938C122.482 21.8094 122.166 21.537 121.84 21.2773Z" fill="#474747"/>
<path d="M111.869 42.3848C107.816 42.3848 104.055 43.5251 100.975 45.4609C101.28 45.7447 101.597 46.0164 101.924 46.2754C104.748 44.58 108.169 43.584 111.869 43.584C115.581 43.584 119.01 44.5878 121.84 46.293C122.166 46.0326 122.482 45.7596 122.787 45.4746C119.703 43.5297 115.932 42.3848 111.869 42.3848Z" fill="#474747"/>
<path d="M111.87 49.7852C118.265 49.7852 123.45 42.6217 123.45 33.7852C123.45 24.9486 118.265 17.7852 111.87 17.7852C105.474 17.7852 100.289 24.9486 100.289 33.7852C100.289 42.6217 105.474 49.7852 111.87 49.7852Z" stroke="#474747" stroke-width="1.2" stroke-linecap="square"/>
<path d="M111.869 17.7852V49.7852" stroke="#474747" stroke-width="1.2" stroke-linecap="square"/>
<path d="M95.8691 33.7852H127.869" stroke="#474747" stroke-width="1.2" stroke-linecap="square"/>
</g>
<defs>
<filter id="filter0_ddddd_1299_11507" x="82.7363" y="5.0459" width="98.2637" height="150.497" filterUnits="userSpaceOnUse" color-interpolation-filters="sRGB">
<feFlood flood-opacity="0" result="BackgroundImageFix"/>
<feColorMatrix in="SourceAlpha" type="matrix" values="0 0 0 0 0 0 0 0 0 0 0 0 0 0 0 0 0 0 127 0" result="hardAlpha"/>
<feOffset dx="1" dy="2"/>
<feGaussianBlur stdDeviation="2.5"/>
<feColorMatrix type="matrix" values="0 0 0 0 0 0 0 0 0 0 0 0 0 0 0 0 0 0 0.29 0"/>
<feBlend mode="normal" in2="BackgroundImageFix" result="effect1_dropShadow_1299_11507"/>
<feColorMatrix in="SourceAlpha" type="matrix" values="0 0 0 0 0 0 0 0 0 0 0 0 0 0 0 0 0 0 127 0" result="hardAlpha"/>
<feOffset dx="5" dy="7"/>
<feGaussianBlur stdDeviation="4"/>
<feColorMatrix type="matrix" values="0 0 0 0 0 0 0 0 0 0 0 0 0 0 0 0 0 0 0.26 0"/>
<feBlend mode="normal" in2="effect1_dropShadow_1299_11507" result="effect2_dropShadow_1299_11507"/>
<feColorMatrix in="SourceAlpha" type="matrix" values="0 0 0 0 0 0 0 0 0 0 0 0 0 0 0 0 0 0 127 0" result="hardAlpha"/>
<feOffset dx="11" dy="16"/>
<feGaussianBlur stdDeviation="5.5"/>
<feColorMatrix type="matrix" values="0 0 0 0 0 0 0 0 0 0 0 0 0 0 0 0 0 0 0.15 0"/>
<feBlend mode="normal" in2="effect2_dropShadow_1299_11507" result="effect3_dropShadow_1299_11507"/>
<feColorMatrix in="SourceAlpha" type="matrix" values="0 0 0 0 0 0 0 0 0 0 0 0 0 0 0 0 0 0 127 0" result="hardAlpha"/>
<feOffset dx="19" dy="28"/>
<feGaussianBlur stdDeviation="7"/>
<feColorMatrix type="matrix" values="0 0 0 0 0 0 0 0 0 0 0 0 0 0 0 0 0 0 0.04 0"/>
<feBlend mode="normal" in2="effect3_dropShadow_1299_11507" result="effect4_dropShadow_1299_11507"/>
<feColorMatrix in="SourceAlpha" type="matrix" values="0 0 0 0 0 0 0 0 0 0 0 0 0 0 0 0 0 0 127 0" result="hardAlpha"/>
<feOffset dx="29" dy="44"/>
<feGaussianBlur stdDeviation="7.5"/>
<feColorMatrix type="matrix" values="0 0 0 0 0 0 0 0 0 0 0 0 0 0 0 0 0 0 0.01 0"/>
<feBlend mode="normal" in2="effect4_dropShadow_1299_11507" result="effect5_dropShadow_1299_11507"/>
<feBlend mode="normal" in="SourceGraphic" in2="effect5_dropShadow_1299_11507" result="shape"/>
</filter>
<clipPath id="clip0_1299_11507">
<rect width="226" height="130" fill="white"/>
</clipPath>
</defs>
</svg>
