<svg width="20" height="20" viewBox="0 0 20 20" fill="none" xmlns="http://www.w3.org/2000/svg">
<path d="M10.0015 11.0233C9.70695 11.0233 9.41239 10.9134 9.19698 10.6957L0.289889 1.70761C-0.120012 1.29473 -0.0917435 0.650957 0.352647 0.270142C0.795345 -0.110646 1.48851 -0.0859248 1.89788 0.328523L10.805 9.31658C11.2149 9.72945 11.1866 10.3732 10.7422 10.754C10.533 10.9334 10.2667 11.0233 10.0015 11.0233Z" fill="white"/>
<path d="M1.10942 20C0.844254 20 0.577949 19.9111 0.367629 19.7307C-0.0761988 19.3494 -0.103902 18.7062 0.304871 18.2933L9.20299 9.31518C9.61233 8.90125 10.3049 8.87548 10.7482 9.2568C11.192 9.63811 11.2198 10.2814 10.811 10.6943L1.91287 19.6729C1.69801 19.8906 1.40399 20 1.10942 20Z" fill="white"/>
<path d="M10 11.0232C9.73488 11.0232 9.46857 10.9343 9.25825 10.7539C8.81443 10.3726 8.78672 9.72938 9.1955 9.31648L18.1026 0.328425C18.5119 -0.0860237 19.2051 -0.11127 19.6478 0.270044C20.0916 0.651358 20.1193 1.29461 19.7106 1.70751L10.8035 10.6956C10.5892 10.9133 10.2946 11.0232 10 11.0232Z" fill="white"/>
<path d="M18.8982 20C18.6037 20 18.3097 19.89 18.0937 19.6723L9.19614 10.6936C8.78624 10.2808 8.81451 9.637 9.2589 9.25619C9.70216 8.87487 10.3942 8.90064 10.8041 9.31457L19.7022 18.2927C20.1121 18.7055 20.0839 19.3493 19.6395 19.7301C19.4297 19.9116 19.164 20 18.8982 20Z" fill="white"/>
</svg>
