<svg width="71" height="60" viewBox="0 0 71 60" fill="none" xmlns="http://www.w3.org/2000/svg">
<g clip-path="url(#clip0_1963_25816)">
<path d="M2.28223 27.3471L4.37833 60.0004L17.1039 56.9977L16.5838 49.4301L10.1709 50.467L9.15072 34.9012L15.5146 34.3512L15.0367 26.9729L2.28223 27.3471Z" fill="#E7E7E7"/>
<path d="M0.694336 0L2.11814 22.0161L10.2225 22.0183L9.91295 16.8155L5.74547 16.6697L5.13752 5.97706L9.13325 6.37781L8.81457 1.15443L0.694336 0Z" fill="#E7E7E7"/>
<path d="M31.1731 53.3941L29.2803 26.7394L37.4632 26.4216L37.7498 32.473L33.5963 32.7264L33.9835 37.0844L37.3413 36.7666L37.7092 40.8913L34.7021 41.4713L35.4485 52.2518L31.1731 53.3941Z" fill="#E7E7E7"/>
<path d="M40.1469 51.1929L46.2187 49.6839L45.7627 43.6414L42.6918 44.2675L42.4586 40.1708L44.7066 39.7857L44.344 35.5967L42.0344 35.8624L41.6654 32.045L44.8805 31.7139L44.2549 25.8718L38.2786 26.1511L40.1469 51.1929Z" fill="#E7E7E7"/>
<path d="M30.0352 21.9551L37.75 22.018L37.4093 17.8239L33.6086 17.698L33.3728 14.6008L35.6343 14.6907L35.4028 11.6856L33.1584 11.4946L32.9141 9.05368L36.8304 9.50323L36.436 5.31361L28.7512 4.40332L30.0352 21.9551Z" fill="#E7E7E7"/>
<path d="M46.22 25.967L48.0982 49.5415L50.9841 48.782L49.1743 25.8718L46.22 25.967Z" fill="#E7E7E7"/>
<path d="M52.2319 48.4406L50.4541 26.1165L53.8936 26.0319L56.6236 34.4691L55.9486 25.8918L59.216 25.8718L61.041 46.2762L57.9263 47.0303L55.0844 38.7511L55.8669 47.5286L52.2319 48.4406Z" fill="#E7E7E7"/>
<path d="M66.98 25.3203L61.5715 25.3648L61.7095 46.2391L65.0204 45.3669L64.7653 38.6857L66.5468 38.3697L67.603 44.7691L70.5698 44.0941L66.98 25.3203ZM65.1613 30.2748L65.8051 35.0439L64.2609 35.2294L64.2179 30.3164L65.1613 30.2748Z" fill="#E7E7E7"/>
<path d="M47.81 4.95386L46.22 16.9674H48.7385L47.3215 29.7245L51.5134 12.9421L49.3123 12.9332L50.6921 5.36797L47.81 4.95386Z" fill="#E7E7E7"/>
<path d="M20.2808 2.75195L21.518 22.018H29.2797L29.2068 17.4723L25.3838 17.2816L24.3928 3.27873L20.2808 2.75195Z" fill="#E7E7E7"/>
<path d="M41.0193 9.90143L38.5988 9.61328L38.2786 5.50513L45.9536 6.64641L46.2187 10.4935L43.8831 10.2728L44.6065 22.0189L41.8063 22.0077L41.0193 9.90143Z" fill="#E7E7E7"/>
<path d="M58.9233 8.8064L60.2391 22.0175H67.3935L66.1074 9.81955L58.9233 8.8064ZM62.6289 12.1084L64.1345 12.3621L64.7471 18.714H63.243L62.6289 12.1084Z" fill="#E7E7E7"/>
<path d="M51.5112 7.70605L54.0406 21.954L57.8634 22.018L58.3927 8.65307L55.8902 8.23368L55.6389 17.2893L54.5102 8.08573L51.5112 7.70605Z" fill="#E7E7E7"/>
<path d="M26.8201 26.4216L18.6926 26.616L18.6987 56.6962L23.1207 55.5006L23.1177 47.9056L25.4481 47.4532L26.7727 54.7025L30.8669 53.6656L26.8201 26.4216ZM24.0136 33.5775L25.0445 42.1307L22.7957 42.3844L22.3981 33.8015L24.0136 33.5775Z" fill="#E7E7E7"/>
<path d="M10.2241 1.65015L11.4613 21.848L20.2815 22.0171L19.0829 2.91845L10.2241 1.65015ZM13.3986 6.60319L16.5003 6.92212L17.1041 17.0626L14.1388 17.0418L13.3986 6.60319Z" fill="#E7E7E7"/>
</g>
<defs>
<clipPath id="clip0_1963_25816">
<rect width="69.8735" height="60" fill="white" transform="translate(0.696289)"/>
</clipPath>
</defs>
</svg>
