<svg width="134" height="60" viewBox="0 0 134 60" fill="none" xmlns="http://www.w3.org/2000/svg">
<g clip-path="url(#clip0_1963_25749)">
<path fill-rule="evenodd" clip-rule="evenodd" d="M59.8593 13.124L79.2651 45.5471H40.4587L59.8593 13.124Z" fill="#D1D1D1"/>
<path fill-rule="evenodd" clip-rule="evenodd" d="M25.5879 13.127L46.6231 45.55H25.5879V13.127Z" fill="#E7E7E7"/>
<path fill-rule="evenodd" clip-rule="evenodd" d="M43.4144 40.5977L40.457 45.5422H46.6237L43.4144 40.5977Z" fill="#888888"/>
<path fill-rule="evenodd" clip-rule="evenodd" d="M59.8579 33.6594C66.4089 33.6594 71.7278 38.9858 71.7278 45.5461H47.988C47.988 38.9858 53.3069 33.6594 59.8579 33.6594Z" fill="#888888"/>
<path fill-rule="evenodd" clip-rule="evenodd" d="M38.3124 13.127C43.6666 13.127 48.0127 17.4791 48.0127 22.841C48.0127 28.2028 43.6666 32.555 38.3124 32.555L28.5555 30.6544L25.5879 13.127H38.3124Z" fill="#888888"/>
<path fill-rule="evenodd" clip-rule="evenodd" d="M122.576 34.6123H133.807V45.5433H122.576V34.6123Z" fill="#888888"/>
<path fill-rule="evenodd" clip-rule="evenodd" d="M111.351 34.6123H122.581V45.5433H111.351V34.6123Z" fill="#888888"/>
<path fill-rule="evenodd" clip-rule="evenodd" d="M111.351 13.1731H122.581V34.6121H111.351V13.1731Z" fill="#D1D1D1"/>
<path fill-rule="evenodd" clip-rule="evenodd" d="M98.2012 13.1816H109.431V45.5519H98.2012V13.1816Z" fill="#E7E7E7"/>
<path fill-rule="evenodd" clip-rule="evenodd" d="M81.5111 43.5353C78.9652 41.6554 77.3142 38.632 77.3142 35.2223C77.3142 31.8126 78.9652 28.7891 81.5111 26.9092V24.9004H87.6214C93.31 24.9004 97.9284 29.5257 97.9284 35.2223C97.9284 40.9188 93.31 45.544 87.6214 45.544H81.5111V43.5353Z" fill="#D1D1D1"/>
<path fill-rule="evenodd" clip-rule="evenodd" d="M84.9763 22.8873L84.5806 24.9012V27.2087H80.5892C76.7112 27.2087 73.5583 24.0513 73.5583 20.1678C73.5583 16.2842 76.7112 13.127 80.5892 13.127H84.5806L84.9763 15.1408V22.8873Z" fill="#E7E7E7"/>
<path fill-rule="evenodd" clip-rule="evenodd" d="M84.5818 13.1199H96.2875V24.897H84.5818V13.1199Z" fill="#888888"/>
<path fill-rule="evenodd" clip-rule="evenodd" d="M73.5583 27.2031H84.5817V45.5448H73.5583V27.2031Z" fill="#B0B0B0"/>
<path fill-rule="evenodd" clip-rule="evenodd" d="M15.888 26.114C21.2422 26.114 25.5883 30.4663 25.5883 35.8281C25.5883 41.1898 21.2422 45.5421 15.888 45.5421H0.972412V26.114H15.888Z" fill="#B0B0B0"/>
<path fill-rule="evenodd" clip-rule="evenodd" d="M14.8591 13.127C18.4388 13.127 21.3448 16.037 21.3448 19.6219C21.3448 23.2066 18.4388 26.1167 14.8591 26.1167H7.07227L11.732 13.127H14.8591Z" fill="#888888"/>
<path d="M14.8816 2.87304V4.19463H16.5456C16.4021 4.59686 15.9719 4.91289 15.312 4.91289C14.3652 4.91289 13.7341 4.22336 13.7341 3.30399C13.7341 2.35589 14.3939 1.63764 15.2833 1.63764C15.857 1.63764 16.3734 1.92494 16.6317 2.41335L18.0662 1.55145C17.4924 0.603345 16.4309 0 15.312 0C13.5046 0 12.0701 1.43652 12.0701 3.27527C12.0701 5.08528 13.5046 6.5218 15.3406 6.5218C17.062 6.5218 18.353 5.25765 18.353 3.33272V2.84431L14.8816 2.87304Z" fill="#F6F6F6"/>
<path d="M24.0617 6.55068C25.869 6.55068 27.3035 5.11416 27.3035 3.30414C27.3035 1.49413 25.869 0.0576172 24.0617 0.0576172C22.2542 0.0576172 20.791 1.49413 20.791 3.30414C20.791 5.11416 22.2255 6.55068 24.0617 6.55068ZM24.0617 4.82686C23.2296 4.82686 22.5985 4.16605 22.5985 3.30414C22.5985 2.4135 23.2296 1.78144 24.0617 1.78144C24.8649 1.78144 25.4961 2.44224 25.4961 3.30414C25.4961 4.16605 24.8649 4.82686 24.0617 4.82686Z" fill="#F6F6F6"/>
<path d="M33.5288 0.202393L32.0656 4.02353L30.6311 0.202393H28.8237L31.2336 6.40815H32.8976L35.3362 0.202393H33.5288Z" fill="#F6F6F6"/>
<path d="M41.9077 1.69581V0.173096H37.4609V6.37885H41.9077V4.85615H39.1536V3.93677H40.9897V2.64391H39.1536V1.72453L41.9077 1.69581Z" fill="#F6F6F6"/>
<path d="M48.0197 6.40815H49.8845L48.5074 4.02353C49.1673 3.67877 49.5976 3.01797 49.5976 2.21352C49.5976 1.06431 48.6796 0.202393 47.4459 0.202393H44.4336V6.40815H46.0975V4.25337H46.7861L48.0197 6.40815ZM46.0975 1.66765H47.2738C47.6755 1.66765 47.905 1.95495 47.905 2.24225C47.905 2.52955 47.6468 2.81686 47.2738 2.81686H46.0975V1.66765Z" fill="#F6F6F6"/>
<path d="M56.0518 0.202393V3.47765L53.5559 0.202393H52.1501V6.40815H53.8141V3.1329L56.3101 6.40815H57.7159V0.202393H56.0518Z" fill="#F6F6F6"/>
<path d="M63.3384 6.55068C65.1458 6.55068 66.5803 5.11416 66.5803 3.30414C66.5803 1.49413 65.1458 0.0576172 63.3384 0.0576172C61.531 0.0576172 60.0679 1.49413 60.0679 3.30414C60.0679 5.11416 61.5023 6.55068 63.3384 6.55068ZM63.3384 4.82686C62.5064 4.82686 61.8753 4.16605 61.8753 3.30414C61.8753 2.4135 62.5064 1.78144 63.3384 1.78144C64.1417 1.78144 64.7728 2.44224 64.7728 3.30414C64.7728 4.16605 64.1417 4.82686 63.3384 4.82686Z" fill="#F6F6F6"/>
<path d="M77.4527 1.66708V0.173096H73.0059V6.37885H74.6985V4.10916H76.5346V2.70137H74.6985V1.63834H77.4527V1.66708Z" fill="#F6F6F6"/>
<path d="M84.3388 1.69581V0.173096H79.8923V6.37885H84.3388V4.85615H81.585V3.93677H83.421V2.64391H81.585V1.72453L84.3388 1.69581Z" fill="#F6F6F6"/>
<path d="M89.4166 0.202393H86.8926V6.40815H89.4166C91.3107 6.40815 92.7166 5.08655 92.7166 3.30527C92.7166 1.52399 91.3107 0.202393 89.4166 0.202393ZM89.3307 4.79925H88.5847V1.8113H89.3307C90.3061 1.8113 90.9953 2.3859 90.9953 3.30527C90.9953 4.19591 90.3061 4.79925 89.3307 4.79925Z" fill="#F6F6F6"/>
<path d="M99.5459 1.69581V0.173096H95.0994V6.37885H99.5459V4.85615H96.7915V3.93677H98.628V2.64391H96.7915V1.72453L99.5459 1.69581Z" fill="#F6F6F6"/>
<path d="M105.656 6.40815H107.521L106.144 4.02353C106.804 3.67877 107.234 3.01797 107.234 2.21352C107.234 1.06431 106.316 0.202393 105.082 0.202393H102.07V6.40815H103.734V4.25337H104.422L105.656 6.40815ZM103.734 1.66765H104.91C105.312 1.66765 105.541 1.95495 105.541 2.24225C105.541 2.52955 105.283 2.81686 104.91 2.81686H103.734V1.66765Z" fill="#F6F6F6"/>
<path d="M114.377 6.40815H116.098L113.487 0.202393H111.909L109.328 6.40815H111.078L111.508 5.34513H113.975L114.377 6.40815ZM112.081 3.85115L112.713 2.32844L113.344 3.85115H112.081Z" fill="#F6F6F6"/>
<path d="M120.001 4.79868V0.173096H118.251V6.37885H122.612V4.76995H120.001V4.79868Z" fill="#F6F6F6"/>
<path fill-rule="evenodd" clip-rule="evenodd" d="M73.5583 36.0137L79.2622 45.5474H73.5583V36.0137Z" fill="#888888"/>
<path fill-rule="evenodd" clip-rule="evenodd" d="M14.3117 57.4208C14.5653 57.4208 14.7767 57.3785 14.9457 57.2726C15.1148 57.1668 15.2416 57.0398 15.3473 56.8917C15.453 56.7435 15.5164 56.553 15.5586 56.3413C15.601 56.1297 15.622 55.918 15.622 55.7064V53.2722H16.383V55.7064C16.383 56.0239 16.3407 56.3413 16.2773 56.6376C16.1928 56.934 16.087 57.1879 15.918 57.3996C15.7489 57.6113 15.5376 57.7806 15.2839 57.9076C15.0303 58.0346 14.7133 58.0981 14.3328 58.0981C13.9523 58.0981 13.6353 58.0346 13.3605 57.9076C13.1069 57.7806 12.8956 57.5901 12.7265 57.3785C12.5574 57.1668 12.4517 56.8916 12.3672 56.6165C12.3038 56.3201 12.2615 56.0239 12.2615 55.7275V53.2934H13.0224V55.7275C13.0224 55.9391 13.0435 56.1508 13.0858 56.3625C13.1281 56.5742 13.1915 56.7435 13.2971 56.9128C13.4029 57.0821 13.5297 57.2091 13.6987 57.2938C13.8679 57.3785 14.0581 57.4208 14.3117 57.4208Z" fill="#F6F6F6"/>
<path fill-rule="evenodd" clip-rule="evenodd" d="M19.5751 54.7133V58.0787H18.8142V53.2952H19.406L22.1325 56.7453V53.2952H22.8934V58.0787H22.2593L19.5751 54.7133Z" fill="#F6F6F6"/>
<path fill-rule="evenodd" clip-rule="evenodd" d="M25.4097 53.2952H26.1705V58.0787H25.4097V53.2952Z" fill="#F6F6F6"/>
<path fill-rule="evenodd" clip-rule="evenodd" d="M30.0797 53.2954H30.735L32.616 58.0789H31.8128L31.3056 56.7878H29.4668L28.9595 58.0789H28.1775L30.0797 53.2954ZM31.1576 56.2163L30.3968 54.1632L29.5937 56.2163H31.1576ZM30.8195 52.6816C30.7138 52.6816 30.6293 52.6604 30.5447 52.6393C30.4602 52.6181 30.3968 52.5758 30.3334 52.5335C30.27 52.4911 30.2065 52.4699 30.1431 52.4276C30.0797 52.4064 30.0163 52.3853 29.9318 52.3853C29.8473 52.3853 29.805 52.4064 29.7627 52.4276C29.7205 52.4487 29.6781 52.4911 29.6571 52.5335C29.6359 52.5758 29.6147 52.6181 29.6147 52.6393V52.7028H29.1921C29.1921 52.6604 29.2131 52.597 29.2343 52.5123C29.2555 52.4276 29.2977 52.3429 29.3611 52.2583C29.4245 52.1736 29.4879 52.089 29.5725 52.0254C29.6571 51.9619 29.7839 51.9196 29.9107 51.9196C30.0163 51.9196 30.1009 51.9408 30.1643 51.9619C30.2489 51.9831 30.3123 52.0254 30.3757 52.0678C30.4391 52.1101 30.5025 52.1313 30.5659 52.1736C30.6293 52.1948 30.7138 52.216 30.7772 52.216C30.8618 52.216 30.9252 52.1948 30.9674 52.1736C31.0097 52.1525 31.052 52.1101 31.0731 52.0678C31.0942 52.0254 31.1154 51.9831 31.1154 51.9619V51.8984H31.5381C31.5381 51.9196 31.517 51.9831 31.4958 52.0678C31.4747 52.1525 31.4324 52.2371 31.369 52.3218C31.3056 52.4064 31.2422 52.4911 31.1365 52.5546C31.0942 52.6393 30.9674 52.6816 30.8195 52.6816Z" fill="#F6F6F6"/>
<path fill-rule="evenodd" clip-rule="evenodd" d="M36.4409 58.0992C36.1027 58.0992 35.7857 58.0357 35.5109 57.8876C35.2361 57.7606 34.9825 57.5701 34.7923 57.3373C34.5809 57.1044 34.4329 56.8504 34.3273 56.5541C34.2216 56.2578 34.1582 55.9614 34.1582 55.6652C34.1582 55.3477 34.2216 55.0513 34.3273 54.755C34.4541 54.4587 34.602 54.2047 34.8134 53.9719C35.0248 53.739 35.2573 53.5697 35.532 53.4427C35.8067 53.3157 36.1238 53.2522 36.4409 53.2522C36.779 53.2522 37.0961 53.3157 37.3708 53.4639C37.6456 53.612 37.8992 53.7813 38.0894 54.0142C38.2796 54.2471 38.4488 54.501 38.5544 54.7974C38.6601 55.0937 38.7236 55.39 38.7236 55.6863C38.7236 56.0039 38.6601 56.3001 38.5544 56.5965C38.4488 56.8928 38.2796 57.1468 38.0683 57.3585C37.857 57.5701 37.6244 57.7606 37.3286 57.8876C37.0749 58.0357 36.779 58.0992 36.4409 58.0992ZM34.9191 55.6863C34.9191 55.9191 34.9613 56.1308 35.0248 56.3424C35.0882 56.5541 35.1939 56.7446 35.3207 56.8928C35.4475 57.0621 35.6165 57.1891 35.8067 57.2738C35.997 57.3796 36.2083 57.422 36.4409 57.422C36.6733 57.422 36.9058 57.3796 37.0749 57.2738C37.244 57.1679 37.4131 57.041 37.5399 56.8717C37.6667 56.7023 37.7724 56.5118 37.8358 56.3213C37.8992 56.1097 37.9415 55.898 37.9415 55.6863C37.9415 55.4535 37.8992 55.2418 37.8358 55.0301C37.7724 54.8185 37.6667 54.628 37.5399 54.4799C37.4131 54.3317 37.244 54.1835 37.0538 54.0988C36.8636 54.0142 36.6522 53.9507 36.4409 53.9507C36.2083 53.9507 35.9759 53.993 35.7857 54.0988C35.5954 54.2047 35.4475 54.3317 35.2995 54.501C35.1516 54.6703 35.067 54.8397 35.0036 55.0513C34.9613 55.263 34.9191 55.4746 34.9191 55.6863Z" fill="#F6F6F6"/>
<path fill-rule="evenodd" clip-rule="evenodd" d="M47.3263 57.3996V58.0558H44.0503V53.2722H47.2629V53.9284H44.8112V55.283H46.9459V55.918H44.8112V57.3785H47.3263V57.3996Z" fill="#F6F6F6"/>
<path fill-rule="evenodd" clip-rule="evenodd" d="M52.6306 58.0787V53.2952H54.7019C54.9133 53.2952 55.1246 53.3375 55.2937 53.4221C55.4839 53.5068 55.6319 53.6338 55.7587 53.782C55.8855 53.9301 55.9912 54.0994 56.0546 54.2899C56.118 54.4804 56.1603 54.671 56.1603 54.8614C56.1603 55.0308 56.1392 55.1789 56.0968 55.3271C56.0546 55.4753 55.9912 55.6022 55.9067 55.7292C55.8221 55.8563 55.7376 55.9621 55.6107 56.0467C55.4839 56.1314 55.3571 56.216 55.2303 56.2584L56.3505 58.0787H55.5051L54.4695 56.4066H53.3704V58.0787H52.6306ZM53.3704 55.7504H54.6808C54.7865 55.7504 54.8921 55.7292 54.9767 55.6869C55.0612 55.6446 55.1457 55.5811 55.2092 55.4964C55.2726 55.4117 55.3149 55.3271 55.3571 55.2001C55.3994 55.0943 55.4205 54.9885 55.4205 54.8614C55.4205 54.7344 55.3994 54.6286 55.3571 54.5228C55.3149 54.4169 55.2515 54.3111 55.188 54.2476C55.1246 54.163 55.0401 54.0995 54.9555 54.0571C54.871 54.0148 54.7653 53.9936 54.6597 53.9936H53.3915L53.3704 55.7504Z" fill="#F6F6F6"/>
<path fill-rule="evenodd" clip-rule="evenodd" d="M61.7836 57.3996V58.0558H58.5076V53.2722H61.7202V53.9284H59.2474V55.283H61.3821V55.918H59.2474V57.3785H61.7836V57.3996Z" fill="#F6F6F6"/>
<path fill-rule="evenodd" clip-rule="evenodd" d="M63.5798 55.644C63.5798 55.3477 63.6221 55.0725 63.7278 54.7762C63.8335 54.501 63.9814 54.2258 64.1716 54.0142C64.3619 53.7813 64.6155 53.612 64.9114 53.4639C65.2073 53.3157 65.5243 53.2522 65.8837 53.2522C66.3275 53.2522 66.6868 53.3581 67.0038 53.5485C67.3208 53.739 67.5534 53.993 67.7014 54.3106L67.1095 54.7127C67.0461 54.5645 66.9616 54.4375 66.877 54.3529C66.7924 54.2471 66.6868 54.1835 66.56 54.12C66.4543 54.0565 66.3275 54.0142 66.2007 53.993C66.0739 53.9719 65.9682 53.9507 65.8413 53.9507C65.5877 53.9507 65.3763 53.993 65.1861 54.0988C64.9959 54.2047 64.848 54.3317 64.7211 54.501C64.5943 54.6703 64.4887 54.8608 64.4253 55.0513C64.3619 55.263 64.3196 55.4746 64.3196 55.6652C64.3196 55.898 64.3619 56.1308 64.4253 56.3213C64.5098 56.533 64.6155 56.7234 64.7423 56.8717C64.8691 57.041 65.0382 57.1679 65.2285 57.2526C65.4187 57.3373 65.63 57.4008 65.8413 57.4008C65.9682 57.4008 66.0739 57.3796 66.2007 57.3585C66.3275 57.3373 66.4332 57.2738 66.56 57.2103C66.6656 57.1468 66.7714 57.0621 66.877 56.9563C66.9827 56.8505 67.0461 56.7446 67.1095 56.5965L67.7436 56.9563C67.659 57.1256 67.5534 57.295 67.4266 57.422C67.2786 57.5489 67.1306 57.6759 66.9616 57.7606C66.7925 57.8453 66.6023 57.9299 66.412 57.9723C66.2218 58.0146 66.0316 58.0357 65.8413 58.0357C65.5032 58.0357 65.2073 57.9723 64.9114 57.8241C64.6366 57.6759 64.4041 57.4854 64.1928 57.2526C63.9814 57.0198 63.8335 56.7658 63.7278 56.4695C63.6432 56.2578 63.5798 55.9614 63.5798 55.644Z" fill="#F6F6F6"/>
<path fill-rule="evenodd" clip-rule="evenodd" d="M71.8645 58.0992C71.5263 58.0992 71.2092 58.0357 70.9345 57.8876C70.6598 57.7606 70.4061 57.5701 70.2159 57.3373C70.0045 57.1044 69.8566 56.8504 69.7509 56.5541C69.6452 56.2578 69.5818 55.9614 69.5818 55.6652C69.5818 55.3477 69.6452 55.0513 69.7509 54.755C69.8777 54.4587 70.0257 54.2047 70.237 53.9719C70.4484 53.739 70.6808 53.5697 70.9556 53.4427C71.2304 53.3157 71.5474 53.2522 71.8645 53.2522C72.2027 53.2522 72.5197 53.3157 72.7945 53.4639C73.0692 53.612 73.3229 53.7813 73.5131 54.0142C73.7033 54.2471 73.8724 54.501 73.9781 54.7974C74.0837 55.0937 74.1471 55.39 74.1471 55.6863C74.1471 56.0039 74.0837 56.3001 73.9781 56.5965C73.8724 56.8928 73.7033 57.1468 73.4919 57.3585C73.2806 57.5701 73.0481 57.7606 72.7522 57.8876C72.4986 58.0357 72.1815 58.0992 71.8645 58.0992ZM70.3427 55.6863C70.3427 55.9191 70.385 56.1308 70.4484 56.3424C70.5118 56.5541 70.6174 56.7446 70.7443 56.8928C70.8711 57.0621 71.0402 57.1891 71.2304 57.2738C71.4206 57.3796 71.632 57.422 71.8645 57.422C72.097 57.422 72.3295 57.3796 72.4986 57.2738C72.6676 57.1679 72.8367 57.041 72.9635 56.8717C73.0903 56.7023 73.1961 56.5118 73.2595 56.3213C73.3229 56.1097 73.3651 55.898 73.3651 55.6863C73.3651 55.4535 73.3229 55.2418 73.2595 55.0301C73.1961 54.8185 73.0903 54.628 72.9635 54.4799C72.8367 54.3317 72.6676 54.1835 72.4774 54.0988C72.2872 54.0142 72.0758 53.9507 71.8645 53.9507C71.632 53.9507 71.3995 53.993 71.2092 54.0988C71.019 54.2047 70.8711 54.3317 70.7232 54.501C70.5752 54.6703 70.4906 54.8397 70.4272 55.0513C70.3638 55.263 70.3427 55.4746 70.3427 55.6863Z" fill="#F6F6F6"/>
<path fill-rule="evenodd" clip-rule="evenodd" d="M77.107 54.7133V58.0787H76.3672V53.2952H76.959L79.6855 56.7453V53.2952H80.4464V58.0787H79.8123L77.107 54.7133Z" fill="#F6F6F6"/>
<path fill-rule="evenodd" clip-rule="evenodd" d="M85.7721 54.4152C85.7299 54.3729 85.6667 54.3094 85.5824 54.2671C85.498 54.2035 85.3918 54.1612 85.2864 54.1189C85.181 54.0765 85.0537 54.0342 84.9061 53.9919C84.7788 53.9707 84.6313 53.9496 84.4829 53.9496C84.1659 53.9496 83.934 54.0131 83.7856 54.1189C83.638 54.2247 83.5529 54.3941 83.5529 54.6057C83.5529 54.7327 83.574 54.8174 83.617 54.902C83.6591 54.9655 83.7434 55.0502 83.8278 55.0925C83.934 55.1561 84.0394 55.1984 84.187 55.2407C84.3353 55.283 84.504 55.3253 84.6945 55.3888C84.9272 55.4523 85.1591 55.5158 85.3497 55.5794C85.5402 55.6429 85.7088 55.7487 85.8361 55.8333C85.9626 55.9391 86.068 56.0662 86.1532 56.2143C86.2375 56.3625 86.2586 56.553 86.2586 56.7646C86.2586 56.9975 86.2164 57.2091 86.111 57.3996C86.0048 57.5901 85.8994 57.7171 85.7299 57.823C85.5613 57.9288 85.3918 58.0134 85.181 58.0558C84.9694 58.0981 84.7367 58.1404 84.504 58.1404C84.1448 58.1404 83.7856 58.0769 83.4475 57.9711C83.1094 57.8653 82.8134 57.6959 82.5386 57.4843L82.8767 56.8281C82.9399 56.8916 83.0251 56.9552 83.1305 57.0186C83.2359 57.0821 83.3632 57.1668 83.5107 57.2091C83.6591 57.2726 83.8067 57.3149 83.9761 57.3573C84.1448 57.3996 84.3143 57.4208 84.504 57.4208C84.7999 57.4208 85.0326 57.3785 85.181 57.2726C85.3497 57.1668 85.4129 57.0186 85.4129 56.8069C85.4129 56.68 85.3918 56.5953 85.3286 56.5107C85.2653 56.4259 85.181 56.3625 85.0748 56.299C84.9694 56.2355 84.821 56.1932 84.6734 56.1297C84.504 56.0874 84.3353 56.0238 84.1237 55.9815C83.891 55.918 83.6802 55.8545 83.5107 55.791C83.3421 55.7275 83.1937 55.6429 83.0672 55.537C82.9399 55.4312 82.8556 55.3253 82.7924 55.1984C82.7291 55.0713 82.708 54.902 82.708 54.7115C82.708 54.4787 82.7502 54.2671 82.8345 54.0977C82.9188 53.9072 83.0461 53.759 83.1937 53.6321C83.3421 53.5051 83.5318 53.4204 83.7434 53.3569C83.9551 53.2934 84.187 53.2722 84.4197 53.2722C84.7367 53.2722 85.0326 53.3145 85.3075 53.4204C85.5824 53.5262 85.8151 53.6532 86.0259 53.8013L85.7721 54.4152Z" fill="#F6F6F6"/>
<path fill-rule="evenodd" clip-rule="evenodd" d="M91.966 53.9512H90.3808V58.0785H89.6203V53.9724H88.0352V53.3162H91.966V53.9512Z" fill="#F6F6F6"/>
<path fill-rule="evenodd" clip-rule="evenodd" d="M94.0369 58.0787V53.2952H96.1077C96.3193 53.2952 96.5309 53.3375 96.6996 53.4221C96.8901 53.5068 97.0377 53.6338 97.165 53.782C97.2915 53.9301 97.3977 54.0994 97.4609 54.2899C97.5242 54.4804 97.5663 54.671 97.5663 54.8614C97.5663 55.0308 97.5452 55.1789 97.5031 55.3271C97.4609 55.4753 97.3977 55.6022 97.3125 55.7292C97.2282 55.8563 97.1439 55.9621 97.0166 56.0467C96.8901 56.1314 96.7636 56.216 96.6363 56.2584L97.7569 58.0787H96.9112L95.8758 56.4066H94.7763V58.0787H94.0369ZM94.7974 55.7504H96.1077C96.2139 55.7504 96.3193 55.7292 96.4036 55.6869C96.4888 55.6446 96.5731 55.5811 96.6363 55.4964C96.6996 55.4117 96.7417 55.3271 96.7847 55.2001C96.8269 55.0943 96.8479 54.9885 96.8479 54.8614C96.8479 54.7344 96.8269 54.6286 96.7847 54.5228C96.7417 54.4169 96.6785 54.3111 96.6152 54.2476C96.552 54.163 96.4677 54.0995 96.3825 54.0571C96.2982 54.0148 96.1928 53.9936 96.0866 53.9936H94.8185L94.7974 55.7504Z" fill="#F6F6F6"/>
<path fill-rule="evenodd" clip-rule="evenodd" d="M101.9 57.4208C102.154 57.4208 102.365 57.3785 102.534 57.2726C102.703 57.1668 102.83 57.0398 102.935 56.8917C103.041 56.7435 103.105 56.553 103.147 56.3413C103.189 56.1297 103.21 55.918 103.21 55.7064V53.2722H103.971V55.7064C103.971 56.0239 103.929 56.3413 103.865 56.6376C103.781 56.934 103.675 57.1879 103.506 57.3996C103.337 57.6113 103.126 57.7806 102.872 57.9076C102.618 58.0346 102.301 58.0981 101.921 58.0981C101.541 58.0981 101.224 58.0346 100.949 57.9076C100.695 57.7806 100.483 57.5901 100.315 57.3785C100.145 57.1668 100.04 56.8916 99.9556 56.6165C99.8915 56.3201 99.8494 56.0239 99.8494 55.7275V53.2934H100.611V55.7275C100.611 55.9391 100.632 56.1508 100.674 56.3625C100.716 56.5742 100.779 56.7435 100.886 56.9128C100.991 57.0821 101.117 57.2091 101.287 57.2938C101.456 57.3785 101.667 57.4208 101.9 57.4208Z" fill="#F6F6F6"/>
<path fill-rule="evenodd" clip-rule="evenodd" d="M113.778 53.2954H114.434L116.315 58.0789H115.512L115.004 56.7878H113.165L112.658 58.0789H111.855L113.778 53.2954ZM114.877 56.2163L114.117 54.1632L113.314 56.2163H114.877ZM114.518 52.6816C114.413 52.6816 114.328 52.6604 114.243 52.6393C114.159 52.6181 114.095 52.5758 114.032 52.5335C113.969 52.4911 113.905 52.4699 113.842 52.4276C113.778 52.3853 113.715 52.3853 113.631 52.3853C113.546 52.3853 113.504 52.4064 113.461 52.4276C113.419 52.4487 113.377 52.4911 113.356 52.5335C113.335 52.5758 113.314 52.6181 113.314 52.6393V52.7028H112.891C112.891 52.6604 112.912 52.597 112.933 52.5123C112.954 52.4276 112.996 52.3429 113.06 52.2583C113.123 52.1736 113.187 52.089 113.271 52.0254C113.356 51.9619 113.483 51.9196 113.609 51.9196C113.715 51.9196 113.8 51.9408 113.863 51.9619C113.926 51.9831 114.011 52.0254 114.074 52.0678C114.138 52.1101 114.201 52.1313 114.265 52.1736C114.328 52.1948 114.413 52.216 114.476 52.216C114.539 52.216 114.624 52.1948 114.666 52.1736C114.708 52.1525 114.751 52.1101 114.772 52.0678C114.793 52.0254 114.814 51.9831 114.814 51.9619V51.8984H115.237C115.237 51.9196 115.216 51.9831 115.195 52.0678C115.173 52.1525 115.131 52.2371 115.068 52.3218C115.004 52.4064 114.941 52.4911 114.835 52.5546C114.793 52.6393 114.666 52.6816 114.518 52.6816Z" fill="#F6F6F6"/>
<path fill-rule="evenodd" clip-rule="evenodd" d="M120.139 58.0992C119.801 58.0992 119.484 58.0357 119.209 57.8876C118.935 57.7394 118.681 57.5701 118.491 57.3373C118.279 57.1044 118.132 56.8504 118.026 56.5541C117.92 56.2578 117.857 55.9614 117.857 55.6652C117.857 55.3477 117.92 55.0513 118.026 54.755C118.153 54.4587 118.3 54.2047 118.512 53.9719C118.723 53.739 118.956 53.5697 119.23 53.4427C119.505 53.3157 119.822 53.2522 120.139 53.2522C120.477 53.2522 120.795 53.3157 121.069 53.4639C121.344 53.612 121.598 53.7813 121.788 54.0142C121.978 54.2471 122.147 54.501 122.253 54.7974C122.359 55.0937 122.422 55.39 122.422 55.6863C122.422 56.0039 122.359 56.3001 122.253 56.5965C122.147 56.8928 121.978 57.1468 121.767 57.3585C121.556 57.5701 121.323 57.7606 121.027 57.8876C120.773 58.0357 120.477 58.0992 120.139 58.0992ZM118.639 55.6863C118.639 55.9191 118.681 56.1308 118.745 56.3424C118.808 56.5541 118.913 56.7446 119.04 56.8928C119.167 57.0621 119.336 57.1891 119.526 57.2738C119.717 57.3796 119.928 57.422 120.16 57.422C120.393 57.422 120.626 57.3796 120.795 57.2738C120.985 57.1679 121.133 57.041 121.26 56.8717C121.386 56.7023 121.492 56.5118 121.556 56.3213C121.619 56.1097 121.661 55.898 121.661 55.6863C121.661 55.4535 121.619 55.2418 121.556 55.0301C121.492 54.8185 121.386 54.628 121.26 54.4799C121.133 54.3106 120.964 54.1835 120.773 54.0988C120.583 53.993 120.372 53.9507 120.16 53.9507C119.928 53.9507 119.696 53.993 119.505 54.0988C119.315 54.2047 119.167 54.3317 119.019 54.501C118.871 54.6703 118.787 54.8397 118.723 55.0513C118.66 55.263 118.639 55.4746 118.639 55.6863Z" fill="#F6F6F6"/>
<path fill-rule="evenodd" clip-rule="evenodd" d="M108.298 58.1136C107.994 58.1033 107.716 58.0312 107.459 57.8973C107.181 57.7531 106.939 57.5677 106.739 57.3359C106.538 57.1041 106.384 56.8414 106.271 56.5478C106.158 56.2542 106.101 55.9555 106.101 55.6465C106.101 55.3581 106.153 55.0748 106.255 54.7863C106.358 54.503 106.513 54.2455 106.708 54.0189C106.909 53.7922 107.15 53.6069 107.438 53.4677C107.727 53.3287 108.05 53.2566 108.416 53.2566C108.853 53.2566 109.224 53.3545 109.532 53.545C109.841 53.7356 110.077 53.9879 110.231 54.297L109.639 54.6936C109.573 54.5494 109.49 54.4309 109.398 54.3279C109.305 54.23 109.202 54.1528 109.09 54.091C108.976 54.0343 108.864 53.9931 108.739 53.9674C108.616 53.9416 108.504 53.9313 108.39 53.9313C108.138 53.9313 107.916 53.9828 107.732 54.0807C107.541 54.1837 107.387 54.3176 107.258 54.4825C107.13 54.6472 107.032 54.8326 106.97 55.0439C106.904 55.2499 106.873 55.4559 106.873 55.6619C106.873 55.8937 106.909 56.1152 106.986 56.3263C107.063 56.5375 107.171 56.723 107.305 56.8877C107.444 57.0475 107.603 57.1762 107.793 57.2741C107.984 57.3719 108.19 57.4183 108.41 57.4183C108.529 57.4183 108.647 57.4028 108.77 57.3771C108.894 57.3462 109.013 57.2998 109.125 57.238C109.239 57.171 109.347 57.0886 109.439 56.9908C109.537 56.8929 109.614 56.7745 109.676 56.6354L110.304 56.9908C110.226 57.171 110.118 57.3308 109.979 57.4646C109.841 57.6037 109.681 57.717 109.511 57.8097C109.336 57.9025 109.151 57.9745 108.956 58.026C108.848 58.0518 108.735 58.0724 108.627 58.0879C108.842 58.3815 109.187 58.7008 108.981 59.1025C108.693 59.6691 107.804 59.3755 107.526 59.2519L107.711 58.8295C107.711 58.8295 108.215 59.2004 108.55 58.9532C108.884 58.7266 108.544 58.4484 108.298 58.1136Z" fill="#F6F6F6"/>
<path fill-rule="evenodd" clip-rule="evenodd" d="M0.972412 25.2058H12.2978V45.5433H0.972412V25.2058Z" fill="#D1D1D1"/>
<path fill-rule="evenodd" clip-rule="evenodd" d="M0.972412 13.1223H12.2978V26.1119H0.972412V13.1223Z" fill="#E7E7E7"/>
<path fill-rule="evenodd" clip-rule="evenodd" d="M25.5896 13.1199L38.1967 32.5523H25.5896V13.1199Z" fill="#D1D1D1"/>
</g>
<defs>
<clipPath id="clip0_1963_25749">
<rect width="132.973" height="60" fill="white" transform="translate(0.9729)"/>
</clipPath>
</defs>
</svg>
