<svg width="80" height="27" viewBox="0 0 80 27" fill="none" xmlns="http://www.w3.org/2000/svg">
<path d="M46.8441 0.319336L26.639 16.3748L18.5572 9.71186L2.82971 23.1459H61.74L61.4377 21.5351L79.2214 21.8689L64.8662 8.51047L58.9674 12.4426L46.8441 0.319336Z" fill="white"/>
<path d="M7.67586 19.0056L6.4163 22.2621L5.77893 20.6269L0.343018 25.2696L5.06484 25.7534L5.39981 25.7872L7.88747 26.0419L7.88631 26.0374L13.0536 26.5584L33.9694 25.1651L30.3651 20.5514L20.6993 21.7249L7.67586 19.0056Z" fill="white"/>
<path d="M18.5568 9.71191L18.9936 13.0977L20.9038 14.1822L21.4251 20.9397L26.639 16.3743" fill="#001A1F"/>
<path d="M46.8446 0.319092L47.8549 6.02579L51.4318 7.7733L50.6672 11.7598L52.797 13.1523L52.524 17.1661L58.9679 12.4424" fill="#001A1F"/>
<path d="M64.8661 8.5105L65.8488 14.5175L68.3063 17.6844L70.7091 17.5762L72.4292 20.4431L76.2788 20.4698L77.9849 21.5281L78.8584 21.5304L64.8661 8.5105Z" fill="#001A1F"/>
</svg>
