<svg width="119" height="60" viewBox="0 0 119 60" fill="none" xmlns="http://www.w3.org/2000/svg">
<g clip-path="url(#clip0_1963_25803)">
<path d="M25.7528 55.4137H26.8836L28.4458 59.9641H27.3703L27.0192 58.9434H25.6063L25.2579 59.9641H24.1824L25.7528 55.4137ZM26.8478 58.2214L26.314 56.4732L25.7722 58.2214H26.8478ZM31.4541 59.9641V55.4137H32.5048V59.0402H34.7084V59.9641H31.4541ZM37.7609 59.9641V55.4137H39.4586C39.8236 55.4137 40.1499 55.4719 40.4429 55.5907C40.7333 55.7097 40.9711 55.8729 41.1563 56.0776C41.3415 56.2879 41.4825 56.5286 41.5821 56.7969C41.6761 57.0707 41.7259 57.364 41.7259 57.682C41.7259 58.3708 41.5185 58.9213 41.1065 59.3389C40.6917 59.7539 40.1443 59.9641 39.4586 59.9641H37.7609ZM39.4586 56.3376H38.8116V59.0402H39.4586C39.8346 59.0402 40.1277 58.9158 40.3406 58.664C40.5536 58.4123 40.6586 58.0859 40.6586 57.682C40.6586 57.2754 40.5507 56.9517 40.3379 56.7056C40.125 56.4594 39.8319 56.3376 39.4586 56.3376ZM44.9055 59.9641V55.4137H45.9562V59.9641H44.9055ZM49.3847 59.9641V55.4137H51.4364C51.7128 55.4137 51.9672 55.4912 52.1967 55.6406C52.4289 55.7927 52.6087 55.9864 52.733 56.2215C52.8602 56.4539 52.9238 56.6972 52.9238 56.9517C52.9238 57.2284 52.8548 57.4857 52.7221 57.7235C52.5865 57.9641 52.4068 58.144 52.1801 58.2712L53.1783 59.9641H52.0198L51.146 58.4953H50.4354V59.9641H49.3847ZM50.4354 57.5797H51.3976C51.5248 57.5797 51.6327 57.5188 51.7211 57.3999C51.8095 57.2837 51.8538 57.1316 51.8538 56.9517C51.8538 56.7747 51.8041 56.6281 51.7045 56.5119C51.605 56.3958 51.4916 56.3376 51.3672 56.3376H50.4354V57.5797ZM62.5071 59.9641H60.2897V55.4137H62.8195C63.0242 55.4137 63.2067 55.4719 63.3698 55.588C63.5329 55.7042 63.6546 55.8509 63.7348 56.0251C63.8177 56.1994 63.8564 56.3847 63.8564 56.5811C63.8564 56.8051 63.7984 57.0126 63.685 57.2035C63.5689 57.3999 63.4086 57.541 63.2039 57.6322C63.4693 57.7125 63.6767 57.848 63.826 58.0471C63.9726 58.2463 64.0472 58.4925 64.0472 58.794C64.0472 59.0486 63.9753 59.2643 63.8343 59.4441C63.6932 59.6238 63.508 59.7539 63.2786 59.8369C63.0518 59.9198 62.7919 59.9641 62.5071 59.9641ZM61.3403 56.3127V57.2533H62.3717C62.4933 57.2533 62.5984 57.2117 62.6841 57.1316C62.7698 57.0486 62.8141 56.9296 62.8141 56.7775C62.8141 56.6336 62.7753 56.5175 62.6979 56.4372C62.6232 56.3543 62.5265 56.3127 62.4076 56.3127H61.3403ZM62.5486 58.0804H61.3403V59.0706H62.5071C62.6427 59.0706 62.7559 59.0264 62.8444 58.9351C62.9329 58.8438 62.9771 58.7276 62.9771 58.5866C62.9771 58.4455 62.9384 58.3238 62.8555 58.227C62.7754 58.1302 62.6703 58.0804 62.5486 58.0804ZM67.2269 59.9641V55.4137H68.2776V59.0402H70.484V59.9641H67.2269ZM74.684 55.4137H75.8148L77.377 59.9641H76.3014L75.9475 58.9434H74.5374L74.189 59.9641H73.1134L74.684 55.4137ZM75.7788 58.2214L75.2452 56.4732L74.7005 58.2214H75.7788ZM81.4358 57.364V59.9641H80.3852V55.4137H81.2204L83.3246 58.0914V55.4137H84.3722V59.9641H83.5177L81.4358 57.364ZM89.8192 55.3916C90.2368 55.3916 90.6016 55.4801 90.9226 55.6599C91.2407 55.8398 91.4784 56.0776 91.6359 56.3819L90.8281 56.9463C90.7784 56.83 90.7123 56.7304 90.6351 56.6447C90.5548 56.5589 90.4685 56.4953 90.375 56.451C90.2785 56.4068 90.184 56.3736 90.0905 56.3543C89.993 56.3349 89.8964 56.3266 89.7969 56.3266C89.6394 56.3266 89.4981 56.3515 89.3661 56.4041C89.2329 56.4566 89.1222 56.5257 89.0308 56.6143C88.9373 56.7028 88.8621 56.8051 88.7991 56.9241C88.7351 57.0402 88.6883 57.1647 88.6579 57.2948C88.6243 57.422 88.6111 57.552 88.6111 57.6903C88.6111 57.931 88.6609 58.155 88.7574 58.3653C88.854 58.5727 88.9952 58.7415 89.1801 58.8715C89.363 59.0015 89.5733 59.0651 89.808 59.0651C89.9462 59.0651 90.0763 59.0457 90.2012 59.007C90.3283 58.9656 90.4471 58.8964 90.566 58.7995C90.6818 58.7055 90.7702 58.5838 90.8281 58.4399L91.6826 58.9434C91.5993 59.1592 91.451 59.3473 91.2427 59.5132C91.0354 59.6765 90.8038 59.7981 90.5518 59.8784C90.2978 59.9614 90.0407 60.0001 89.7837 60.0001C89.4656 60.0001 89.1639 59.9336 88.8794 59.7981C88.5969 59.6626 88.3591 59.4828 88.1661 59.2643C87.972 59.043 87.8206 58.7913 87.7099 58.5091C87.5991 58.227 87.5433 57.9392 87.5433 57.6516C87.5433 57.4303 87.5737 57.209 87.6408 56.9932C87.7038 56.7775 87.8003 56.5728 87.9334 56.3792C88.0665 56.1855 88.2179 56.0168 88.3978 55.8702C88.5776 55.7235 88.791 55.6074 89.0369 55.5189C89.2797 55.4332 89.5428 55.3916 89.8192 55.3916Z" fill="#F6F6F6"/>
<path d="M111.895 29.0871C113.51 27.209 114.491 24.772 114.491 22.0999C114.491 16.241 109.794 11.486 103.963 11.3781V11.3919H102.856H98.8276V11.3699H90.5417V30.7413L96.7457 41.1947V41.2057L101.809 49.7228H103.963H104.286H107.762C113.687 49.7228 118.489 44.9207 118.489 38.9928C118.489 34.531 115.769 30.7081 111.895 29.0871Z" fill="#E7E7E7"/>
<path d="M60.075 40.0551L54.3267 49.7256H77.129H99.9291L77.129 11.3699L71.3725 21.0514C71.3752 21.0514 71.3807 21.0514 71.3835 21.0514H71.3697L60.0804 40.044L60.075 40.0551Z" fill="#D1D1D1"/>
<path d="M88.7321 49.7268C88.7321 43.3148 83.5371 38.1172 77.1303 38.1172C70.7211 38.1172 65.5259 43.3148 65.5259 49.7268H88.7321Z" fill="#888888"/>
<path d="M11.6708 50.0442H0.46167V11.6885H11.6708V50.0442Z" fill="#888888"/>
<path d="M63.7617 30.7015V11.6094H52.4558V49.7189L63.7617 30.7015Z" fill="#888888"/>
<path d="M118.488 39.0019C118.488 33.1404 113.793 28.3854 107.962 28.2803V28.2913H107.948V28.2803H101.793V49.7486H105.774V49.7596H107.948V49.7486C112.836 49.6656 116.917 46.3102 118.12 41.7764C118.128 41.7432 118.137 41.71 118.145 41.6741C118.209 41.4307 118.264 41.1818 118.31 40.93C118.33 40.8166 118.344 40.7032 118.36 40.5897C118.391 40.3934 118.421 40.1997 118.44 40.0006C118.466 39.7295 118.477 39.4528 118.482 39.1763C118.482 39.1265 118.488 39.0767 118.488 39.0241C118.488 39.0213 118.488 39.0186 118.488 39.013C118.488 39.0103 118.488 39.0048 118.488 39.0019Z" fill="#B0B0B0"/>
<path d="M107.948 28.2795V28.2905H107.962V28.2795C109.363 28.3044 110.701 28.6003 111.923 29.1149C112.966 27.9032 113.743 26.4593 114.166 24.8659C114.174 24.8328 114.183 24.7996 114.191 24.7664C114.254 24.5202 114.31 24.2713 114.357 24.0196C114.376 23.9061 114.39 23.7927 114.407 23.6793C114.437 23.4856 114.468 23.2892 114.487 23.0901C114.511 22.819 114.523 22.5452 114.529 22.2658C114.529 22.216 114.534 22.1662 114.534 22.1137C114.534 22.1108 114.534 22.1081 114.534 22.1026C114.534 22.0999 114.534 22.0943 114.534 22.0915C114.534 16.23 109.839 11.4749 104.007 11.3699V11.3808H102.902H101.793L101.815 28.2795H107.948Z" fill="#D1D1D1"/>
<path d="M27.0591 11.6094V15.0118V29.4152V49.7245H38.3649V11.6094H27.0591Z" fill="#E7E7E7"/>
<path d="M6.89502 5.8754V1.32503H8.77512C9.02395 1.32503 9.25621 1.39697 9.46633 1.53799C9.6793 1.67912 9.84237 1.85886 9.95851 2.07741C10.0719 2.29322 10.1272 2.52 10.1272 2.75786C10.1272 3.00689 10.0746 3.23926 9.96684 3.45771C9.85904 3.67627 9.70135 3.85326 9.49956 3.9888C9.29493 4.12719 9.06825 4.19628 8.81657 4.19628H7.34289V5.8754H6.89502ZM7.34289 3.79799H8.79727C9.05717 3.79799 9.27003 3.69567 9.43321 3.49094C9.59629 3.28621 9.6793 3.04286 9.6793 2.75786C9.6793 2.47296 9.58806 2.22952 9.40557 2.02763C9.22309 1.82574 9.00738 1.72332 8.75581 1.72332H7.34289V3.79799ZM13.1326 3.60159C13.1326 3.30287 13.1908 3.01238 13.3013 2.73022C13.412 2.44807 13.5585 2.20462 13.7465 1.99166C13.9318 1.78144 14.1584 1.61267 14.4267 1.48546C14.6949 1.35825 14.9769 1.29455 15.2727 1.29455C15.5188 1.29455 15.7538 1.33885 15.9805 1.4246C16.2046 1.51036 16.4036 1.62934 16.5723 1.78144C16.7409 1.9308 16.8902 2.10231 17.0147 2.29871C17.1419 2.49511 17.2386 2.70533 17.3022 2.92937C17.3658 3.15351 17.3989 3.38029 17.3989 3.60707C17.3989 3.90589 17.3437 4.19628 17.2359 4.47569C17.1252 4.75511 16.9787 5.0013 16.7907 5.21152C16.6027 5.42174 16.376 5.5905 16.1105 5.71771C15.8423 5.84218 15.563 5.90578 15.2673 5.90578C14.9576 5.90578 14.67 5.83943 14.399 5.70664C14.1281 5.57658 13.9041 5.40517 13.7188 5.18937C13.5363 4.97356 13.3925 4.73021 13.2902 4.45354C13.1852 4.17698 13.1326 3.89482 13.1326 3.60159ZM15.2673 5.5019C15.5161 5.5019 15.7484 5.44663 15.964 5.33598C16.1768 5.22533 16.3566 5.08146 16.4976 4.90172C16.6414 4.72188 16.752 4.51999 16.8322 4.29311C16.9096 4.06633 16.9511 3.8367 16.9511 3.60159C16.9511 3.27239 16.8792 2.96534 16.7382 2.67495C16.5972 2.38721 16.3953 2.15484 16.1354 1.9751C15.8755 1.79526 15.5852 1.70676 15.2673 1.70676C15.0156 1.70676 14.7833 1.75929 14.5705 1.86994C14.3547 1.98058 14.1751 2.12446 14.0341 2.30145C13.8931 2.47855 13.7824 2.68044 13.7022 2.90732C13.6193 3.1341 13.5806 3.36647 13.5806 3.60159C13.5806 3.84778 13.6221 4.08563 13.705 4.31252C13.788 4.54489 13.9041 4.74403 14.0479 4.92103C14.1944 5.09528 14.3742 5.23641 14.587 5.34147C14.7971 5.44937 15.0239 5.5019 15.2673 5.5019ZM20.8026 5.8754V1.32503H21.2533V5.47701H23.8773V5.8754H20.8026ZM27.4661 0.705442L27.1786 0.594795L27.5546 0H28.0163L27.4661 0.705442ZM27.0956 5.8754V1.32503H27.5436V5.8754H27.0956ZM34.4642 1.72332H32.8467V5.8754H32.3988V1.72332H30.7786V1.32503H34.4642V1.72332ZM37.7047 5.8754V1.32503H38.1554V5.8754H37.7047ZM43.7074 1.30288C44.1 1.30288 44.4429 1.39422 44.7359 1.57396C45.0262 1.7538 45.2447 1.9944 45.3857 2.29322L45.0318 2.51167C44.9406 2.32086 44.8161 2.16042 44.6612 2.03596C44.5092 1.91149 44.3488 1.82574 44.1885 1.77595C44.0281 1.72891 43.8595 1.70676 43.6825 1.70676C43.4724 1.70676 43.2761 1.74273 43.0936 1.81192C42.9084 1.8866 42.7507 1.98333 42.618 2.10505C42.4853 2.22952 42.3719 2.37064 42.2779 2.53108C42.1812 2.69426 42.1092 2.86576 42.065 3.04561C42.0207 3.22534 41.9958 3.40793 41.9958 3.59326C41.9958 3.92794 42.0705 4.24332 42.2199 4.53381C42.3664 4.82704 42.5738 5.06216 42.8364 5.2419C43.0991 5.41899 43.3866 5.50749 43.699 5.50749C43.8788 5.50749 44.0558 5.47985 44.2272 5.42174C44.4013 5.36636 44.5673 5.27238 44.7276 5.14232C44.888 5.00953 45.0124 4.85194 45.1036 4.66376L45.4742 4.85468C45.3802 5.07323 45.2308 5.26405 45.0345 5.42722C44.8355 5.5905 44.6198 5.71212 44.3848 5.79239C44.1498 5.87266 43.912 5.91411 43.6741 5.91411C43.4337 5.91411 43.2041 5.86981 42.9802 5.78132C42.7563 5.69282 42.5599 5.57384 42.3885 5.41899C42.217 5.26679 42.0678 5.09254 41.9406 4.89339C41.8134 4.69699 41.7166 4.48403 41.6503 4.2544C41.5811 4.02762 41.5507 3.79799 41.5507 3.56836C41.5507 3.29179 41.5978 3.01797 41.6972 2.75237C41.7941 2.48404 41.9322 2.24343 42.112 2.02763C42.289 1.81192 42.5185 1.63482 42.7977 1.50202C43.0742 1.36933 43.3784 1.30288 43.7074 1.30288ZM50.1441 1.32503H50.5229L52.4114 5.8754H51.9358L51.3497 4.4508H49.3064L48.723 5.8754H48.2419L50.1441 1.32503ZM51.2446 4.09945L50.3294 1.85337L49.4004 4.09945H51.2446ZM60.0675 2.15209V5.8754H59.6169V1.32503H59.9873L62.9707 5.11743V1.33336H63.4214V5.8754H63.0066L60.0675 2.15209ZM68.5282 1.32503H68.907L70.7954 5.8754H70.3199L69.7338 4.4508H67.6932L67.1071 5.8754H66.6287L68.5282 1.32503ZM69.6314 4.09945L68.7134 1.85337L67.7845 4.09945H69.6314ZM75.6978 1.30288C76.0904 1.30288 76.4332 1.39422 76.7263 1.57396C77.0166 1.7538 77.235 1.9944 77.3761 2.29322L77.0221 2.51167C76.9308 2.32086 76.8065 2.16042 76.6516 2.03596C76.4968 1.91149 76.3392 1.82574 76.1788 1.77595C76.0184 1.72891 75.847 1.70676 75.6729 1.70676C75.4626 1.70676 75.2663 1.74273 75.0811 1.81192C74.8986 1.8866 74.7411 1.98333 74.6084 2.10505C74.4756 2.22952 74.3623 2.37064 74.2683 2.53108C74.1715 2.69426 74.0996 2.86576 74.0553 3.04561C74.0111 3.22534 73.9862 3.40793 73.9862 3.59326C73.9862 3.92794 74.0609 4.24332 74.2102 4.53381C74.3567 4.82704 74.564 5.06216 74.8268 5.2419C75.0894 5.41899 75.377 5.50749 75.6894 5.50749C75.8692 5.50749 76.0461 5.47985 76.2175 5.42174C76.3917 5.36636 76.5576 5.27238 76.718 5.14232C76.8783 5.00953 77.0028 4.85194 77.094 4.66376L77.4645 4.85468C77.3705 5.07323 77.2212 5.26405 77.0249 5.42722C76.8258 5.5905 76.6102 5.71212 76.3752 5.79239C76.1402 5.87266 75.9023 5.91411 75.6645 5.91411C75.4239 5.91411 75.1945 5.86981 74.9706 5.78132C74.7465 5.69282 74.5475 5.57384 74.3788 5.41899C74.2074 5.26679 74.0581 5.09254 73.931 4.89339C73.8037 4.69699 73.7069 4.48403 73.6406 4.2544C73.5715 4.02762 73.5411 3.79799 73.5411 3.56836C73.5411 3.29179 73.588 3.01797 73.6876 2.75237C73.7843 2.48404 73.9226 2.24343 74.1024 2.02763C74.2793 1.81192 74.5088 1.63482 74.7852 1.50202C75.0646 1.36933 75.3687 1.30288 75.6978 1.30288ZM80.791 5.8754V1.32503H81.2411V5.8754H80.791ZM84.6337 3.60159C84.6337 3.30287 84.6916 3.01238 84.8024 2.73022C84.9131 2.44807 85.0594 2.20462 85.2474 1.99166C85.4333 1.78144 85.6599 1.61267 85.9282 1.48546C86.1964 1.35825 86.4778 1.29455 86.7745 1.29455C87.0204 1.29455 87.2551 1.33885 87.4817 1.4246C87.7062 1.51036 87.9054 1.62934 88.074 1.78144C88.2427 1.9308 88.389 2.10231 88.516 2.29871C88.643 2.49511 88.7375 2.70533 88.8036 2.92937C88.8676 3.15351 88.9001 3.38029 88.9001 3.60707C88.9001 3.90589 88.8452 4.19628 88.7375 4.47569C88.6268 4.75511 88.4805 5.0013 88.2925 5.21152C88.1035 5.42174 87.8769 5.5905 87.6117 5.71771C87.3435 5.84218 87.0641 5.90578 86.7684 5.90578C86.4585 5.90578 86.171 5.83943 85.9007 5.70664C85.6294 5.57658 85.4059 5.40517 85.22 5.18937C85.0381 4.97356 84.8938 4.73021 84.7912 4.45354C84.6865 4.17698 84.6337 3.89482 84.6337 3.60159ZM86.7684 5.5019C87.0173 5.5019 87.25 5.44663 87.4654 5.33598C87.6778 5.22533 87.8556 5.08146 87.9989 4.90172C88.1431 4.72188 88.2529 4.51999 88.3311 4.29311C88.4114 4.06633 88.452 3.8367 88.452 3.60159C88.452 3.27239 88.3809 2.96534 88.2397 2.67495C88.0984 2.38721 87.8962 2.15484 87.6371 1.9751C87.377 1.79526 87.0834 1.70676 86.7684 1.70676C86.5164 1.70676 86.2848 1.75929 86.0714 1.86994C85.853 1.98058 85.6762 2.12446 85.5349 2.30145C85.3947 2.47855 85.284 2.68044 85.2037 2.90732C85.1204 3.1341 85.0818 3.36647 85.0818 3.60159C85.0818 3.84778 85.1234 4.08563 85.2068 4.31252C85.2891 4.54489 85.4059 4.74403 85.5492 4.92103C85.6955 5.09528 85.8753 5.23641 86.0856 5.34147C86.298 5.44937 86.5256 5.5019 86.7684 5.5019ZM92.755 2.15209V5.8754H92.3039V1.32503H92.6747L95.6578 5.11743V1.33336H96.109V5.8754H95.6934L92.755 2.15209ZM101.216 1.32503H101.597L103.482 5.8754H103.007L102.421 4.4508H100.38L99.7942 5.8754H99.3156L101.216 1.32503ZM102.318 4.09945L101.401 1.85337L100.472 4.09945H102.318ZM106.695 5.8754V1.32503H107.146V5.47701H109.77V5.8754H106.695Z" fill="#F6F6F6"/>
<path d="M52.4838 30.9588L40.8683 11.6094H38.3661V16.5996L38.3384 16.6549V30.1814L49.9539 49.7189L49.9567 49.7272L49.9623 49.7189H52.4562V45.4757L52.4838 45.4314V30.9588Z" fill="#B0B0B0"/>
<path d="M25.678 22.4232C25.678 16.5643 20.9832 11.8093 15.1519 11.7014V11.7125H14.0459H11.6902V33.1808H12.9648H13.0146H15.138V33.1725C20.0265 33.0867 24.1103 29.7341 25.3103 25.2003C25.3185 25.1644 25.3269 25.1312 25.3352 25.098C25.3988 24.8518 25.4568 24.6056 25.501 24.3511C25.5204 24.2405 25.5343 24.1243 25.5536 24.0109C25.5813 23.8173 25.6117 23.6236 25.631 23.4245C25.6559 23.1534 25.6669 22.8767 25.6725 22.5974C25.6725 22.5476 25.678 22.4978 25.678 22.4481C25.678 22.4425 25.678 22.4397 25.678 22.437C25.678 22.4314 25.678 22.4287 25.678 22.4232Z" fill="#D1D1D1"/>
</g>
<defs>
<clipPath id="clip0_1963_25803">
<rect width="118.028" height="60" fill="white" transform="translate(0.460205)"/>
</clipPath>
</defs>
</svg>
