<svg width="123" height="60" viewBox="0 0 123 60" fill="none" xmlns="http://www.w3.org/2000/svg">
<g clip-path="url(#clip0_1963_25727)">
<path d="M1.07769 50.445L4.01581 50.1594C4.19265 51.1455 4.54971 51.8699 5.08701 52.3323C5.6311 52.7948 6.36223 53.0261 7.2804 53.0261C8.25297 53.0261 8.9841 52.822 9.47379 52.414C9.97028 51.9991 10.2185 51.5162 10.2185 50.9653C10.2185 50.6116 10.1131 50.3124 9.90227 50.0675C9.69823 49.8159 9.33777 49.5983 8.82087 49.4146C8.46721 49.2922 7.66127 49.0746 6.40304 48.7617C4.78435 48.3604 3.64855 47.8673 2.99563 47.2824C2.07747 46.4595 1.61839 45.4563 1.61839 44.2729C1.61839 43.5112 1.83262 42.8004 2.2611 42.1407C2.69638 41.4742 3.31869 40.9675 4.12803 40.6207C4.94418 40.2738 5.92696 40.1004 7.07636 40.1004C8.9535 40.1004 10.3648 40.5118 11.3101 41.3348C12.2623 42.1577 12.7622 43.2561 12.8098 44.63L9.79005 44.7626C9.66083 43.9941 9.38198 43.4432 8.9535 43.1099C8.53182 42.7698 7.89591 42.5998 7.04576 42.5998C6.1684 42.5998 5.48148 42.78 4.98499 43.1405C4.66533 43.3717 4.5055 43.6812 4.5055 44.0689C4.5055 44.4225 4.65513 44.7252 4.95438 44.9768C5.33525 45.2965 6.26022 45.6297 7.72928 45.9766C9.19834 46.3235 10.2831 46.6839 10.9837 47.058C11.691 47.4253 12.2419 47.932 12.6364 48.5781C13.0376 49.2174 13.2383 50.0097 13.2383 50.9551C13.2383 51.8121 13.0002 52.6146 12.5241 53.3627C12.0481 54.1109 11.3747 54.6686 10.5042 55.0358C9.63362 55.3963 8.54883 55.5765 7.24979 55.5765C5.35906 55.5765 3.907 55.1412 2.89361 54.2707C1.88023 53.3933 1.27492 52.1181 1.07769 50.445ZM15.1664 47.9252C15.1664 46.4017 15.3943 45.1231 15.8499 44.0893C16.19 43.3275 16.6525 42.644 17.2374 42.0387C17.8291 41.4334 18.4752 40.9845 19.1757 40.6921C20.1075 40.2976 21.1821 40.1004 22.3995 40.1004C24.6031 40.1004 26.3646 40.7839 27.6841 42.1509C29.0103 43.518 29.6734 45.4189 29.6734 47.8537C29.6734 50.2682 29.0171 52.1589 27.7045 53.526C26.3918 54.8862 24.6371 55.5663 22.4403 55.5663C20.2163 55.5663 18.448 54.8896 17.1354 53.5362C15.8227 52.1759 15.1664 50.3056 15.1664 47.9252ZM18.278 47.8231C18.278 49.5166 18.669 50.8021 19.4512 51.6794C20.2333 52.55 21.2263 52.9853 22.4301 52.9853C23.6339 52.9853 24.6201 52.5534 25.3886 51.6896C26.164 50.8191 26.5516 49.5166 26.5516 47.7823C26.5516 46.0684 26.1742 44.7898 25.4192 43.9464C24.6711 43.1031 23.6747 42.6814 22.4301 42.6814C21.1855 42.6814 20.1823 43.1099 19.4206 43.9668C18.6588 44.817 18.278 46.1024 18.278 47.8231ZM31.9994 55.3113V40.3554H36.5188L39.2325 50.5572L41.9156 40.3554H46.4452V55.3113H43.6397V43.5384L40.671 55.3113H37.7635L34.8049 43.5384V55.3113H31.9994ZM48.8324 47.9252C48.8324 46.4017 49.0603 45.1231 49.516 44.0893C49.856 43.3275 50.3185 42.644 50.9034 42.0387C51.4951 41.4334 52.1412 40.9845 52.8418 40.6921C53.7735 40.2976 54.8481 40.1004 56.0655 40.1004C58.2691 40.1004 60.0306 40.7839 61.3501 42.1509C62.6763 43.518 63.3394 45.4189 63.3394 47.8537C63.3394 50.2682 62.6831 52.1589 61.3705 53.526C60.0578 54.8862 58.3031 55.5663 56.1063 55.5663C53.8823 55.5663 52.114 54.8896 50.8014 53.5362C49.4888 52.1759 48.8324 50.3056 48.8324 47.9252ZM51.944 47.8231C51.944 49.5166 52.3351 50.8021 53.1172 51.6794C53.8993 52.55 54.8923 52.9853 56.0961 52.9853C57.3 52.9853 58.2861 52.5534 59.0547 51.6896C59.83 50.8191 60.2177 49.5166 60.2177 47.7823C60.2177 46.0684 59.8402 44.7898 59.0853 43.9464C58.3371 43.1031 57.3408 42.6814 56.0961 42.6814C54.8515 42.6814 53.8483 43.1099 53.0866 43.9668C52.3249 44.817 51.944 46.1024 51.944 47.8231ZM64.9411 50.445L67.8792 50.1594C68.0561 51.1455 68.4131 51.8699 68.9504 52.3323C69.4945 52.7948 70.2257 53.0261 71.1438 53.0261C72.1164 53.0261 72.8475 52.822 73.3372 52.414C73.8337 51.9991 74.082 51.5162 74.082 50.9653C74.082 50.6116 73.9765 50.3124 73.7657 50.0675C73.5617 49.8159 73.2012 49.5983 72.6843 49.4146C72.3306 49.2922 71.5247 49.0746 70.2665 48.7617C68.6478 48.3604 67.512 47.8673 66.8591 47.2824C65.9409 46.4595 65.4818 45.4563 65.4818 44.2729C65.4818 43.5112 65.6961 42.8004 66.1245 42.1407C66.5598 41.4742 67.1821 40.9675 67.9915 40.6207C68.8076 40.2738 69.7904 40.1004 70.9398 40.1004C72.8169 40.1004 74.2282 40.5118 75.1736 41.3348C76.1257 42.1577 76.6256 43.2561 76.6732 44.63L73.6535 44.7626C73.5243 43.9941 73.2454 43.4432 72.8169 43.1099C72.3953 42.7698 71.7593 42.5998 70.9092 42.5998C70.0318 42.5998 69.3449 42.78 68.8484 43.1405C68.5288 43.3717 68.3689 43.6812 68.3689 44.0689C68.3689 44.4225 68.5186 44.7252 68.8178 44.9768C69.1987 45.2965 70.1236 45.6297 71.5927 45.9766C73.0618 46.3235 74.1466 46.6839 74.8471 47.058C75.5544 47.4253 76.1053 47.932 76.4998 48.5781C76.9011 49.2174 77.1017 50.0097 77.1017 50.9551C77.1017 51.8121 76.8637 52.6146 76.3876 53.3627C75.9115 54.1109 75.2382 54.6686 74.3676 55.0358C73.4971 55.3963 72.4123 55.5765 71.1132 55.5765C69.2225 55.5765 67.7704 55.1412 66.757 54.2707C65.7437 53.3933 65.1384 52.1181 64.9411 50.445ZM79.6317 40.3554H85.1509C86.3956 40.3554 87.3443 40.4506 87.9972 40.6411C88.8746 40.8995 89.6261 41.3586 90.2519 42.0183C90.8776 42.678 91.3536 43.4874 91.6801 44.4463C92.0066 45.3985 92.1698 46.5751 92.1698 47.9762C92.1698 49.2072 92.0168 50.2682 91.7107 51.1591C91.3366 52.2473 90.8027 53.1281 90.109 53.8014C89.5853 54.3115 88.878 54.7094 87.987 54.995C87.3205 55.2059 86.4296 55.3113 85.3142 55.3113H79.6317V40.3554ZM82.6515 42.8855V52.7914H84.9061C85.7494 52.7914 86.3582 52.7438 86.7322 52.6486C87.2219 52.5262 87.6266 52.3187 87.9462 52.0263C88.2727 51.7338 88.5379 51.2544 88.742 50.5878C88.946 49.9145 89.048 48.9997 89.048 47.8435C89.048 46.6873 88.946 45.7998 88.742 45.1809C88.5379 44.562 88.2523 44.0791 87.885 43.7322C87.5178 43.3853 87.0519 43.1507 86.4874 43.0283C86.0657 42.9331 85.2394 42.8855 84.0083 42.8855H82.6515ZM94.7407 55.3113V40.3554H105.83V42.8855H97.7604V46.201H105.269V48.7209H97.7604V52.7914H106.116V55.3113H94.7407ZM112.492 55.3113L107.146 40.3554H110.421L114.206 51.4244L117.868 40.3554H121.072L115.716 55.3113H112.492Z" fill="#F6F6F6"/>
<path d="M66.6389 30.0375L77.5641 8.04419L66.6389 30.0375Z" fill="#E7E7E7"/>
<path d="M66.6389 30.0375L77.5641 8.04419" stroke="#B0B0B0" stroke-width="1.23605" stroke-linecap="square"/>
<path d="M56.073 18.4702L66.6412 30.0381L56.073 18.4702Z" fill="#E7E7E7"/>
<path d="M56.073 18.4702L66.6412 30.0381" stroke="#B0B0B0" stroke-width="1.03004" stroke-linecap="square"/>
<path d="M46.0027 26.6106L56.071 18.4702L46.0027 26.6106Z" fill="#E7E7E7"/>
<path d="M46.0027 26.6106L56.071 18.4702" stroke="#B0B0B0" stroke-width="0.824032" stroke-linecap="square"/>
<path d="M79.8074 2.56982H75.3255C73.5398 2.56982 72.0923 4.01738 72.0923 5.80303V10.285C72.0923 12.0706 73.5398 13.5182 75.3255 13.5182H79.8074C81.5931 13.5182 83.0407 12.0706 83.0407 10.285V5.80303C83.0407 4.01738 81.5931 2.56982 79.8074 2.56982Z" fill="#B0B0B0"/>
<path d="M68.4705 25.563H64.8071C63.3475 25.563 62.1643 26.7462 62.1643 28.2058V31.8692C62.1643 33.3288 63.3475 34.512 64.8071 34.512H68.4705C69.9301 34.512 71.1133 33.3288 71.1133 31.8692V28.2058C71.1133 26.7462 69.9301 25.563 68.4705 25.563Z" fill="#B0B0B0"/>
<path d="M57.9046 13.9956H54.2412C52.7816 13.9956 51.5984 15.1788 51.5984 16.6384V20.3018C51.5984 21.7614 52.7816 22.9446 54.2412 22.9446H57.9046C59.3642 22.9446 60.5474 21.7614 60.5474 20.3018V16.6384C60.5474 15.1788 59.3642 13.9956 57.9046 13.9956Z" fill="#B0B0B0"/>
<path d="M47.3383 23.3501H44.6687C43.6051 23.3501 42.7429 24.2123 42.7429 25.2759V27.9455C42.7429 29.009 43.6051 29.8713 44.6687 29.8713H47.3383C48.4019 29.8713 49.2641 29.009 49.2641 27.9455V25.2759C49.2641 24.2123 48.4019 23.3501 47.3383 23.3501Z" fill="#B0B0B0"/>
<path d="M52.7622 7.3938H50.7541C49.954 7.3938 49.3054 8.04237 49.3054 8.84243V10.8506C49.3054 11.6506 49.954 12.2992 50.7541 12.2992H52.7622C53.5623 12.2992 54.2108 11.6506 54.2108 10.8506V8.84243C54.2108 8.04237 53.5623 7.3938 52.7622 7.3938Z" fill="#B0B0B0"/>
<path d="M67.3037 12.3423H64.5928C63.5128 12.3423 62.6372 13.2178 62.6372 14.2979V17.0088C62.6372 18.0889 63.5128 18.9644 64.5928 18.9644H67.3037C68.3838 18.9644 69.2593 18.0889 69.2593 17.0088V14.2979C69.2593 13.2178 68.3838 12.3423 67.3037 12.3423Z" fill="#B0B0B0"/>
<path d="M61.6477 2.13135H57.826C56.3034 2.13135 55.0691 3.36567 55.0691 4.88828V8.71001C55.0691 10.2326 56.3034 11.4669 57.826 11.4669H61.6477C63.1704 11.4669 64.4047 10.2326 64.4047 8.71001V4.88828C64.4047 3.36567 63.1704 2.13135 61.6477 2.13135Z" fill="#D1D1D1"/>
<path d="M47.4722 11.4858H44.7905C43.7221 11.4858 42.856 12.352 42.856 13.4204V16.102C42.856 17.1705 43.7221 18.0366 44.7905 18.0366H47.4722C48.5406 18.0366 49.4067 17.1705 49.4067 16.102V13.4204C49.4067 12.352 48.5406 11.4858 47.4722 11.4858Z" fill="#D1D1D1"/>
<path d="M50.748 0.91748H48.9433C48.2242 0.91748 47.6414 1.50036 47.6414 2.21938V4.02411C47.6414 4.74313 48.2242 5.32601 48.9433 5.32601H50.748C51.467 5.32601 52.0499 4.74313 52.0499 4.02411V2.21938C52.0499 1.50036 51.467 0.91748 50.748 0.91748Z" fill="#D1D1D1"/>
<path d="M56.3979 26.9097H53.7163C52.6479 26.9097 51.7817 27.7758 51.7817 28.8442V31.5259C51.7817 32.5943 52.6479 33.4604 53.7163 33.4604H56.3979C57.4663 33.4604 58.3325 32.5943 58.3325 31.5259V28.8442C58.3325 27.7758 57.4663 26.9097 56.3979 26.9097Z" fill="#D1D1D1"/>
<path d="M79.8823 16.1975H78.0775C77.3585 16.1975 76.7756 16.7804 76.7756 17.4994V19.3041C76.7756 20.0232 77.3585 20.606 78.0775 20.606H79.8823C80.6013 20.606 81.1842 20.0232 81.1842 19.3041V17.4994C81.1842 16.7804 80.6013 16.1975 79.8823 16.1975Z" fill="#D1D1D1"/>
<path d="M80.0806 24.1997H75.921C74.2638 24.1997 72.9204 25.5431 72.9204 27.2003V31.3599C72.9204 33.0171 74.2638 34.3605 75.921 34.3605H80.0806C81.7378 34.3605 83.0812 33.0171 83.0812 31.3599V27.2003C83.0812 25.5431 81.7378 24.1997 80.0806 24.1997Z" fill="#E7E7E7"/>
<path d="M69.2311 4.27783H67.0594C66.1941 4.27783 65.4927 4.97926 65.4927 5.84452V8.01629C65.4927 8.88155 66.1941 9.58297 67.0594 9.58297H69.2311C70.0964 9.58297 70.7978 8.88155 70.7978 8.01629V5.84452C70.7978 4.97926 70.0964 4.27783 69.2311 4.27783Z" fill="#E7E7E7"/>
<path d="M44.2545 3.63501H42.6966C42.0759 3.63501 41.5728 4.13817 41.5728 4.75886V6.31676C41.5728 6.93744 42.0759 7.44061 42.6966 7.44061H44.2545C44.8752 7.44061 45.3784 6.93744 45.3784 6.31676V4.75886C45.3784 4.13817 44.8752 3.63501 44.2545 3.63501Z" fill="#E7E7E7"/>
</g>
<defs>
<clipPath id="clip0_1963_25727">
<rect width="121.545" height="60" fill="white" transform="translate(0.639648)"/>
</clipPath>
</defs>
</svg>
