<svg width="136" height="80" viewBox="0 0 136 80" fill="none" xmlns="http://www.w3.org/2000/svg">
<path d="M10.6423 65.7725V67.3754H6.28879V79.0064H4.35347V67.3754H0V65.7725H10.6423Z" fill="white"/>
<path d="M17.8323 79.289C16.9275 79.289 16.1404 79.1574 15.475 78.8902C14.8096 78.6231 14.2619 78.2553 13.8359 77.7906C13.4099 77.326 13.0934 76.7762 12.8905 76.1412C12.6836 75.5024 12.5781 74.8171 12.5781 74.0776V65.7725H14.5175V73.8685C14.5175 75.1926 14.8218 76.1528 15.4345 76.753C16.0471 77.3492 16.8464 77.6474 17.8323 77.6474C18.3232 77.6474 18.7736 77.5738 19.1793 77.4306C19.5851 77.2834 19.934 77.055 20.2261 76.753C20.5182 76.4471 20.7454 76.0561 20.9077 75.576C21.066 75.0997 21.1471 74.5306 21.1471 73.8685V65.7725H23.0824V74.0776C23.0824 74.8171 22.981 75.5024 22.7741 76.1412C22.5672 76.7762 22.2466 77.326 21.8166 77.7906C21.3824 78.2553 20.8347 78.6231 20.1774 78.8902C19.5201 79.1574 18.7371 79.289 17.8323 79.289Z" fill="white"/>
<path d="M33.1855 73.4656C33.4006 73.7211 33.6683 74.0541 33.997 74.4684C34.3216 74.8827 34.6583 75.3395 35.0032 75.8429C35.3521 76.3462 35.6929 76.8728 36.0337 77.4187C36.3705 77.9685 36.6626 78.4951 36.902 79.0062H34.7841C34.5163 78.5222 34.2282 78.0305 33.9158 77.5349C33.6034 77.0393 33.2869 76.563 32.9664 76.11C32.6459 75.6609 32.3335 75.235 32.017 74.8401C31.7046 74.4452 31.4247 74.1044 31.1691 73.8102C30.9986 73.8218 30.8201 73.8295 30.6416 73.8295C30.4631 73.8295 30.2765 73.8295 30.0939 73.8295H28.3533V79.0062H26.418V65.962C26.9616 65.8342 27.5743 65.749 28.2437 65.7025C28.9173 65.66 29.534 65.6367 30.0939 65.6367C32.0373 65.6367 33.5182 65.9891 34.5366 66.686C35.555 67.3868 36.0621 68.4322 36.0621 69.8183C36.0621 70.6972 35.8187 71.4483 35.3318 72.0717C34.849 72.6951 34.1309 73.1597 33.1855 73.4656ZM30.2521 67.259C29.4244 67.259 28.7955 67.2784 28.3533 67.3171V72.3001H29.7328C30.3982 72.3001 30.9986 72.2692 31.5301 72.2072C32.0617 72.1414 32.512 72.0214 32.8772 71.8433C33.2423 71.6652 33.5263 71.4135 33.7251 71.0883C33.9239 70.763 34.0254 70.3333 34.0254 69.7989C34.0254 69.3033 33.9239 68.8891 33.7251 68.56C33.5263 68.227 33.2585 67.9676 32.9177 67.774C32.5769 67.5843 32.1793 67.4526 31.7208 67.3752C31.2583 67.2977 30.7714 67.259 30.2521 67.259Z" fill="white"/>
<path d="M38.9766 65.7725H40.9132V79.0064H38.9766V65.7725Z" fill="white"/>
<path d="M47.5614 77.6853C49.586 77.6853 50.5962 77.0233 50.5962 75.6991C50.5962 75.2925 50.507 74.9441 50.3244 74.6576C50.1459 74.3711 49.9024 74.1232 49.5981 73.9142C49.2898 73.7051 48.9409 73.5231 48.5514 73.3721C48.1578 73.2172 47.7399 73.0662 47.3017 72.9114C46.7946 72.7449 46.3158 72.559 45.8654 72.3499C45.411 72.137 45.0175 71.8892 44.6848 71.6027C44.3521 71.3162 44.0883 70.9755 43.8977 70.5805C43.7029 70.1895 43.6055 69.7094 43.6055 69.1518C43.6055 67.9903 44.0194 67.0881 44.8471 66.4377C45.6707 65.7911 46.8067 65.4658 48.2592 65.4658C49.0991 65.4658 49.8619 65.551 50.5475 65.7214C51.2332 65.8956 51.7323 66.0814 52.0528 66.2866L51.4361 67.7928C51.1561 67.6302 50.7382 67.4676 50.1864 67.3088C49.6347 67.1501 48.9936 67.0688 48.2592 67.0688C47.886 67.0688 47.5411 67.1075 47.2206 67.1849C46.9 67.2585 46.6241 67.3746 46.3807 67.5256C46.1413 67.6805 45.9547 67.8741 45.8127 68.1103C45.6747 68.3465 45.6058 68.6214 45.6058 68.9389C45.6058 69.2951 45.6788 69.5971 45.8249 69.8371C45.9709 70.0811 46.1778 70.294 46.4416 70.476C46.7093 70.6618 47.0177 70.8322 47.3707 70.9832C47.7237 71.1381 48.1132 71.2891 48.5392 71.4401C49.1397 71.6724 49.6874 71.9008 50.1864 72.1293C50.6855 72.3577 51.1196 72.6326 51.4848 72.9501C51.8499 73.2676 52.1339 73.647 52.3327 74.0845C52.5316 74.5259 52.633 75.0564 52.633 75.6797C52.633 76.8413 52.1907 77.7318 51.3063 78.3552C50.4177 78.9785 49.1721 79.2883 47.5614 79.2883C47.0136 79.2883 46.5105 79.2534 46.0521 79.1837C45.5936 79.1141 45.1838 79.0327 44.8268 78.9359C44.4657 78.843 44.1573 78.7385 43.8977 78.6301C43.638 78.5217 43.4351 78.4326 43.2891 78.3552L43.8652 76.8258C44.1735 76.9923 44.6401 77.1781 45.265 77.3795C45.8898 77.5847 46.6566 77.6853 47.5614 77.6853Z" fill="white"/>
<path d="M58.5266 65.7725C58.766 66.1906 59.0419 66.7094 59.3584 67.3289C59.6708 67.9446 59.9954 68.6144 60.3362 69.3307C60.6811 70.0508 61.0137 70.7865 61.3464 71.5376C61.6832 72.2888 61.9956 72.9973 62.2877 73.6594C62.5839 72.9973 62.9004 72.2888 63.2331 71.5376C63.5658 70.7865 63.9025 70.0508 64.2434 69.3307C64.5842 68.6144 64.9087 67.9446 65.2212 67.3289C65.5376 66.7094 65.8135 66.1906 66.0529 65.7725H68.8889C69.0228 66.6514 69.1445 67.6348 69.2581 68.7228C69.3718 69.8108 69.4732 70.9414 69.5584 72.1223C69.6436 73.2993 69.7247 74.4802 69.7978 75.6611C69.8708 76.8459 69.9357 77.961 69.9885 79.0064H66.9536C66.913 77.7171 66.8603 76.3193 66.7913 74.8016C66.7264 73.2877 66.625 71.7622 66.4911 70.2212C66.2517 70.7555 65.988 71.3479 65.6918 71.9945C65.3997 72.645 65.1075 73.2954 64.8195 73.9459C64.5314 74.5925 64.2555 75.2159 63.9918 75.8044C63.72 76.3968 63.4928 76.904 63.3061 77.326H61.1314C60.9448 76.904 60.7176 76.3968 60.4498 75.8044C60.182 75.2159 59.9061 74.5925 59.6221 73.9459C59.33 73.2954 59.0419 72.645 58.7498 71.9945C58.4577 71.3479 58.1858 70.7555 57.9464 70.2212C57.8125 71.7622 57.7152 73.2877 57.6462 74.8016C57.5813 76.3193 57.5286 77.7171 57.488 79.0064H54.4531C54.5059 77.961 54.5708 76.8459 54.6438 75.6611C54.7168 74.4802 54.7939 73.2993 54.8832 72.1223C54.9684 70.9414 55.0698 69.8108 55.1794 68.7228C55.293 67.6348 55.4188 66.6514 55.5486 65.7725H58.5266Z" fill="white"/>
<path d="M72.7617 79.0064V65.7725H82.1056V68.2737H75.8777V70.8678H81.4078V73.3148H75.8777V76.5013H82.5641V79.0064H72.7617Z" fill="white"/>
<path d="M94.1504 79.0064C93.2578 77.4886 92.2922 75.9941 91.2535 74.5189C90.2148 73.0399 89.1113 71.646 87.9387 70.3335V79.0064H84.8633V65.7725H87.3991C87.8413 66.1906 88.3241 66.7056 88.8597 67.3173C89.3912 67.9291 89.9349 68.5795 90.4867 69.2765C91.0385 69.9695 91.5862 70.6897 92.1339 71.4331C92.6776 72.1765 93.1929 72.8928 93.6716 73.582V65.7725H96.7673V79.0064H94.1504Z" fill="white"/>
<path d="M103.073 76.5784C103.219 76.59 103.389 76.6016 103.58 76.6093C103.775 76.6132 104.002 76.6171 104.27 76.6171C105.828 76.6171 106.984 76.2415 107.735 75.4904C108.485 74.7392 108.863 73.7016 108.863 72.3774C108.863 70.9913 108.502 69.9382 107.784 69.2257C107.065 68.5133 105.929 68.1571 104.371 68.1571C104.156 68.1571 103.937 68.161 103.71 68.1687C103.483 68.1726 103.272 68.1881 103.073 68.2152V76.5784ZM112.076 72.3774C112.076 73.5235 111.89 74.5224 111.52 75.3742C111.147 76.2299 110.616 76.9346 109.93 77.496C109.244 78.0574 108.408 78.4756 107.426 78.7543C106.441 79.037 105.337 79.1764 104.112 79.1764C103.552 79.1764 102.899 79.1531 102.152 79.1105C101.41 79.0641 100.675 78.9712 99.957 78.8318V65.9424C100.675 65.8146 101.426 65.7295 102.205 65.683C102.984 65.6404 103.649 65.6172 104.209 65.6172C105.394 65.6172 106.469 65.745 107.435 66.0005C108.4 66.256 109.228 66.6548 109.922 67.2008C110.611 67.7506 111.147 68.4514 111.52 69.3032C111.89 70.155 112.076 71.181 112.076 72.3774Z" fill="white"/>
<path d="M114.672 79.0064V65.7725H124.016V68.2737H117.788V70.8678H123.318V73.3148H117.788V76.5013H124.478V79.0064H114.672Z" fill="white"/>
<path d="M130.551 76.7329C130.99 76.7329 131.355 76.698 131.639 76.6245C131.927 76.5548 132.154 76.4618 132.328 76.3379C132.503 76.2179 132.621 76.0747 132.686 75.912C132.754 75.7456 132.787 75.5597 132.787 75.3545C132.787 74.9247 132.576 74.5646 132.15 74.2781C131.724 73.9916 130.99 73.6819 129.951 73.3527C129.501 73.1979 129.046 73.0236 128.596 72.8262C128.141 72.6287 127.736 72.3809 127.375 72.0828C127.017 71.7808 126.725 71.4207 126.498 70.9909C126.271 70.565 126.157 70.0462 126.157 69.4383C126.157 68.8266 126.279 68.2768 126.518 67.7851C126.758 67.2933 127.095 66.879 127.537 66.5345C127.975 66.1899 128.507 65.9266 129.131 65.7407C129.76 65.5588 130.466 65.4658 131.249 65.4658C132.182 65.4658 132.986 65.5588 133.667 65.7523C134.345 65.9421 134.905 66.1511 135.343 66.3796L134.446 68.7298C134.057 68.5401 133.631 68.3697 133.156 68.2226C132.686 68.0793 132.113 68.0057 131.448 68.0057C130.706 68.0057 130.17 68.1025 129.841 68.3C129.517 68.4975 129.354 68.7995 129.354 69.206C129.354 69.4499 129.411 69.6513 129.533 69.8178C129.651 69.9843 129.821 70.1353 130.04 70.2669C130.263 70.4024 130.515 70.5224 130.799 70.6308C131.087 70.7393 131.403 70.8515 131.748 70.9638C132.466 71.2194 133.095 71.471 133.627 71.7188C134.158 71.9666 134.601 72.257 134.954 72.5861C135.307 72.9191 135.57 73.3063 135.741 73.7515C135.915 74.1968 136 74.7389 136 75.3738C136 76.609 135.55 77.5692 134.645 78.2506C133.74 78.9321 132.373 79.2728 130.551 79.2728C129.939 79.2728 129.387 79.2341 128.892 79.1644C128.401 79.0947 127.967 79.0095 127.586 78.9088C127.204 78.8082 126.88 78.6998 126.608 78.5836C126.336 78.4675 126.105 78.359 125.918 78.2584L126.798 75.8927C127.208 76.1056 127.719 76.3031 128.324 76.4735C128.928 76.6438 129.671 76.7329 130.551 76.7329Z" fill="white"/>
<path d="M91.8111 31.3789C91.8111 45.0817 80.7028 56.19 67 56.19C53.2972 56.19 42.1889 45.0817 42.1889 31.3789C42.1889 17.6761 53.2972 6.5678 67 6.5678C80.7028 6.5678 91.8111 17.6761 91.8111 31.3789Z" fill="white" stroke="#111D26" stroke-width="0.377778"/>
<g filter="url(#filter0_d_657_1082)">
<path d="M82.3641 27.5332C82.3641 36.5305 67.7698 63.8841 67.3207 64.7351C66.8717 63.8841 52.2773 36.5305 52.2773 27.5332C52.2773 18.5359 59.0125 11.2422 67.3207 11.2422C75.629 11.2422 82.3641 18.5359 82.3641 27.5332Z" fill="#004854"/>
</g>
<path d="M79.218 26.1099C79.218 33.3811 69.451 54.8009 67.318 58.8996C65.2972 54.8009 55.418 33.3811 55.418 26.1099C55.418 18.8388 60.7458 12.9443 67.318 12.9443C73.8902 12.9443 79.218 18.8388 79.218 26.1099Z" fill="#111D26"/>
<ellipse cx="67.3175" cy="46.2557" rx="2.46981" ry="2.67465" fill="white"/>
<ellipse cx="67.3188" cy="25.8314" rx="9.65472" ry="10.4554" fill="white"/>
<path d="M74.2503 25.8804C74.2503 28.8745 73.4417 31.5681 72.1542 33.502C70.865 35.4387 69.1255 36.5773 67.2555 36.5773C65.3854 36.5773 63.6459 35.4387 62.3567 33.502C61.0692 31.5681 60.2606 28.8745 60.2606 25.8804C60.2606 22.8863 61.0692 20.1927 62.3567 18.2587C63.6459 16.3221 65.3854 15.1834 67.2555 15.1834C69.1255 15.1834 70.865 16.3221 72.1542 18.2587C73.4417 20.1927 74.2503 22.8863 74.2503 25.8804Z" fill="white" stroke="#111D26" stroke-width="0.755556"/>
<g filter="url(#filter1_d_657_1082)">
<path d="M74.7755 17.6556C73.9071 18.7763 72.8256 19.6764 71.6075 20.2952C70.3895 20.9139 69.0633 21.2372 67.7208 21.2439C66.3783 21.2506 65.0495 20.9406 63.8264 20.3341C62.6032 19.7276 61.5141 18.8384 60.6363 17.7266" stroke="#111D26" stroke-width="0.755556"/>
</g>
<g filter="url(#filter2_d_657_1082)">
<path d="M60.067 33.5956C60.8833 32.3231 61.9576 31.2743 63.2047 30.5285C64.4516 29.7828 65.8385 29.3595 67.2577 29.2895C68.6769 29.2195 70.0929 29.5047 71.3962 30.1241C72.6996 30.7437 73.8566 31.6816 74.7755 32.8676" stroke="#111D26" stroke-width="0.755556"/>
</g>
<line x1="66.952" y1="15.209" x2="66.952" y2="36.363" stroke="#111D26" stroke-width="0.755556"/>
<line x1="57.6523" y1="26.1066" x2="77.1863" y2="26.1066" stroke="#111D26" stroke-width="0.755556"/>
<defs>
<filter id="filter0_d_657_1082" x="52.2773" y="11.2422" width="36.1304" height="59.5376" filterUnits="userSpaceOnUse" color-interpolation-filters="sRGB">
<feFlood flood-opacity="0" result="BackgroundImageFix"/>
<feColorMatrix in="SourceAlpha" type="matrix" values="0 0 0 0 0 0 0 0 0 0 0 0 0 0 0 0 0 0 127 0" result="hardAlpha"/>
<feOffset dx="3.02222" dy="3.02222"/>
<feGaussianBlur stdDeviation="1.51111"/>
<feComposite in2="hardAlpha" operator="out"/>
<feColorMatrix type="matrix" values="0 0 0 0 0 0 0 0 0 0 0 0 0 0 0 0 0 0 0.5 0"/>
<feBlend mode="normal" in2="BackgroundImageFix" result="effect1_dropShadow_657_1082"/>
<feBlend mode="normal" in="SourceGraphic" in2="effect1_dropShadow_657_1082" result="shape"/>
</filter>
<filter id="filter1_d_657_1082" x="60.3398" y="17.4238" width="20.7788" height="10.2427" filterUnits="userSpaceOnUse" color-interpolation-filters="sRGB">
<feFlood flood-opacity="0" result="BackgroundImageFix"/>
<feColorMatrix in="SourceAlpha" type="matrix" values="0 0 0 0 0 0 0 0 0 0 0 0 0 0 0 0 0 0 127 0" result="hardAlpha"/>
<feOffset dx="3.02222" dy="3.02222"/>
<feGaussianBlur stdDeviation="1.51111"/>
<feComposite in2="hardAlpha" operator="out"/>
<feColorMatrix type="matrix" values="0 0 0 0 0 0 0 0 0 0 0 0 0 0 0 0 0 0 0.5 0"/>
<feBlend mode="normal" in2="BackgroundImageFix" result="effect1_dropShadow_657_1082"/>
<feBlend mode="normal" in="SourceGraphic" in2="effect1_dropShadow_657_1082" result="shape"/>
</filter>
<filter id="filter2_d_657_1082" x="55.9722" y="28.1458" width="21.3687" height="10.9429" filterUnits="userSpaceOnUse" color-interpolation-filters="sRGB">
<feFlood flood-opacity="0" result="BackgroundImageFix"/>
<feColorMatrix in="SourceAlpha" type="matrix" values="0 0 0 0 0 0 0 0 0 0 0 0 0 0 0 0 0 0 127 0" result="hardAlpha"/>
<feOffset dx="-0.755556" dy="2.26667"/>
<feGaussianBlur stdDeviation="1.51111"/>
<feComposite in2="hardAlpha" operator="out"/>
<feColorMatrix type="matrix" values="0 0 0 0 0 0 0 0 0 0 0 0 0 0 0 0 0 0 0.5 0"/>
<feBlend mode="normal" in2="BackgroundImageFix" result="effect1_dropShadow_657_1082"/>
<feBlend mode="normal" in="SourceGraphic" in2="effect1_dropShadow_657_1082" result="shape"/>
</filter>
</defs>
</svg>
