<svg width="140" height="58" viewBox="0 0 140 58" fill="none" xmlns="http://www.w3.org/2000/svg">
<g clip-path="url(#clip0_1963_22280)">
<path d="M74.8441 1.31934L54.639 17.3748L46.5572 10.7119L30.8297 24.1459H89.74L89.4377 22.5351L107.221 22.8689L92.8662 9.51047L86.9674 13.4426L74.8441 1.31934Z" fill="white"/>
<path d="M35.6759 20.0056L34.4163 23.2621L33.7789 21.6269L28.343 26.2696L33.0648 26.7534L33.3998 26.7872L35.8875 27.0419L35.8863 27.0374L41.0536 27.5584L61.9694 26.1651L58.3651 21.5514L48.6993 22.7249L35.6759 20.0056Z" fill="white"/>
<path d="M46.5568 10.7119L46.9936 14.0977L48.9038 15.1822L49.4251 21.9397L54.639 17.3743" fill="#001A1F"/>
<path d="M74.8446 1.31909L75.8549 7.02579L79.4318 8.7733L78.6672 12.7598L80.797 14.1523L80.524 18.1661L86.9679 13.4424" fill="#001A1F"/>
<path d="M92.8661 9.5105L93.8488 15.5175L96.3063 18.6844L98.7091 18.5762L100.429 21.4431L104.279 21.4698L105.985 22.5281L106.858 22.5304L92.8661 9.5105Z" fill="#001A1F"/>
<path d="M15.6685 20.6006C18.4755 22.2587 22.9915 24.7762 28.545 26.6958C31.4721 27.7077 34.2652 28.4094 36.9033 28.8666C38.1436 29.0816 39.3997 29.2589 40.6776 29.3973C44.5397 29.8158 48.4208 29.8606 52.4742 29.6036C56.3543 29.3576 60.2534 28.8433 64.1488 28.2045C64.1489 28.2045 64.2687 28.1847 64.269 28.1847C72.6546 26.8053 80.2368 25.1731 89.976 24.2971C91.9549 24.1191 93.91 23.9844 95.8651 23.8911C100.585 23.6659 105.459 23.5975 110.952 23.922C116.332 24.24 120.888 24.8639 123.754 25.3515C116.506 23.2953 106.718 20.854 95.858 20.3946C93.8456 20.3094 91.8177 20.2832 89.7681 20.3157C80.0453 20.4694 71.361 21.9206 63.437 23.3384C63.4364 23.3385 63.3187 23.3596 63.318 23.3598C59.431 24.0558 55.7396 24.7682 52.0263 25.3169C48.1802 25.8852 44.5312 26.2425 40.8487 26.2507C39.6299 26.2542 38.4253 26.2177 37.2291 26.1415C34.6794 25.9787 31.9539 25.6526 29.0045 25.0369C23.3807 23.863 18.6707 21.9759 15.6685 20.6006Z" fill="#008199"/>
<path d="M19.0773 19.0125C33.427 28.3458 51.5676 26.5622 67.2747 20.7007C41.8334 26.2558 30.4613 22.8468 19.0773 19.0125Z" fill="#008199"/>
<path d="M81.8434 27.5583C94.8299 25.0513 104.51 25.823 122.736 27.0386C115.908 26.1738 109.09 24.7741 102.19 24.6235C95.2824 24.5062 86.7295 24.9634 81.8434 27.5583Z" fill="#008199"/>
<path d="M4.22363 53.3638V43.0057H0.13874V40.5985H11.2628V43.0057H7.17787V53.3638H4.22363ZM18.2744 53.5826C16.4629 53.5826 15.0466 53.0781 14.0254 52.069C13.0042 51.0599 12.4936 49.6193 12.4936 47.7471V40.5985H15.4478V47.6376C15.4478 48.8534 15.697 49.7287 16.1955 50.2636C16.6939 50.7986 17.393 51.066 18.2926 51.066C19.1923 51.066 19.8913 50.7986 20.3898 50.2636C20.8882 49.7287 21.1375 48.8534 21.1375 47.6376V40.5985H24.0552V47.7471C24.0552 49.6193 23.5446 51.0599 22.5234 52.069C21.5022 53.0781 20.0858 53.5826 18.2744 53.5826ZM26.9746 53.3638V40.5985H32.4272C34.2022 40.5985 35.582 41.0119 36.5668 41.8386C37.5515 42.6531 38.0439 43.7837 38.0439 45.2305C38.0439 46.1787 37.819 46.9994 37.3692 47.6923C36.9193 48.3732 36.2811 48.8959 35.4544 49.2606C34.6277 49.6254 33.6429 49.8077 32.5001 49.8077H28.6158L29.9288 48.513V53.3638H26.9746ZM35.0896 53.3638L31.8983 48.7318H35.0532L38.281 53.3638H35.0896ZM29.9288 48.8412L28.6158 47.4553H32.336C33.2478 47.4553 33.9286 47.2608 34.3784 46.8717C34.8283 46.4705 35.0532 45.9234 35.0532 45.2305C35.0532 44.5253 34.8283 43.9783 34.3784 43.5892C33.9286 43.2002 33.2478 43.0057 32.336 43.0057H28.6158L29.9288 41.6015V48.8412ZM40.3845 53.3638V40.5985H43.3388V53.3638H40.3845ZM50.5625 53.5826C49.5413 53.5826 48.5627 53.4489 47.6265 53.1814C46.6904 52.9018 45.9367 52.5431 45.3653 52.1055L46.3682 49.8807C46.9153 50.2697 47.5597 50.5919 48.3013 50.8472C49.055 51.0903 49.8149 51.2119 50.5808 51.2119C51.1643 51.2119 51.6324 51.1572 51.985 51.0478C52.3497 50.9262 52.6171 50.7621 52.7874 50.5554C52.9576 50.3487 53.0427 50.1117 53.0427 49.8442C53.0427 49.5038 52.9089 49.2363 52.6415 49.0418C52.374 48.8351 52.0214 48.671 51.5838 48.5494C51.1461 48.4157 50.6598 48.2941 50.1249 48.1847C49.6021 48.0631 49.0733 47.9173 48.5383 47.7471C48.0156 47.5768 47.5354 47.358 47.0977 47.0906C46.66 46.8231 46.3014 46.4705 46.0218 46.0329C45.7543 45.5952 45.6206 45.036 45.6206 44.3551C45.6206 43.6257 45.8151 42.9631 46.2041 42.3674C46.6053 41.7595 47.201 41.2793 47.9913 40.9268C48.7936 40.562 49.7966 40.3797 51.0002 40.3797C51.8026 40.3797 52.5928 40.4769 53.3709 40.6714C54.149 40.8538 54.8359 41.1334 55.4316 41.5103L54.5198 43.7533C53.9241 43.4129 53.3284 43.1637 52.7326 43.0057C52.1369 42.8355 51.5534 42.7504 50.982 42.7504C50.4106 42.7504 49.9425 42.8172 49.5778 42.951C49.2131 43.0847 48.9517 43.261 48.7936 43.4798C48.6356 43.6865 48.5566 43.9296 48.5566 44.2092C48.5566 44.5375 48.6903 44.805 48.9578 45.0116C49.2252 45.2062 49.5778 45.3642 50.0155 45.4858C50.4531 45.6073 50.9333 45.7289 51.4561 45.8505C51.991 45.9721 52.5199 46.1119 53.0427 46.2699C53.5776 46.428 54.0639 46.6407 54.5015 46.9082C54.9392 47.1757 55.2918 47.5282 55.5592 47.9659C55.8389 48.4036 55.9787 48.9567 55.9787 49.6254C55.9787 50.3427 55.7781 50.9992 55.3769 51.5949C54.9757 52.1906 54.3739 52.6708 53.5715 53.0355C52.7813 53.4002 51.7783 53.5826 50.5625 53.5826ZM57.9973 53.3638V40.5985H60.441L65.8753 49.6071H64.5806L69.9237 40.5985H72.3491L72.3856 53.3638H69.6137L69.5955 44.8475H70.1061L65.8388 52.0143H64.5076L60.1492 44.8475H60.7692V53.3638H57.9973ZM75.4142 53.3638V40.5985H85.0611V42.9692H78.3502V50.9931H85.2982V53.3638H75.4142ZM78.1314 48.0388V45.7411H84.277V48.0388H78.1314ZM87.6488 53.3638V40.5985H90.0924L97.6239 49.7895H96.4386V40.5985H99.3564V53.3638H96.931L89.3812 44.1728H90.5666V53.3638H87.6488ZM102.377 53.3638V40.5985H108.176C109.562 40.5985 110.783 40.866 111.841 41.4009C112.899 41.9237 113.726 42.6592 114.321 43.6075C114.917 44.5557 115.215 45.6803 115.215 46.9811C115.215 48.2698 114.917 49.3944 114.321 50.3548C113.726 51.3031 112.899 52.0447 111.841 52.5796C110.783 53.1024 109.562 53.3638 108.176 53.3638H102.377ZM105.331 50.9384H108.03C108.881 50.9384 109.616 50.7803 110.236 50.4642C110.869 50.136 111.355 49.674 111.695 49.0783C112.048 48.4826 112.224 47.7835 112.224 46.9811C112.224 46.1666 112.048 45.4675 111.695 44.884C111.355 44.2883 110.869 43.8324 110.236 43.5163C109.616 43.188 108.881 43.0239 108.03 43.0239H105.331V50.9384ZM117.443 53.3638V40.5985H127.09V42.9692H120.379V50.9931H127.327V53.3638H117.443ZM120.16 48.0388V45.7411H126.305V48.0388H120.16ZM133.872 53.5826C132.85 53.5826 131.872 53.4489 130.936 53.1814C129.999 52.9018 129.246 52.5431 128.674 52.1055L129.677 49.8807C130.224 50.2697 130.869 50.5919 131.61 50.8472C132.364 51.0903 133.124 51.2119 133.89 51.2119C134.473 51.2119 134.941 51.1572 135.294 51.0478C135.659 50.9262 135.926 50.7621 136.096 50.5554C136.267 50.3487 136.352 50.1117 136.352 49.8442C136.352 49.5038 136.218 49.2363 135.951 49.0418C135.683 48.8351 135.33 48.671 134.893 48.5494C134.455 48.4157 133.969 48.2941 133.434 48.1847C132.911 48.0631 132.382 47.9173 131.847 47.7471C131.325 47.5768 130.844 47.358 130.407 47.0906C129.969 46.8231 129.61 46.4705 129.331 46.0329C129.063 45.5952 128.93 45.036 128.93 44.3551C128.93 43.6257 129.124 42.9631 129.513 42.3674C129.914 41.7595 130.51 41.2793 131.3 40.9268C132.103 40.562 133.106 40.3797 134.309 40.3797C135.112 40.3797 135.902 40.4769 136.68 40.6714C137.458 40.8538 138.145 41.1334 138.741 41.5103L137.829 43.7533C137.233 43.4129 136.637 43.1637 136.042 43.0057C135.446 42.8355 134.862 42.7504 134.291 42.7504C133.72 42.7504 133.252 42.8172 132.887 42.951C132.522 43.0847 132.261 43.261 132.103 43.4798C131.945 43.6865 131.866 43.9296 131.866 44.2092C131.866 44.5375 131.999 44.805 132.267 45.0116C132.534 45.2062 132.887 45.3642 133.325 45.4858C133.762 45.6073 134.242 45.7289 134.765 45.8505C135.3 45.9721 135.829 46.1119 136.352 46.2699C136.887 46.428 137.373 46.6407 137.811 46.9082C138.248 47.1757 138.601 47.5282 138.868 47.9659C139.148 48.4036 139.288 48.9567 139.288 49.6254C139.288 50.3427 139.087 50.9992 138.686 51.5949C138.285 52.1906 137.683 52.6708 136.881 53.0355C136.09 53.4002 135.087 53.5826 133.872 53.5826Z" fill="white"/>
</g>
<defs>
<clipPath id="clip0_1963_22280">
<rect width="140" height="56.5295" fill="white" transform="translate(0 0.866699)"/>
</clipPath>
</defs>
</svg>
