<svg width="32" height="32" viewBox="0 0 32 32" fill="none" xmlns="http://www.w3.org/2000/svg">
<g clip-path="url(#clip0_1819_25312)">
<g clip-path="url(#clip1_1819_25312)">
<path d="M9 13C9 11.9391 9.42143 10.9217 10.1716 10.1716C10.9217 9.42143 11.9391 9 13 9L15 13L13.46 15.3088C14.0709 16.7684 15.2316 17.9291 16.6912 18.54L19 17L23 19C23 20.0609 22.5786 21.0783 21.8284 21.8284C21.0783 22.5786 20.0609 23 19 23C16.3478 23 13.8043 21.9464 11.9289 20.0711C10.0536 18.1957 9 15.6522 9 13Z" stroke="black" stroke-width="2" stroke-linecap="round" stroke-linejoin="round"/>
<path d="M9.99124 26.3887C12.5119 27.8475 15.4771 28.3399 18.334 27.774C21.1909 27.2081 23.7444 25.6225 25.5186 23.3129C27.2928 21.0032 28.1664 18.1272 27.9767 15.221C27.787 12.3148 26.5469 9.57679 24.4875 7.51742C22.4281 5.45805 19.6901 4.2179 16.7839 4.02819C13.8777 3.83847 11.0017 4.71215 8.69205 6.48632C6.38243 8.26049 4.79685 10.8141 4.23093 13.6709C3.66502 16.5278 4.15738 19.493 5.61624 22.0137L4.05249 26.6824C3.99373 26.8586 3.9852 27.0477 4.02786 27.2285C4.07052 27.4092 4.16269 27.5745 4.29402 27.7059C4.42536 27.8372 4.59067 27.9294 4.77144 27.972C4.95222 28.0147 5.14129 28.0062 5.31749 27.9474L9.99124 26.3887Z" stroke="black" stroke-width="2" stroke-linecap="round" stroke-linejoin="round"/>
</g>
</g>
<defs>
<clipPath id="clip0_1819_25312">
<rect width="32" height="32" fill="white"/>
</clipPath>
<clipPath id="clip1_1819_25312">
<rect width="32" height="32" fill="white"/>
</clipPath>
</defs>
</svg>
